<?xml version="1.0" encoding="utf-8"?>
<!-- Generator: Adobe Illustrator 16.0.0, SVG Export Plug-In . SVG Version: 6.00 Build 0)  -->
<!DOCTYPE svg PUBLIC "-//W3C//DTD SVG 1.1//EN" "http://www.w3.org/Graphics/SVG/1.1/DTD/svg11.dtd">
<svg version="1.1" id="Layer_1" xmlns="http://www.w3.org/2000/svg" xmlns:xlink="http://www.w3.org/1999/xlink" x="0px" y="0px"
	 width="130px" height="86px" viewBox="0 0 130 86" enable-background="new 0 0 130 86" xml:space="preserve">
<g>
	<g>
		<path fill="#BE1E2D" d="M20.082,3.561c1.119,0.169,2,0.667,2,1.796c0,0.757-0.418,1.333-1.084,1.707
			c-0.577,0.316-1.322,0.453-2.215,0.453h-2.498V7.199c0.971-0.067,1.039-0.135,1.039-1.084V1.559c0-0.938-0.045-1.005-0.95-1.073
			V0.17h2.905c0.847,0,1.345,0.135,1.695,0.384c0.407,0.271,0.633,0.769,0.633,1.288c0,1.074-0.894,1.515-1.526,1.685L20.082,3.561
			L20.082,3.561z M18.805,3.424c1.243,0,1.763-0.496,1.763-1.445c0-0.77-0.43-1.447-1.503-1.447c-0.282,0-0.531,0.045-0.646,0.112
			c-0.101,0.069-0.146,0.193-0.146,0.565v2.215H18.805z M18.273,6.103c0,0.813,0.215,1.028,0.938,1.028
			c0.927-0.012,1.752-0.486,1.752-1.661c0-1.165-0.791-1.674-2.17-1.674h-0.52V6.103z"/>
		<path fill="#BE1E2D" d="M32.927,7.517V7.199c0.87-0.068,0.971-0.125,0.971-1.095v-2.95c0-0.373,0-1.018,0.057-2.103H33.91
			l-3.583,5.911c-0.091,0.136-0.102,0.283-0.102,0.43v0.125h-1.99V7.199c0.86-0.068,0.95-0.146,0.95-1.175V1.515
			c0-0.893-0.089-0.961-0.95-1.029V0.17h2.849v0.316c-0.848,0.068-0.961,0.136-0.961,1.017v2.758c0,0.521,0,1.107-0.044,2.227h0.022
			l3.548-5.832c0.103-0.159,0.125-0.271,0.125-0.373V0.17h2.023v0.316c-0.859,0.068-0.961,0.158-0.961,1.165v4.453
			c0,0.971,0.102,1.027,0.961,1.095v0.318H32.927z"/>
		<path fill="#BE1E2D" d="M50.154,0.486c-0.927,0.079-1.018,0.136-1.018,1.073v4.567c0,0.948,0.091,1.005,1.006,1.073v0.317h-3.029
			V7.199c0.961-0.067,1.063-0.125,1.063-1.073V3.865h-3.854v2.261c0,0.938,0.091,1.005,1.017,1.073v0.317h-2.972V7.199
			c0.904-0.067,0.995-0.125,0.995-1.073V1.559c0-0.949-0.09-0.995-1.019-1.073V0.169h2.928v0.316
			c-0.859,0.079-0.95,0.136-0.95,1.073V3.39h3.854V1.559c0-0.938-0.091-0.995-0.973-1.073V0.169h2.951L50.154,0.486L50.154,0.486z"
			/>
		<path fill="#BE1E2D" d="M61.184,7.517V7.199c0.712-0.089,0.814-0.18,0.667-0.621c-0.147-0.442-0.373-1.052-0.621-1.741h-2.408
			c-0.18,0.509-0.35,0.983-0.497,1.457c-0.248,0.712-0.147,0.826,0.701,0.905v0.318h-2.452V7.199
			c0.712-0.101,0.87-0.169,1.266-1.164L60.18,0.1L60.528,0c0.701,1.944,1.457,4.091,2.182,6.058
			c0.361,0.971,0.508,1.073,1.243,1.141v0.318H61.184z M60.077,1.469h-0.023c-0.361,0.972-0.723,1.955-1.063,2.882h2.081
			L60.077,1.469z"/>
		<path fill="#BE1E2D" d="M73.236,0.17c0.802,0,1.443,0.135,1.897,0.474c0.44,0.328,0.733,0.849,0.733,1.594
			c0,1.458-1.107,2.169-2.203,2.317c-0.17,0.011-0.385,0.011-0.508,0L72.32,4.34v1.774c0,0.959,0.102,1.017,1.117,1.084v0.318
			h-3.062V7.199c0.903-0.067,0.994-0.158,0.994-1.096V1.582c0-0.994-0.091-1.04-0.929-1.096V0.17H73.236z M72.32,3.967
			c0.146,0.057,0.451,0.136,0.826,0.136c0.732,0,1.639-0.396,1.639-1.831c0-1.221-0.781-1.74-1.708-1.74
			c-0.316,0-0.554,0.056-0.634,0.136c-0.09,0.078-0.123,0.212-0.123,0.531V3.967z"/>
		<path fill="#BE1E2D" d="M86.75,7.517V7.199c0.871-0.068,0.973-0.125,0.973-1.095v-2.95c0-0.373,0-1.018,0.057-2.103h-0.045
			l-3.582,5.911c-0.092,0.136-0.103,0.283-0.103,0.43v0.125h-1.989V7.199c0.858-0.068,0.948-0.146,0.948-1.175V1.515
			c0-0.893-0.09-0.961-0.948-1.029V0.17h2.85v0.316c-0.85,0.068-0.962,0.136-0.962,1.017v2.758c0,0.521,0,1.107-0.046,2.227h0.022
			l3.55-5.832C87.575,0.497,87.6,0.385,87.6,0.283V0.17h2.021v0.316C88.762,0.554,88.66,0.644,88.66,1.65v4.453
			c0,0.971,0.102,1.027,0.961,1.095v0.318L86.75,7.517L86.75,7.517z"/>
		<path fill="#BE1E2D" d="M99.128,0.486c-0.871,0.068-0.963,0.147-0.963,1.097V5.81c0,1.445-0.224,2.226-0.972,2.916
			c-0.383,0.35-0.767,0.564-1.051,0.654l-0.146-0.315c0.634-0.316,0.972-0.837,1.085-1.481c0.104-0.542,0.125-1.198,0.125-2.147
			V1.583c0-0.95-0.091-1.029-1.007-1.097V0.169h2.929L99.128,0.486L99.128,0.486z"/>
		<path fill="#BE1E2D" d="M109.54,7.517V7.199c0.713-0.089,0.813-0.18,0.667-0.621c-0.146-0.442-0.372-1.052-0.621-1.741h-2.406
			c-0.182,0.509-0.352,0.983-0.498,1.457c-0.248,0.712-0.146,0.826,0.7,0.905v0.318h-2.45V7.199
			c0.711-0.101,0.867-0.169,1.266-1.164l2.338-5.935l0.352-0.1c0.699,1.944,1.456,4.091,2.18,6.058
			c0.361,0.971,0.51,1.073,1.242,1.141v0.318H109.54z M108.434,1.469h-0.021c-0.362,0.972-0.725,1.955-1.063,2.882h2.078
			L108.434,1.469z"/>
	</g>
	<g>
		<path d="M117.346,44.059c0.057-0.082,0.021-0.166,0.021-0.166c-0.037-0.084-0.166-0.168-0.263-0.168h-0.278
			c0,0-0.06,0.084-0.116,0.168c-0.093,0-0.359,0.25-0.359,0.25c-0.396,0.166-1.72,0.996-2.058,1.078
			c-0.21,0.168-2.039,0.915-2.19,0.997c-0.396,0.166-2.664,1.413-3.478,1.911l-2.532,1.494c-0.302,0.167-1.475,0.915-1.777,1.08
			c-0.907,0.499-4.306,2.16-5.062,2.578c-0.094,0-0.905,0.496-1.058,0.578l-0.549,0.25l-0.244,0.082l-0.036-0.082
			c-0.093,0-0.108-0.25-0.108-0.25c0.043-0.332,0.588-1.66,0.723-1.993c0.136-0.331,1.002-1.994,1.082-2.243
			c0.058-0.082,1.571-2.409,2.166-3.405l0.231-0.331c0.151-0.084,0.799-0.748,0.892-0.748c0,0,0.965-0.582,1.324-0.83
			c0.059-0.084,0.547-0.25,0.547-0.25c0.059-0.082,0.735-0.25,0.793-0.334c0.246-0.08,0.758-0.415,0.851-0.415
			c0.057-0.082,1.216-1.08,1.632-1.411c0.059-0.083,0.322-0.332,0.382-0.417c0.115-0.165,0.495-0.581,0.495-0.581l0.402-0.582
			c0.058-0.083,0.313-0.996,0.486-1.246c0.057-0.083-0.052-0.332-0.146-0.332c0.114-0.167-0.146-0.333-0.238-0.333h-0.655
			c-0.152,0.084-0.959,0.167-1.168,0.333c-0.094,0-1.605,0.83-2.058,1.08c0,0-0.722,0.498-0.987,0.748c0,0-0.798,0.748-1.007,0.913
			c-0.209,0.167-1.216,1.081-1.33,1.248c-0.208,0.166-0.532,0.498-0.532,0.498l-0.324,0.333c-0.057,0.084-0.603,0.332-0.416,0.332
			c-0.301,0.166-0.473,0.416-0.473,0.416c-0.455,0.248-2.104,1.41-2.44,1.494c-0.21,0.166-0.944,0.415-1.116,0.664
			c-0.096,0-0.85,0.416-1.059,0.582c-0.338,0.084-1.721,0.997-2.174,1.246c-0.115,0.165-0.549,0.249-0.549,0.249
			c-0.113,0.166-0.135,0.334-0.322,0.334c-0.057,0.081-0.813,0.498-0.813,0.498L82.91,53.93c-0.031,0.012-0.077,0.034-0.133,0.063
			c0.106,0.317,0.05,0.704-0.229,1.012c0.278-0.163,0.514-0.31,0.65-0.409c0.244-0.082,8.525-4.39,8.641-4.556
			c0.15-0.083,0.965-0.581,1.021-0.663c0.058-0.084,0.908-0.498,0.908-0.498c0.092,0,0.963-0.583,0.963-0.583l1.174-0.748
			c0.188,0,0.792-0.333,1.002-0.498c0.148-0.084,0.963-0.582,1.056-0.582l0.36-0.249l0.662-0.414
			c-0.209,0.166-0.553,0.663-0.725,0.912c0,0-0.591,0.583-0.646,0.666l-1.727,2.49c0,0-0.271,0.666-0.386,0.831
			c-0.173,0.251-0.487,1.247-0.544,1.331c-0.172,0.249-0.466,1.078-0.486,1.247c0.037,0.079-0.164,0.911-0.148,1.161
			c0.037,0.084,0.066,0.582-0.049,0.748l0.168,0.164l0.427,0.334c0.187,0,0.764,0.248,0.95,0.248h0.563c0,0,0.245-0.082,0.302-0.166
			c0.246-0.082,1.435-0.58,1.888-0.83c0.059-0.082,0.547-0.25,0.547-0.25s0.172-0.248,0.267-0.248
			c0.059-0.084,0.549-0.25,0.698-0.332l0.965-0.582l0.454-0.247c0.059-0.085,0.395-0.169,0.512-0.334
			c0.094,0,0.488-0.166,0.676-0.166c0.113-0.167,0.36-0.249,0.418-0.333c0.188,0,1.095-0.498,1.244-0.582l0.455-0.25
			c0.242-0.081,1.172-0.747,1.476-0.913l0.813-0.498c0.418-0.333,1.381-0.913,1.625-0.996c0.758-0.416,3.025-1.662,3.326-1.827
			l1.68-0.666l3.174-1.744l0.346-0.498C117.359,44.309,117.346,44.059,117.346,44.059 M103.846,42.978l0.516-0.748
			c0.117-0.166,0.461-0.663,0.705-0.748c0.268-0.249,1.369-1.162,1.728-1.411c0,0,0.358-0.25,0.454-0.25
			c0.148-0.084,0.771-0.167,0.771-0.167c0.092,0,0.338-0.083,0.432-0.083l-0.059,0.083c0,0-0.078,0.25-0.136,0.332
			c0,0-0.022,0.167-0.077,0.25c-0.058,0.083-0.267,0.25-0.324,0.333c0,0-0.836,0.664-0.985,0.748
			c-0.06,0.083-0.683,0.582-0.798,0.748c-0.151,0.083-0.813,0.499-1.117,0.665c0,0-0.452,0.249-0.732,0.249
			c-0.059,0.082-0.361,0.25-0.361,0.25C103.674,43.228,103.788,43.06,103.846,42.978"/>
		<path d="M21.834,50.587c-1.071,0.888-5.17,2.329-5.17,2.329l-2.102,1.441c0,0-2.925,0.332,2.928-5.436
			c0,0,3.648-4.341,8.495-9.219c0.478-0.042,2.433-1.264,2.918-1.705c0.28-0.32,0.566-0.635,0.858-0.946
			c-0.713,0.368-1.452,0.741-2.234,1.123c0.928-0.905,1.888-1.815,2.865-2.707c-1.069,0.011-2.146,0.061-3.238,0.217
			c-0.136,0.02-0.256,0.012-0.367-0.011C20.656,41.63,15.021,48.4,12.25,51.85c-1.144,1.428-1.189,3.615-1.189,3.615
			c0.364,3.326,15.131-5.283,15.131-5.283c0.262,1.53-0.57,3.629-2.23,6.879c0.023,0,0.047-0.004,0.07-0.004
			c0.439,0,0.592,0.329,0.924,0.521c2.053-4.147,7.956-9.448,7.956-9.448C34.033,43.249,22.905,49.699,21.834,50.587"/>
		<path d="M33.562,51.059l0.19-0.261c0,0,0.223-0.345,0.258-0.432c0.155-0.173,0.775-0.862,1.018-1.035
			c0.068-0.173,1.136-1.556,1.291-1.728c0.155-0.174,0.518-0.433,0.552-0.519l0.708-0.692c0.033-0.084,0.395-0.345,0.43-0.431
			c0.154-0.172,0.792-0.69,0.913-0.778c0.242-0.17,1.208-0.86,1.45-1.035c0,0,0.412-0.172,0.586-0.172
			c0.12-0.088,0.793-0.261,0.915-0.347c0.208-0.087,0.915-0.346,0.915-0.346h0.172h0.259c0,0-0.052,0.346-0.12,0.519
			c0,0-0.119,0.521-0.068,0.604c0,0,0.087,0,0.053,0.086h1.036h0.863c0.259,0,1.244-0.086,1.589-0.086l0.793-0.261
			c0.346,0,2.296-0.345,2.728-0.345c0,0,1.019-0.173,1.105-0.173l0.725-0.087c0.172,0,0.967-0.259,1.053-0.259l1.071-0.085
			c0.38-0.088,1.744-0.26,1.95-0.347h0.173c0.138,0.087,0.449,0.173,0.536,0.173c0,0,0.139,0.086,0.104,0.174
			c-0.121,0.085-0.465,0.517-0.585,0.604l-0.242,0.175h-0.259h-0.345l-0.191-0.175h-0.086h-0.173c0,0-0.466,0.087-0.5,0.175h-0.691
			c0,0-1.363,0.17-1.45,0.17c0,0-0.587,0.176-0.794,0.261c-0.086,0-0.604,0-0.639,0.086h-0.346c-0.259,0-1.605,0.346-1.778,0.346
			c-0.172,0-1.192,0.175-1.312,0.261c-0.172,0-0.725,0.084-0.725,0.084h-0.345c-0.122,0.088-0.588,0.176-0.674,0.176
			c-0.172,0-1.398,0.257-1.605,0.345c0,0-0.467,0.087-0.552,0.087c-0.173,0-0.5,0.172-0.5,0.172
			c-0.122,0.086-0.502,0.173-0.656,0.346l-0.329,0.174l-0.068,0.172c-0.068,0.173-0.05,0.777-0.12,0.949c0,0-0.12,0.519-0.188,0.69
			c-0.034,0.087,0.139,0.519,0.226,0.519l-0.103,0.262l-0.034,0.085c-0.087,0-0.345,0.431-0.345,0.431
			c-0.034,0.087-0.103,0.262-0.137,0.346c0,0-0.361,0.26-0.43,0.433c-0.069,0.174-0.621,0.69-0.775,0.864
			c-0.294,0.086-0.845,0.604-1.139,0.689c0,0-1.139,0.689-1.225,0.689c-0.155,0.175-0.811,0.52-0.966,0.691l-0.414,0.174
			c0,0-0.552,0.086-0.725,0.086c0,0-0.621,0.26-0.708,0.26c0,0-0.551,0.087-0.725,0.087l-0.398-0.087
			c-0.085,0-0.381-0.346-0.381-0.346c-0.172,0-0.053-0.521-0.053-0.521l-0.018-0.171c-0.173,0-0.174-0.434-0.14-0.52
			c0.036-0.088,0.154-0.604,0.224-0.776c0,0,0.068-0.173,0.102-0.259L33.562,51.059z M38.069,50.798l0.069,0.261l0.105,0.174
			c0.085,0,0.328-0.174,0.586-0.174c0,0,0.536-0.261,0.604-0.433c0.294-0.086,0.604-0.433,0.604-0.433s0.276-0.26,0.31-0.344
			c0.035-0.088-0.035-0.347-0.035-0.347s0.086-0.431,0.188-0.69l0.052-0.348h-0.26H40.12c-0.087,0-0.259,0-0.294,0.087
			c0,0-0.292,0.087-0.362,0.261c-0.275,0.261-0.775,0.862-0.982,0.949l-0.172,0.432C38.24,50.366,38.069,50.798,38.069,50.798"/>
		<path d="M129.059,31.387c-0.088,0-0.398-0.086-0.537-0.173h-0.172c-0.207,0.087-1.572,0.259-1.951,0.346l-1.069,0.087
			c-0.087,0-0.882,0.258-1.054,0.258l-0.727,0.086c-0.086,0-1.105,0.173-1.105,0.173c-0.43,0-2.381,0.345-2.727,0.345l-0.794,0.259
			c-0.292,0-1.504,0.736-1.586,1.07c0.317-0.066,0.61-0.119,0.688-0.119c0.086,0,0.553-0.087,0.674-0.173h0.345
			c0,0,0.556-0.086,0.728-0.086c0.119-0.085,1.139-0.258,1.312-0.258c0.174,0,1.521-0.346,1.778-0.346h0.345
			c0.034-0.087,0.554-0.087,0.64-0.087c0.207-0.087,0.795-0.259,0.795-0.259c0.088,0,1.448-0.172,1.448-0.172h0.69
			c0.035-0.086,0.502-0.173,0.502-0.173h0.172h0.086l0.191,0.173h0.346h0.259l0.242-0.173c0.12-0.086,0.464-0.518,0.585-0.605
			C129.195,31.473,129.059,31.387,129.059,31.387"/>
		<path d="M25.633,52.988c-0.059,0.066-0.106,0.127-0.12,0.164c-0.063,0-0.286,0.25-0.348,0.25c0,0-0.335,0.371-0.359,0.433
			c-0.373,0.312-1.676,1.556-2.01,1.929c-0.063,0-0.298,0.125-0.298,0.125c-0.111,0.122-1.03,0.869-1.253,1.116
			c-0.174,0.125-0.831,0.685-1.005,0.81c-0.087,0.063-0.818,0.809-0.954,0.994c-0.063,0-0.459,0.373-0.546,0.436
			c-0.049,0.125-0.286,0.25-0.286,0.25c-0.05,0.124-0.335,0.372-0.359,0.434c-0.051,0.127-0.845,0.869-0.869,0.932
			c-0.124,0-0.396,0.373-0.42,0.437c0,0-0.087,0.062-0.15,0.062c-0.335,0.373-1.811,1.74-2.096,1.99
			c-0.025,0.061-0.559,0.62-0.645,0.684l-0.509,0.496c-0.086,0.063-0.546,0.437-0.595,0.56c-0.236,0.127-0.942,0.81-1.117,0.935
			c-0.05,0.125-1.14,1.305-1.275,1.49c-0.088,0.063-0.82,0.807-0.932,0.932c-0.048,0.123-0.943,1.119-1.078,1.306
			c-0.063,0-0.261,0.188-0.285,0.249c-0.199,0.188-0.757,0.809-0.819,0.809c-0.049,0.123-0.421,0.745-0.421,0.745
			c-0.199,0.187-0.928,1.243-1.041,1.367c-0.024,0.063-0.272,0.373-0.272,0.373c-0.05,0.125-0.21,0.373-0.235,0.437
			C5.2,73.914,4.618,74.598,4.505,74.72c-0.024,0.063-0.335,0.374-0.398,0.374c-0.073,0.188-0.705,0.994-0.879,1.118
			c-0.025,0.062-0.248,0.312-0.297,0.435c-0.087,0.063-0.88,1.119-1.152,1.492c-0.112,0.125-0.373,0.623-0.373,0.623
			c-0.174,0.123-0.482,0.745-0.508,0.807c-0.024,0.063-0.247,0.623-0.297,0.746c-0.073,0.188-0.296,0.746-0.345,0.871
			c0,0-0.037,0.248,0.063,0.312c0,0-0.172,0.744-0.197,0.808c-0.025,0.062,0.001,0.311,0.001,0.311
			c-0.025,0.062-0.012,0.186,0.024,0.248c-0.024,0.063,0.112,0.188,0.062,0.311c0.039,0.063,0.176,0.498,0.238,0.498l0.125,0.311
			c0.037,0.063,0.149,0.25,0.149,0.25c-0.012,0.187,0.175,0.496,0.188,0.621c0.063,0,0.212,0.248,0.212,0.248
			c-0.049,0.125,0.2,0.125,0.324,0.125H1.63h0.249c0.061,0,0.249,0,0.422-0.125l0.211-0.063c0.149-0.062,0.843-0.56,0.931-0.62
			c0.125,0,0.434-0.313,0.545-0.436c0.024-0.063,0.287-0.248,0.31-0.312c0.112-0.125,0.484-0.437,0.571-0.498
			c0.049-0.123,0.471-0.56,0.52-0.683L5.8,82.236c0,0,0.334-0.373,0.396-0.373l0.46-0.371c0.023-0.063,0.186-0.313,0.248-0.313
			c0.025-0.061,0.557-0.621,0.707-0.684c0.062,0,0.421-0.436,0.508-0.497c0,0,0.335-0.373,0.359-0.437
			c0.087-0.062,0.931-0.932,0.98-1.057c0.284-0.248,1.065-1.117,1.24-1.242c0.074-0.188,0.707-0.996,0.843-1.182
			c0,0,0.321-0.498,0.347-0.559c0.074-0.188,0.383-0.811,0.434-0.933c0,0,0.223-0.249,0.248-0.312l0.334-0.373
			c0.063,0,0.174-0.123,0.174-0.123c0.063,0,0.16-0.248,0.16-0.248s0.41-0.561,0.435-0.623c0.025-0.063,0.434-0.621,0.458-0.684
			c0.05-0.125,0.26-0.498,0.285-0.56l0.236-0.125c0.074-0.187,0.297-0.746,0.384-0.81l0.36-0.434c0,0,0.271-0.373,0.297-0.436
			c0,0,0.111-0.125,0.173-0.125c0.05-0.124,0.335-0.372,0.36-0.436c0.062,0,0.248-0.311,0.396-0.373
			c0.025-0.063,0.347-0.559,0.372-0.621c0.174-0.125,0.558-0.623,0.607-0.744c0.235-0.125,1.092-1.182,1.178-1.243
			c0,0,0.211-0.372,0.322-0.498c0.05-0.123,0.31-0.619,0.396-0.683c0.026-0.063,0.472-0.562,0.497-0.623c0,0,0.162-0.248,0.31-0.311
			c0.025-0.063,0.235-0.436,0.285-0.561l0.111-0.125c0.199-0.186,0.745-0.932,0.88-1.117c0.087-0.063,0.409-0.561,0.471-0.561
			c0.05-0.123,0.421-0.746,0.533-0.869c0.025-0.063,0.234-0.434,0.284-0.559c0.175-0.124,0.546-0.747,0.57-0.809l0.224-0.248
			c0.05-0.125,0.917-1.368,1.189-1.741l0.298-0.435c0.025-0.063,0.334-0.373,0.36-0.436c0.085-0.063,0.657-0.87,0.743-0.934
			l0.024-0.063c0.174-0.123,0.484-0.746,0.508-0.809l0.112-0.125c0.049-0.123,0.273-0.371,0.36-0.434c0,0,0.26-0.188,0.285-0.25
			c0.025-0.063,0.396-0.685,0.531-0.869c0.007-0.015,0.031-0.066,0.064-0.137C27.305,53.08,26.47,53.029,25.633,52.988
			 M23.456,56.445c-0.025,0.063-0.483,0.746-0.619,0.934c-0.024,0.063-0.235,0.436-0.235,0.436c-0.025,0.063-0.706,0.994-0.73,1.057
			l-0.273,0.373c-0.05,0.125-0.21,0.374-0.273,0.374c-0.024,0.062-0.322,0.497-0.322,0.497c-0.025,0.062-0.36,0.436-0.385,0.494
			c0,0-0.135,0.188-0.161,0.25c-0.024,0.063-0.594,0.869-0.644,0.994c0,0-0.495,0.621-0.608,0.746
			c-0.025,0.062-0.929,1.242-1.003,1.43l-0.137,0.187c-0.11,0.124-0.93,1.244-0.979,1.367c-0.161,0.248-1.512,1.927-1.711,2.11
			c-0.049,0.127-0.545,0.746-0.657,0.871c0,0-0.359,0.437-0.384,0.498c-0.025,0.063-0.224,0.248-0.224,0.248
			c-0.024,0.063-0.445,0.498-0.471,0.561c-0.148,0.063-0.223,0.249-0.248,0.311c-0.049,0.125-0.483,0.745-0.595,0.87
			c-0.024,0.063-0.459,0.685-0.483,0.747c-0.024,0.061-0.311,0.311-0.36,0.436c-0.024,0.062-0.322,0.496-0.322,0.496
			c-0.112,0.125-0.73,1.058-0.842,1.181c-0.211,0.374-1.5,2.051-1.6,2.299c0,0-0.471,0.56-0.582,0.685
			c-0.11,0.123-0.943,1.119-0.992,1.242c0,0-0.285,0.249-0.311,0.313c-0.024,0.062-0.583,0.684-0.631,0.808L6.49,79.564
			c-0.285,0.248-0.869,0.933-1.004,1.119c0,0-0.571,0.496-0.658,0.56c-0.05,0.125-0.943,1.116-1.116,1.241
			c-0.049,0.125-0.47,0.561-0.532,0.561c-0.112,0.123-0.696,0.496-0.696,0.496H2.235H1.986c-0.062,0-0.223-0.063-0.223-0.063
			s-0.15-0.248-0.188-0.312c-0.012-0.123-0.199-0.435-0.211-0.56c-0.038-0.063-0.089-0.56-0.188-0.621
			c-0.062,0-0.074-0.125-0.15-0.247c0.025-0.064,0.272-0.685,0.322-0.808c0.05-0.125,0.371-0.934,0.495-1.244
			c0.173-0.125,0.409-0.56,0.459-0.685c0,0,0.384-0.497,0.47-0.56c0.075-0.187,0.484-0.745,0.533-0.869
			c0.025-0.063,0.187-0.313,0.187-0.313c0.136-0.187,0.966-1.181,1.016-1.305c0,0,0.273-0.374,0.298-0.436H4.93
			c0.024-0.063,0.297-0.436,0.322-0.498c0.087-0.062,0.544-0.744,0.595-0.867l0.273-0.373c0.025-0.063,0.447-0.498,0.447-0.498
			c0.023-0.063,0.185-0.311,0.21-0.373c0.086-0.063,0.421-0.436,0.47-0.559l0.099-0.25c0.024-0.062,0.384-0.498,0.409-0.56
			c0.11-0.12,0.445-0.493,0.445-0.493c0.049-0.125,0.471-0.56,0.544-0.744c0.087-0.063,0.446-0.498,0.472-0.562
			c0,0,0.334-0.372,0.36-0.437h0.125c0.024-0.062,0.184-0.31,0.272-0.371c0.025-0.063,0.694-0.498,0.757-0.498
			c0.024-0.062,0.05-0.125,0.099-0.25c0.148-0.062,0.669-0.742,0.719-0.867c0,0,0.173-0.124,0.198-0.186c0,0,0.161-0.25,0.186-0.313
			l0.211-0.063c0,0,0.099-0.248,0.211-0.373l0.236-0.125c0.111-0.123,0.359-0.436,0.42-0.436c0.024-0.063,0.485-0.436,0.634-0.497
			c0,0,0.508-0.497,0.596-0.56c0,0,0.198-0.188,0.223-0.248c0.086-0.063,0.596-0.561,0.682-0.623
			c0.112-0.123,0.856-0.744,0.943-0.808c0.025-0.063,0.497-0.622,0.521-0.684c0.062,0,0.372-0.312,0.372-0.312
			c0.46-0.373,1.563-1.43,1.587-1.492c0,0,0.385-0.494,0.41-0.557c0.087-0.063,0.546-0.436,0.594-0.56
			c0.088-0.063,0.373-0.313,0.373-0.313c0.087-0.061,0.807-0.619,0.942-0.808c0.063,0,0.436-0.312,0.46-0.373l0.137-0.187
			c0.062,0,0.285-0.248,0.396-0.373c0.088-0.063,0.696-0.498,0.782-0.562c0.025-0.062,0.162-0.246,0.223-0.246
			c0.049-0.126,0.162-0.25,0.287-0.25c0,0,0.199-0.187,0.322-0.187h0.063C23.556,56.198,23.481,56.384,23.456,56.445"/>
		<path d="M82.073,52.988c-0.058,0.066-0.104,0.127-0.12,0.164c-0.063,0-0.284,0.25-0.348,0.25c0,0-0.334,0.371-0.358,0.433
			c-0.371,0.312-1.675,1.556-2.011,1.929c-0.063,0-0.297,0.125-0.297,0.125c-0.112,0.122-1.029,0.869-1.254,1.116
			c-0.174,0.125-0.83,0.685-1.004,0.81c-0.088,0.063-0.82,0.809-0.955,0.994c-0.063,0-0.459,0.373-0.545,0.436
			c-0.052,0.125-0.287,0.25-0.287,0.25c-0.049,0.124-0.336,0.372-0.357,0.434c-0.051,0.127-0.844,0.869-0.869,0.932
			c-0.124,0-0.396,0.373-0.422,0.437c0,0-0.086,0.062-0.146,0.062c-0.336,0.373-1.813,1.74-2.099,1.99
			c-0.022,0.061-0.558,0.62-0.646,0.684l-0.508,0.496c-0.087,0.063-0.548,0.437-0.597,0.56c-0.235,0.127-0.94,0.81-1.115,0.935
			c-0.051,0.125-1.141,1.305-1.278,1.49c-0.086,0.063-0.818,0.807-0.931,0.932c-0.048,0.123-0.942,1.119-1.078,1.306
			c-0.063,0-0.26,0.188-0.285,0.249c-0.198,0.188-0.755,0.809-0.818,0.809c-0.051,0.123-0.421,0.745-0.421,0.745
			c-0.2,0.187-0.931,1.243-1.042,1.367c-0.025,0.063-0.272,0.373-0.272,0.373c-0.05,0.125-0.211,0.373-0.235,0.437
			c-0.137,0.186-0.719,0.869-0.832,0.991c-0.024,0.063-0.334,0.374-0.397,0.374c-0.073,0.188-0.705,0.994-0.879,1.118
			c-0.024,0.062-0.247,0.312-0.296,0.435c-0.087,0.063-0.88,1.119-1.153,1.492c-0.112,0.125-0.373,0.623-0.373,0.623
			c-0.174,0.123-0.482,0.745-0.508,0.807c-0.024,0.063-0.247,0.623-0.297,0.746c-0.073,0.188-0.296,0.746-0.346,0.871
			c0,0-0.037,0.248,0.064,0.312c0,0-0.172,0.744-0.197,0.808c-0.024,0.062,0.001,0.311,0.001,0.311
			c-0.025,0.062-0.012,0.186,0.024,0.248c-0.024,0.063,0.112,0.188,0.063,0.311c0.038,0.063,0.174,0.498,0.238,0.498l0.124,0.311
			c0.038,0.063,0.15,0.25,0.15,0.25c-0.012,0.187,0.175,0.496,0.188,0.621c0.063,0,0.212,0.248,0.212,0.248
			c-0.049,0.125,0.2,0.125,0.323,0.125h0.186h0.249c0.062,0,0.249,0,0.422-0.125l0.211-0.063c0.149-0.062,0.844-0.56,0.931-0.62
			c0.125,0,0.434-0.313,0.546-0.436c0.025-0.063,0.287-0.248,0.31-0.312c0.112-0.125,0.484-0.437,0.571-0.498
			c0.049-0.123,0.472-0.56,0.52-0.683l0.411-0.249c0,0,0.334-0.373,0.396-0.373l0.458-0.371c0.025-0.063,0.187-0.312,0.249-0.312
			c0.025-0.062,0.558-0.621,0.707-0.685c0.061,0,0.421-0.437,0.509-0.497c0,0,0.334-0.373,0.359-0.436
			c0.086-0.063,0.93-0.933,0.98-1.058c0.285-0.247,1.064-1.118,1.24-1.243c0.073-0.187,0.705-0.994,0.842-1.181
			c0,0,0.322-0.498,0.347-0.56c0.073-0.187,0.384-0.81,0.435-0.932c0,0,0.223-0.248,0.247-0.311l0.334-0.374
			c0.063,0,0.175-0.123,0.175-0.123c0.063,0,0.16-0.248,0.16-0.248s0.41-0.56,0.437-0.623c0.022-0.062,0.433-0.621,0.458-0.683
			c0.049-0.125,0.258-0.498,0.283-0.561l0.235-0.125c0.074-0.188,0.298-0.746,0.384-0.809l0.36-0.434c0,0,0.271-0.373,0.297-0.437
			c0,0,0.111-0.125,0.173-0.125c0.051-0.124,0.336-0.372,0.359-0.437c0.063,0,0.249-0.31,0.396-0.371
			c0.024-0.063,0.348-0.56,0.371-0.623c0.174-0.125,0.56-0.621,0.608-0.742c0.233-0.125,1.092-1.182,1.179-1.244
			c0,0,0.209-0.372,0.32-0.498c0.05-0.123,0.311-0.619,0.396-0.684c0.026-0.063,0.473-0.561,0.496-0.621c0,0,0.162-0.248,0.31-0.312
			c0.024-0.062,0.235-0.437,0.284-0.56l0.113-0.125c0.198-0.187,0.743-0.932,0.879-1.118c0.088-0.062,0.41-0.56,0.471-0.56
			c0.052-0.125,0.422-0.748,0.533-0.869c0.024-0.063,0.234-0.435,0.285-0.56c0.174-0.124,0.545-0.747,0.569-0.808l0.224-0.249
			c0.051-0.125,0.916-1.368,1.188-1.741l0.297-0.436c0.026-0.063,0.335-0.373,0.361-0.435c0.087-0.063,0.655-0.87,0.743-0.933
			l0.022-0.063c0.175-0.123,0.483-0.745,0.509-0.809l0.112-0.124c0.05-0.124,0.272-0.372,0.358-0.436c0,0,0.262-0.188,0.285-0.248
			c0.025-0.063,0.396-0.686,0.533-0.869c0.008-0.016,0.03-0.067,0.063-0.138C83.746,53.08,82.912,53.029,82.073,52.988
			 M79.898,56.445c-0.024,0.063-0.482,0.746-0.619,0.934c-0.026,0.063-0.235,0.436-0.235,0.436
			c-0.024,0.063-0.705,0.994-0.731,1.057l-0.272,0.373c-0.049,0.125-0.21,0.374-0.272,0.374c-0.023,0.062-0.32,0.497-0.32,0.497
			c-0.024,0.062-0.36,0.436-0.385,0.494c0,0-0.138,0.188-0.162,0.25c-0.023,0.062-0.594,0.869-0.645,0.994
			c0,0-0.495,0.621-0.605,0.746c-0.024,0.062-0.931,1.242-1.004,1.43l-0.139,0.187c-0.109,0.124-0.929,1.244-0.979,1.367
			c-0.161,0.248-1.512,1.927-1.711,2.11c-0.049,0.127-0.545,0.746-0.656,0.871c0,0-0.359,0.437-0.385,0.498
			c-0.024,0.063-0.223,0.248-0.223,0.248c-0.025,0.063-0.447,0.498-0.473,0.561c-0.148,0.063-0.225,0.249-0.246,0.311
			c-0.05,0.125-0.482,0.745-0.598,0.87c-0.022,0.063-0.457,0.685-0.481,0.747c-0.024,0.061-0.312,0.311-0.358,0.436
			c-0.025,0.062-0.322,0.496-0.322,0.496c-0.111,0.125-0.73,1.058-0.844,1.181c-0.211,0.374-1.5,2.051-1.598,2.299
			c0,0-0.471,0.56-0.583,0.685c-0.111,0.123-0.943,1.119-0.992,1.242c0,0-0.286,0.249-0.311,0.313
			c-0.024,0.062-0.583,0.684-0.632,0.808l-0.186,0.312c-0.286,0.248-0.869,0.933-1.005,1.119c0,0-0.57,0.496-0.657,0.56
			c-0.049,0.125-0.942,1.116-1.116,1.241c-0.049,0.125-0.47,0.561-0.532,0.561c-0.113,0.123-0.696,0.496-0.696,0.496h-0.249h-0.249
			c-0.062,0-0.223-0.063-0.223-0.063s-0.15-0.248-0.188-0.312c-0.013-0.123-0.2-0.435-0.212-0.56
			c-0.038-0.063-0.088-0.56-0.188-0.621c-0.062,0-0.074-0.124-0.149-0.247c0.024-0.063,0.271-0.685,0.321-0.808
			c0.049-0.125,0.371-0.934,0.494-1.244c0.173-0.125,0.409-0.56,0.459-0.685c0,0,0.384-0.497,0.47-0.559
			c0.075-0.188,0.483-0.746,0.534-0.87c0.024-0.063,0.185-0.313,0.185-0.313c0.137-0.187,0.967-1.181,1.018-1.305
			c0,0,0.271-0.374,0.297-0.436h0.125c0.023-0.063,0.296-0.436,0.321-0.498c0.087-0.062,0.544-0.743,0.595-0.867l0.273-0.373
			c0.025-0.063,0.446-0.498,0.446-0.498c0.025-0.063,0.186-0.311,0.211-0.373c0.085-0.063,0.421-0.436,0.47-0.559l0.098-0.25
			c0.026-0.062,0.386-0.498,0.411-0.56c0.113-0.124,0.448-0.497,0.448-0.497c0.048-0.125,0.469-0.56,0.544-0.744
			c0.085-0.063,0.445-0.498,0.471-0.562c0,0,0.334-0.372,0.359-0.437h0.123c0.025-0.062,0.187-0.31,0.272-0.371
			c0.024-0.063,0.694-0.498,0.757-0.498c0.023-0.062,0.051-0.125,0.1-0.25c0.149-0.062,0.67-0.742,0.719-0.867
			c0,0,0.175-0.124,0.199-0.187c0,0,0.16-0.249,0.185-0.312l0.214-0.063c0,0,0.1-0.247,0.209-0.372l0.236-0.125
			c0.111-0.123,0.359-0.436,0.421-0.436c0.026-0.063,0.483-0.436,0.634-0.497c0,0,0.509-0.497,0.596-0.56
			c0,0,0.198-0.188,0.225-0.248c0.087-0.063,0.594-0.561,0.681-0.623c0.112-0.123,0.856-0.744,0.942-0.808
			c0.025-0.063,0.496-0.622,0.521-0.684c0.063,0,0.371-0.312,0.371-0.312c0.461-0.373,1.564-1.43,1.588-1.492
			c0,0,0.387-0.494,0.409-0.557c0.088-0.063,0.548-0.436,0.597-0.56c0.086-0.063,0.373-0.313,0.373-0.313
			c0.086-0.061,0.807-0.619,0.941-0.808c0.063,0,0.436-0.312,0.46-0.373l0.136-0.187c0.063,0,0.285-0.248,0.396-0.373
			c0.088-0.063,0.695-0.498,0.781-0.562c0.024-0.062,0.162-0.246,0.224-0.246c0.05-0.126,0.161-0.25,0.286-0.25
			c0,0,0.199-0.187,0.322-0.187h0.063C79.997,56.198,79.922,56.384,79.898,56.445"/>
		<path d="M69.618,51.389c0.127-0.238,0.803-2.043,0.946-2.275c-1.729,0.822-11.759,5.217-11.888,5.275L58.36,54.68h-0.067
			c-0.137,0-0.366-0.291-0.366-0.291c-0.067,0-0.081-0.146-0.024-0.291l0.028-0.074c0.029-0.074,0.085-0.223,0.085-0.223
			c0.028-0.07,0.277-0.363,0.333-0.51c0.028-0.07,0.281-0.729,0.377-0.803c0.028-0.072,0.374-0.438,0.43-0.586l0.028-0.072
			c0.028-0.071,0.264-0.51,0.264-0.51c0.125-0.146,0.333-0.512,0.361-0.586c0.058-0.146,0.49-1.096,0.575-1.313
			c0,0,0.22-0.221,0.249-0.293c0.095-0.072,0.333-0.512,0.361-0.584c0.067,0,0.249-0.292,0.497-0.585l0.026-0.071
			c0.029-0.074,0.401-0.514,0.401-0.514l0.029-0.072c0.029-0.072,0.265-0.511,0.265-0.511c0.083-0.219-0.249,0.392-0.081-0.046
			c0,0,0.265-0.512,0.349-0.73c0.084-0.22,0.212-0.729,0.212-0.729c0.084-0.22,0.27-0.877,0.354-1.097
			c-0.041-0.072-0.008-0.51,0.048-0.656c-0.204,0-0.228-0.291-0.296-0.291h-0.752c0,0,0.056,0.219-0.177,0.291
			c-0.137,0-1.521,0.584-1.821,0.656c-0.097,0.074-0.714,0.438-0.81,0.513c-0.028,0.073-0.618,0.364-0.742,0.511
			c-0.164,0.073-0.618,0.366-0.618,0.366c-0.549,0.364-2.83,2.044-3.407,2.481c0.028-0.072,0.056-0.145,0.056-0.145
			s0.486-0.732,0.542-0.878l0.305-0.438c0.056-0.146,0.401-0.513,0.43-0.584c0,0,0.22-0.221,0.276-0.365
			c0.028-0.072,0.622-0.73,0.65-0.805c0.096-0.072,0.43-0.582,0.458-0.658c0.029-0.071,0.345-0.362,0.401-0.51
			c0.068,0,0.385-0.292,0.385-0.292c0.056-0.146,0.289-0.219,0.317-0.293c0.057-0.145,0.582-0.802,0.665-1.022l0.152-0.219
			c0.194-0.146,0.774-0.95,1.022-1.242c0,0,0.113-0.291,0.249-0.291c0.056-0.146,0.361-0.584,0.361-0.584
			c0.053-0.041,0.275-0.304,0.468-0.544c-0.397-0.226-0.72-0.573-0.936-0.994c-0.375,0.442-0.705,0.835-0.805,0.954
			c-0.125,0.146-0.791,1.169-0.955,1.242c-0.028,0.073-0.718,0.804-0.746,0.876c-0.164,0.073-0.374,0.438-0.402,0.511
			c-0.067,0-0.498,0.584-0.524,0.657c-0.057,0.147-0.402,0.513-0.458,0.658c-0.249,0.293-0.871,1.022-0.899,1.094
			c-0.151,0.221-1.492,1.756-1.643,1.975c-0.028,0.072-0.318,0.291-0.374,0.438l-0.372,0.438c-0.114,0.292-1.581,2.338-1.83,2.63
			l-0.151,0.219c-0.029,0.072-0.21,0.365-0.277,0.365l-0.374,0.438c-0.056,0.146-0.304,0.438-0.304,0.438
			c-0.277,0.365-1.537,2.045-1.841,2.481c-0.193,0.146-0.623,0.732-0.65,0.806c-0.085,0.218-0.842,0.947-0.871,1.022
			c-0.123,0.146-1.175,1.461-1.451,1.824c0,0-0.112,0.295-0.306,0.438c-0.055,0.146-0.653,1.169-0.777,1.313
			c-0.249,0.295-0.762,1.099-0.819,1.243c-0.096,0.073-0.401,0.511-0.526,0.657c-0.428,0.583-8.811,13.936-9.172,14.521
			c-0.124,0.146-0.458,0.658-0.65,0.802c-0.22,0.221-1.203,1.532-1.384,1.827c-0.125,0.145-0.61,0.875-0.83,1.096l-0.029,0.072
			l-0.027,0.074c0.135,0,0.188,0.219,0.256,0.219c-0.028,0.072,0.148,0.145,0.284,0.145c0,0,0.641-0.07,0.806-0.145
			c0.068,0,0.164-0.074,0.397-0.147l0.22-0.218c0,0,0.276-0.365,0.332-0.512c0.028-0.073,0.265-0.512,0.293-0.584
			c0.22-0.219,0.847-1.314,1.067-1.533c0.029-0.073,0.549-0.366,0.646-0.438c0.028-0.074,0.265-0.514,0.321-0.658
			c0.028-0.073,0.249-0.293,0.276-0.367l0.221-0.219c0,0,0.179-0.291,0.235-0.438c0,0,0.401-0.514,0.43-0.586
			c0.164-0.071,6.486-10.723,6.486-10.723c0.249-0.293,0.569-0.948,0.734-1.021c0.028-0.072,0.541-0.877,0.734-1.021
			c0,0,0.14-0.367,0.236-0.438l0.152-0.22c0.097-0.072,0.606-0.512,0.606-0.512l0.027-0.074c0.056-0.146,0.429-0.584,0.485-0.729
			c0,0,0.221-0.221,0.25-0.295c0.083-0.218,0.568-0.947,0.568-0.947c0.057-0.146,0.405-0.877,0.434-0.949
			c0,0,0.192-0.146,0.22-0.219c0.096-0.074,0.566-0.584,0.566-0.584c0.096-0.074,0.333-0.513,0.333-0.513
			c0.027-0.073,0.303-0.438,0.468-0.511c0.057-0.147,0.831-1.096,0.915-1.315h0.137c0.059-0.069,0.182-0.223,0.314-0.38
			c1.535-1.27,6.558-5.197,7.917-3.488c-0.055,0.09-0.099,0.164-0.109,0.189c-0.027,0.072-0.236,0.439-0.333,0.511
			c-0.18,0.292-0.818,1.241-0.847,1.313c-0.057,0.146-0.485,0.73-0.514,0.804c0,0-0.236,0.438-0.264,0.515
			c-0.221,0.217-0.474,0.877-0.474,0.877l-0.281,0.729c-0.085,0.219-0.281,0.732-0.281,0.732c-0.028,0.07-0.113,0.289-0.004,0.361
			c0.024,0.294,0.372,0.807,0.439,0.807h1.227c0.066,0,0.453-0.293,0.657-0.293c0.221-0.22,5.515-2.108,5.832-2.401
			c0,0,5.997-1.646,6.168-1.822C69.189,51.993,69.389,51.82,69.618,51.389 M57.553,46.58l-0.263,0.166
			c-0.026-0.028-0.042-0.053-0.035-0.073L57.553,46.58z"/>
		<path d="M129.479,31.226c0,0-0.104-0.044-0.258-0.107c-0.076-0.031-0.164-0.067-0.26-0.104c-0.085-0.032-0.175-0.066-0.263-0.098
			c-0.091-0.033-0.183-0.064-0.265-0.091c-0.104-0.031-0.197-0.056-0.27-0.069c-0.039-0.024-0.137-0.042-0.282-0.067
			c-0.08-0.015-0.177-0.032-0.284-0.054c-0.086-0.017-0.182-0.039-0.285-0.064l-0.281-0.007l-0.283-0.008l-0.282-0.007
			c0,0-0.118,0.002-0.295,0.007c-0.087,0.002-0.188,0.005-0.295,0.009c-0.095,0.003-0.194,0.006-0.297,0.009
			c-0.099,0.003-0.2,0.008-0.298,0.012c-0.104,0.005-0.204,0.01-0.297,0.015c-0.115,0.007-0.217,0.015-0.293,0.023
			c-0.053,0.005-0.17,0.014-0.321,0.026c-0.095,0.007-0.203,0.015-0.319,0.023c-0.104,0.008-0.213,0.016-0.322,0.023
			c-0.109,0.008-0.219,0.015-0.322,0.023c-0.117,0.008-0.227,0.017-0.322,0.023c-0.152,0.012-0.27,0.021-0.322,0.027
			c-0.078-0.002-0.18-0.002-0.302,0c-0.088,0.001-0.188,0.003-0.298,0.006c-0.094,0.002-0.193,0.006-0.301,0.009
			c-0.096,0.003-0.195,0.006-0.299,0.01c-0.099,0.004-0.197,0.008-0.301,0.012c-0.098,0.003-0.197,0.008-0.302,0.013
			c-0.097,0.003-0.196,0.008-0.296,0.012s-0.199,0.008-0.299,0.014c-0.102,0.004-0.201,0.008-0.301,0.014
			c-0.103,0.004-0.203,0.008-0.303,0.012c-0.101,0.005-0.201,0.009-0.302,0.013c-0.103,0.004-0.201,0.009-0.3,0.014
			c-0.104,0.003-0.204,0.008-0.303,0.012c-0.102,0.004-0.203,0.008-0.301,0.012c-0.104,0.004-0.205,0.007-0.302,0.01
			c-0.104,0.004-0.206,0.008-0.301,0.011c-0.11,0.002-0.21,0.004-0.302,0.006c-0.12,0.001-0.221,0.001-0.297,0
			c-0.049,0.005-0.147,0.001-0.275-0.008c-0.081-0.007-0.174-0.015-0.273-0.025c-0.089-0.008-0.182-0.018-0.275-0.029
			c-0.092-0.009-0.186-0.02-0.277-0.031c-0.094-0.011-0.188-0.021-0.273-0.032c-0.104-0.01-0.195-0.022-0.278-0.031
			c-0.12-0.013-0.218-0.023-0.275-0.028c-0.051,0.006-0.161,0.015-0.307,0.026c-0.091,0.007-0.195,0.014-0.31,0.023
			c-0.1,0.007-0.201,0.014-0.309,0.022c-0.102,0.007-0.206,0.015-0.311,0.024c-0.104,0.007-0.209,0.016-0.31,0.022
			c-0.11,0.01-0.216,0.017-0.312,0.026c-0.122,0.009-0.229,0.02-0.307,0.027c-0.068,0.008-0.186,0.01-0.326,0.012
			c-0.103,0.001-0.217,0.002-0.33,0.002s-0.229,0-0.332,0.001c-0.139,0.001-0.258,0.005-0.323,0.012l-0.283-0.006l-0.284-0.008
			l-0.283-0.006c0,0-0.117,0.005-0.291,0.016c-0.086,0.004-0.188,0.009-0.293,0.017c-0.095,0.006-0.194,0.013-0.295,0.019
			c-0.102,0.006-0.199,0.014-0.293,0.021c-0.111,0.009-0.211,0.018-0.293,0.026c0,0-0.117,0.002-0.299,0.004
			c-0.086,0.003-0.188,0.004-0.297,0.006c-0.096,0.001-0.193,0.003-0.297,0.005c-0.1,0.002-0.2,0.004-0.299,0.006
			c-0.104,0.004-0.203,0.006-0.299,0.008c-0.108,0.002-0.211,0.005-0.299,0.008c-0.144,0.005-0.25,0.01-0.297,0.015
			c-0.02-0.004-0.119-0.002-0.298,0.004c-0.083,0.002-0.185,0.006-0.297,0.011c-0.091,0.004-0.19,0.008-0.299,0.012
			c-0.093,0.004-0.191,0.009-0.298,0.014c-0.094,0.003-0.192,0.009-0.299,0.013c-0.096,0.004-0.193,0.009-0.297,0.014
			c-0.096,0.004-0.195,0.009-0.299,0.015c-0.095,0.004-0.193,0.009-0.297,0.014c-0.097,0.005-0.195,0.009-0.297,0.014
			c-0.098,0.005-0.196,0.01-0.298,0.014c-0.097,0.005-0.196,0.01-0.296,0.015c-0.096,0.005-0.195,0.01-0.297,0.015
			c-0.098,0.005-0.195,0.01-0.295,0.014c-0.098,0.006-0.196,0.01-0.297,0.016c-0.097,0.004-0.197,0.01-0.295,0.015
			c-0.099,0.004-0.197,0.01-0.298,0.015c-0.098,0.004-0.194,0.01-0.296,0.016c-0.1,0.004-0.195,0.009-0.297,0.015
			c-0.098,0.005-0.196,0.01-0.297,0.015c-0.098,0.005-0.196,0.01-0.297,0.016c-0.098,0.005-0.195,0.01-0.297,0.015
			c-0.099,0.005-0.196,0.01-0.297,0.016c-0.098,0.004-0.197,0.009-0.297,0.014c-0.098,0.005-0.197,0.01-0.297,0.016
			c-0.099,0.005-0.197,0.01-0.298,0.016c-0.099,0.005-0.196,0.01-0.297,0.015c-0.099,0.005-0.198,0.011-0.297,0.015
			c-0.099,0.005-0.198,0.01-0.298,0.016c-0.1,0.005-0.197,0.01-0.297,0.015c-0.099,0.005-0.198,0.01-0.297,0.015
			c-0.101,0.006-0.199,0.011-0.297,0.017c-0.102,0.004-0.199,0.01-0.299,0.015c-0.1,0.005-0.199,0.01-0.3,0.016
			c-0.099,0.004-0.196,0.01-0.297,0.015c-0.099,0.005-0.197,0.01-0.298,0.016c-0.1,0.004-0.198,0.01-0.297,0.016
			c-0.1,0.005-0.198,0.01-0.299,0.016c-0.097,0.005-0.195,0.01-0.295,0.016c-0.1,0.005-0.197,0.01-0.297,0.016
			c-0.098,0.004-0.197,0.011-0.297,0.015c-0.1,0.005-0.197,0.01-0.297,0.016c-0.098,0.005-0.197,0.011-0.298,0.016
			c-0.097,0.005-0.196,0.011-0.296,0.016s-0.198,0.011-0.297,0.016c-0.101,0.004-0.198,0.011-0.297,0.016
			c-0.101,0.005-0.201,0.011-0.299,0.016c-0.099,0.006-0.197,0.011-0.299,0.017c-0.099,0.004-0.197,0.01-0.297,0.015
			c-0.1,0.004-0.199,0.011-0.298,0.016c-0.099,0.005-0.199,0.011-0.3,0.016c-0.098,0.006-0.197,0.011-0.297,0.017
			c-0.101,0.005-0.198,0.011-0.297,0.016c-0.102,0.005-0.199,0.011-0.3,0.016c-0.099,0.005-0.196,0.011-0.298,0.017
			c-0.1,0.005-0.197,0.01-0.298,0.016C91.1,31.929,91,31.935,90.9,31.94s-0.199,0.011-0.299,0.016s-0.199,0.011-0.299,0.016
			c-0.099,0.005-0.199,0.011-0.299,0.016c-0.1,0.005-0.199,0.011-0.299,0.016c-0.102,0.005-0.199,0.011-0.299,0.016
			s-0.199,0.011-0.301,0.016c-0.1,0.006-0.199,0.01-0.301,0.016c-0.099,0.006-0.197,0.01-0.297,0.016
			c-0.102,0.006-0.201,0.011-0.301,0.016c-0.1,0.006-0.199,0.011-0.3,0.017s-0.2,0.011-0.3,0.016c-0.1,0.006-0.2,0.012-0.301,0.017
			c-0.1,0.005-0.199,0.011-0.299,0.016c-0.103,0.005-0.201,0.011-0.303,0.018c-0.1,0.004-0.201,0.009-0.301,0.015
			c-0.1,0.005-0.2,0.01-0.301,0.016c-0.1,0.006-0.199,0.01-0.299,0.016c-0.102,0.005-0.199,0.011-0.3,0.016s-0.198,0.011-0.3,0.017
			c-0.1,0.005-0.2,0.01-0.3,0.016c-0.101,0.005-0.2,0.01-0.3,0.016c-0.101,0.005-0.199,0.01-0.299,0.016
			c-0.102,0.005-0.201,0.01-0.301,0.016c-0.101,0.006-0.199,0.012-0.299,0.017c-0.102,0.004-0.199,0.011-0.301,0.016
			c-0.1,0.005-0.199,0.011-0.299,0.016c-0.102,0.005-0.2,0.011-0.301,0.016c-0.102,0.005-0.199,0.011-0.297,0.016
			c-0.103,0.005-0.201,0.011-0.302,0.017c-0.101,0.005-0.2,0.011-0.301,0.016c-0.101,0.005-0.199,0.011-0.298,0.016
			c-0.102,0.005-0.2,0.012-0.301,0.016c-0.101,0.006-0.199,0.011-0.299,0.017c-0.102,0.005-0.201,0.011-0.3,0.017
			c-0.101,0.006-0.198,0.01-0.301,0.016c-0.101,0.007-0.199,0.011-0.3,0.016c-0.1,0.006-0.199,0.012-0.299,0.017
			c-0.101,0.005-0.199,0.011-0.299,0.017c-0.102,0.005-0.199,0.011-0.3,0.016c-0.1,0.006-0.198,0.011-0.299,0.017
			c-0.103,0.005-0.199,0.011-0.3,0.016c-0.1,0.006-0.2,0.011-0.299,0.017c-0.1,0.005-0.199,0.011-0.299,0.016
			c-0.101,0.005-0.201,0.011-0.3,0.017c-0.101,0.005-0.198,0.01-0.298,0.017c-0.102,0.005-0.199,0.01-0.298,0.016
			c-0.101,0.005-0.201,0.01-0.3,0.016c-0.1,0.006-0.199,0.012-0.299,0.017c-0.102,0.005-0.198,0.011-0.299,0.016
			c-0.1,0.005-0.199,0.011-0.297,0.016c-0.101,0.005-0.201,0.011-0.298,0.016c-0.101,0.004-0.202,0.011-0.3,0.017
			c-0.1,0.005-0.201,0.011-0.301,0.016c-0.103,0.005-0.2,0.011-0.299,0.016c-0.103,0.005-0.203,0.012-0.301,0.017
			c-0.103,0.007-0.203,0.012-0.3,0.017c-0.101,0.005-0.2,0.011-0.3,0.017c-0.102,0.006-0.199,0.011-0.297,0.016
			c-0.102,0.006-0.201,0.011-0.297,0.016c-0.104,0.006-0.201,0.012-0.297,0.017c-0.104,0.006-0.203,0.011-0.299,0.017
			c-0.104,0.006-0.203,0.011-0.3,0.016c-0.104,0.007-0.202,0.012-0.296,0.017c-0.105,0.006-0.206,0.011-0.297,0.017
			c-0.107,0.005-0.207,0.011-0.296,0.016c-0.116,0.006-0.216,0.011-0.3,0.016c-0.19,0.01-0.293,0.016-0.293,0.016
			c-0.092,0-0.193,0.001-0.301,0.004c-0.096,0.001-0.195,0.005-0.302,0.009c-0.098,0.003-0.198,0.007-0.301,0.011
			c-0.101,0.004-0.201,0.009-0.304,0.013c-0.1,0.004-0.2,0.01-0.303,0.015s-0.201,0.01-0.303,0.015
			c-0.104,0.004-0.204,0.01-0.304,0.014c-0.103,0.005-0.204,0.009-0.302,0.014c-0.106,0.004-0.209,0.008-0.307,0.013
			c-0.107,0.004-0.208,0.007-0.302,0.009c-0.11,0.002-0.214,0.004-0.304,0.003c-0.135-0.001-0.239-0.005-0.301-0.017
			c-0.037,0.005-0.145,0.011-0.301,0.02c-0.087,0.004-0.188,0.009-0.299,0.016c-0.094,0.003-0.195,0.008-0.303,0.013
			c-0.098,0.004-0.197,0.008-0.303,0.012c-0.098,0.004-0.199,0.009-0.301,0.012c-0.101,0.004-0.201,0.007-0.303,0.012
			c-0.101,0.003-0.203,0.005-0.302,0.009c-0.104,0.003-0.205,0.006-0.305,0.009c-0.103,0.002-0.208,0.005-0.304,0.007
			c-0.106,0.002-0.208,0.003-0.303,0.005c-0.111,0.001-0.212,0.001-0.303,0c-0.125,0-0.229-0.004-0.301-0.009
			c0,0-0.12,0.013-0.292,0.029c-0.087,0.008-0.187,0.018-0.292,0.026c-0.097,0.008-0.198,0.017-0.295,0.023
			c-0.104,0.007-0.205,0.014-0.295,0.018c-0.123,0.005-0.227,0.007-0.292,0.001L61.9,33.33l-0.257,0.008l-0.257,0.009
			c-0.057-0.003-0.163-0.011-0.297-0.018c-0.088-0.005-0.19-0.01-0.296-0.016c-0.097-0.006-0.196-0.012-0.298-0.017
			c-0.1-0.005-0.201-0.011-0.301-0.016c-0.102-0.006-0.204-0.011-0.298-0.016c-0.109-0.006-0.211-0.011-0.298-0.016
			c-0.179-0.009-0.295-0.015-0.295-0.015l-0.234,0.023c-0.069,0.008-0.166,0.014-0.28,0.019c-0.084,0.005-0.18,0.008-0.282,0.012
			c-0.09,0.003-0.186,0.006-0.283,0.009c-0.092,0.002-0.188,0.004-0.283,0.007c-0.095,0.001-0.189,0.005-0.285,0.008
			c-0.097,0.002-0.192,0.004-0.284,0.006c-0.099,0.003-0.194,0.006-0.284,0.009c-0.102,0.004-0.199,0.007-0.284,0.011
			c-0.114,0.006-0.21,0.012-0.28,0.02c0,0-0.113-0.002-0.27-0.005c-0.082-0.001-0.176-0.003-0.271-0.003c-0.093,0-0.188,0-0.272,0
			c-0.113,0.002-0.21,0.005-0.269,0.011c-0.077,0.008-0.176,0.017-0.293,0.024c-0.089,0.007-0.187,0.014-0.292,0.021
			c-0.093,0.005-0.191,0.012-0.294,0.018c-0.095,0.005-0.194,0.011-0.293,0.016c-0.098,0.005-0.196,0.01-0.295,0.015
			c-0.1,0.004-0.198,0.009-0.296,0.015c-0.101,0.004-0.199,0.009-0.296,0.015c-0.103,0.004-0.202,0.009-0.296,0.013
			c-0.105,0.004-0.205,0.009-0.297,0.013c-0.11,0.005-0.211,0.009-0.295,0.013c-0.181,0.008-0.292,0.012-0.292,0.012
			c-0.066,0.006-0.173,0.017-0.308,0.029c-0.09,0.008-0.194,0.018-0.307,0.027c-0.097,0.008-0.201,0.018-0.309,0.026
			c-0.1,0.009-0.204,0.017-0.309,0.027c-0.102,0.008-0.206,0.017-0.31,0.026c-0.103,0.008-0.208,0.018-0.309,0.026
			c-0.106,0.009-0.21,0.018-0.311,0.025c-0.108,0.01-0.213,0.019-0.309,0.027c-0.115,0.009-0.219,0.019-0.309,0.026
			c-0.155,0.013-0.266,0.023-0.308,0.027c0,0-0.124-0.008-0.281-0.017c-0.089-0.005-0.189-0.009-0.285-0.011
			c-0.11-0.002-0.215-0.001-0.283,0.007c-0.059-0.005-0.172-0.009-0.32-0.013c-0.095-0.002-0.203-0.004-0.319-0.007
			c-0.102-0.002-0.21-0.004-0.32-0.006c-0.107-0.001-0.215-0.003-0.322-0.004c-0.11-0.001-0.218-0.002-0.321-0.004
			c-0.118-0.002-0.227-0.004-0.32-0.005c-0.192-0.002-0.318-0.003-0.318-0.003c-0.061-0.004-0.166-0.004-0.295-0.001
			c-0.089,0.002-0.189,0.005-0.295,0.011c-0.096,0.003-0.196,0.008-0.296,0.014c-0.102,0.005-0.202,0.01-0.298,0.017
			c-0.108,0.006-0.21,0.011-0.298,0.017c-0.176,0.01-0.295,0.019-0.295,0.019c-0.054,0.005-0.17,0.012-0.32,0.017
			c-0.094,0.002-0.204,0.005-0.32,0.007c-0.103,0.002-0.212,0.002-0.321,0.002s-0.218-0.002-0.324-0.003
			c-0.114-0.002-0.225-0.006-0.324-0.011c-0.131-0.008-0.242-0.017-0.317-0.031c-0.059,0.006-0.163,0.012-0.303,0.018
			c-0.088,0.003-0.191,0.007-0.305,0.011c-0.094,0.002-0.195,0.005-0.302,0.007c-0.097,0.003-0.199,0.005-0.305,0.008
			c-0.099,0.002-0.201,0.004-0.306,0.006c-0.099,0.002-0.2,0.006-0.303,0.007c-0.101,0.003-0.203,0.005-0.306,0.008
			c-0.102,0.002-0.205,0.004-0.308,0.007c-0.079-0.003-0.176-0.006-0.286-0.011c-0.088-0.004-0.185-0.007-0.287-0.011
			c-0.092-0.002-0.188-0.006-0.286-0.009c-0.094-0.003-0.19-0.006-0.287-0.009c-0.096-0.003-0.193-0.007-0.288-0.01
			c-0.099-0.002-0.195-0.005-0.29-0.008c-0.1-0.004-0.196-0.007-0.287-0.009c-0.105-0.003-0.202-0.005-0.289-0.007
			c-0.115-0.004-0.212-0.006-0.285-0.007c0,0-0.152,0.028-0.328,0.034c-0.108,0.004-0.226,0-0.324-0.023
			c-0.046,0.008-0.16,0.021-0.313,0.034c-0.093,0.009-0.201,0.017-0.314,0.026c-0.102,0.007-0.21,0.016-0.317,0.023
			c-0.108,0.007-0.215,0.015-0.318,0.021c-0.115,0.007-0.223,0.013-0.318,0.018c-0.15,0.007-0.266,0.01-0.317,0.007
			c-0.082-0.005-0.187-0.006-0.305-0.007c-0.095,0-0.197,0.001-0.304,0.002c-0.101,0.001-0.204,0.005-0.306,0.007
			c-0.105,0.004-0.207,0.009-0.305,0.013c-0.111,0.004-0.215,0.011-0.306,0.016c-0.144,0.009-0.254,0.019-0.303,0.028
			c-0.05-0.013-0.181-0.018-0.335-0.021c-0.107-0.003-0.226-0.004-0.336-0.006c-0.135-0.001-0.259-0.002-0.335-0.007
			c-0.046,0-0.147,0.002-0.296,0.007c-0.084,0.003-0.185,0.007-0.299,0.011c-0.09,0.003-0.189,0.008-0.297,0.013
			c-0.092,0.003-0.191,0.007-0.297,0.013c-0.094,0.003-0.194,0.007-0.297,0.012c-0.095,0.004-0.196,0.009-0.297,0.013
			c-0.096,0.004-0.196,0.009-0.298,0.013c-0.098,0.004-0.197,0.009-0.298,0.014c-0.098,0.004-0.197,0.008-0.3,0.014
			c-0.097,0.004-0.196,0.009-0.298,0.014c-0.098,0.004-0.198,0.008-0.299,0.014c-0.098,0.004-0.198,0.008-0.298,0.013
			c-0.098,0.005-0.199,0.009-0.299,0.014c-0.099,0.005-0.198,0.009-0.298,0.014c-0.1,0.004-0.198,0.009-0.3,0.014
			c-0.098,0.004-0.196,0.01-0.296,0.014c-0.097,0.004-0.197,0.009-0.296,0.013c-0.098,0.005-0.197,0.009-0.297,0.015
			c-0.098,0.004-0.197,0.009-0.296,0.014c-0.099,0.005-0.197,0.009-0.298,0.014c-0.099,0.005-0.197,0.009-0.298,0.015
			c-0.098,0.005-0.197,0.009-0.298,0.014c-0.098,0.005-0.198,0.01-0.297,0.014c-0.099,0.005-0.198,0.01-0.298,0.015
			c-0.099,0.004-0.199,0.01-0.298,0.014c-0.099,0.004-0.199,0.009-0.299,0.014c-0.099,0.004-0.198,0.01-0.298,0.015
			c-0.099,0.004-0.198,0.009-0.297,0.015c-0.1,0.004-0.198,0.008-0.298,0.014c-0.099,0.004-0.199,0.009-0.298,0.015l-0.299,0.014
			l-0.297,0.014c-0.1,0.005-0.2,0.01-0.3,0.015c-0.098,0.005-0.199,0.01-0.299,0.015s-0.2,0.01-0.3,0.014l-0.3,0.015
			c-0.1,0.005-0.2,0.01-0.301,0.015c-0.099,0.004-0.199,0.01-0.299,0.014c-0.1,0.005-0.2,0.01-0.3,0.015
			c-0.101,0.004-0.201,0.01-0.301,0.015c-0.1,0.004-0.201,0.009-0.3,0.014c-0.101,0.005-0.201,0.01-0.301,0.015
			c-0.101,0.004-0.201,0.009-0.301,0.014c-0.101,0.004-0.201,0.009-0.302,0.015c-0.1,0.004-0.201,0.009-0.3,0.015
			c-0.102,0.005-0.201,0.009-0.3,0.015c-0.102,0.004-0.202,0.009-0.303,0.014c-0.1,0.005-0.201,0.01-0.3,0.015
			c-0.101,0.005-0.201,0.01-0.301,0.015c-0.102,0.005-0.201,0.01-0.301,0.015c-0.101,0.005-0.201,0.011-0.301,0.015
			c-0.101,0.005-0.202,0.01-0.301,0.015c-0.102,0.004-0.202,0.01-0.301,0.015c-0.102,0.004-0.202,0.01-0.301,0.014
			c-0.101,0.005-0.201,0.011-0.301,0.015c-0.101,0.005-0.201,0.01-0.3,0.015c-0.101,0.005-0.201,0.011-0.299,0.015
			c-0.102,0.005-0.201,0.01-0.301,0.014c-0.101,0.005-0.2,0.01-0.298,0.015c-0.101,0.005-0.201,0.01-0.299,0.015
			c-0.1,0.004-0.201,0.009-0.298,0.015c-0.101,0.005-0.201,0.01-0.297,0.015c-0.102,0.005-0.202,0.009-0.298,0.015
			c-0.103,0.004-0.202,0.009-0.299,0.014c-0.103,0.006-0.202,0.01-0.299,0.015c-0.103,0.005-0.202,0.009-0.298,0.014
			c-0.103,0.006-0.202,0.011-0.297,0.016c-0.105,0.005-0.206,0.01-0.299,0.015c-0.108,0.006-0.208,0.01-0.298,0.015
			c-0.113,0.006-0.212,0.011-0.296,0.015c-0.148,0.008-0.249,0.013-0.295,0.015c-0.066-0.004-0.177-0.004-0.306-0.004
			c-0.097,0-0.203,0-0.311-0.001c-0.106,0-0.213-0.003-0.311-0.008c-0.125-0.006-0.234-0.017-0.305-0.034
			c-0.06-0.007-0.167-0.014-0.306-0.021c-0.09-0.003-0.194-0.008-0.307-0.01c-0.096-0.003-0.199-0.005-0.307-0.007
			c-0.099-0.002-0.203-0.004-0.307-0.006c-0.103-0.002-0.206-0.003-0.309-0.004c-0.104,0-0.207-0.001-0.308-0.002
			c-0.107,0-0.209,0-0.306,0c-0.113,0-0.216,0.001-0.308,0.002c-0.133,0.001-0.238,0.003-0.306,0.007
			c-0.052-0.003-0.15-0.004-0.275-0.003c-0.083,0-0.176,0-0.275,0.001c-0.09,0-0.183,0-0.277,0c-0.093,0.001-0.188,0-0.277,0
			c-0.1-0.001-0.193-0.002-0.278-0.005c-0.111-0.003-0.207-0.009-0.275-0.018L4.948,34.87l-0.1,0.017
			c0.057,0.1-0.187,0.252-0.158,0.302c-0.099,0.018-0.113,0.184-0.058,0.282c0,0,0.113,0.137,0.239,0.271
			c0.096,0.101,0.201,0.201,0.268,0.235c0.029,0.05,0.155,0.081,0.341,0.211l0.352,0.044c0,0,0.11,0.001,0.25,0
			c0.08-0.001,0.168-0.002,0.252-0.007c0.099-0.004,0.19-0.011,0.25-0.021c0.037-0.007,0.146-0.02,0.274-0.032
			c0.09-0.01,0.188-0.021,0.277-0.03c0.126-0.014,0.235-0.027,0.272-0.034c0.062,0.008,0.162,0.011,0.284,0.011
			c0.084-0.001,0.181-0.003,0.285-0.006c0.09-0.002,0.186-0.006,0.285-0.01c0.093-0.004,0.189-0.007,0.285-0.012
			c0.096-0.004,0.194-0.008,0.288-0.01c0.098-0.005,0.194-0.008,0.285-0.011c0.104-0.002,0.201-0.004,0.286-0.005
			c0.123,0,0.222,0.002,0.284,0.01c0.038-0.006,0.146,0.021,0.27,0.061c0.084,0.027,0.177,0.059,0.263,0.088
			c0.114,0.039,0.214,0.076,0.26,0.086c0.04-0.006,0.162-0.02,0.307-0.036c0.097-0.011,0.207-0.023,0.308-0.035
			c0.126-0.015,0.24-0.029,0.306-0.042c0.05-0.008,0.164-0.002,0.276,0.004c0.114,0.006,0.228,0.013,0.277,0.005l0.354,0.043
			c0,0,0.149-0.009,0.311-0.022c0.114-0.011,0.231-0.022,0.312-0.037c0,0,0.131,0.003,0.292,0.006
			c0.095,0.001,0.201,0.003,0.296,0.003c0.139,0.001,0.256,0,0.292-0.006c0.011,0.006,0.115,0.006,0.297-0.001
			c0.083-0.002,0.181-0.007,0.295-0.012c0.089-0.004,0.187-0.008,0.293-0.014c0.092-0.004,0.191-0.009,0.294-0.015
			c0.094-0.005,0.193-0.01,0.295-0.016c0.095-0.005,0.194-0.01,0.295-0.017c0.096-0.005,0.195-0.011,0.296-0.017
			c0.096-0.005,0.195-0.011,0.296-0.017c0.096-0.005,0.195-0.011,0.295-0.017c0.098-0.005,0.196-0.012,0.297-0.017
			c0.097-0.006,0.196-0.012,0.296-0.017c0.098-0.006,0.196-0.012,0.297-0.018c0.096-0.006,0.195-0.012,0.294-0.018
			c0.097-0.006,0.195-0.012,0.295-0.019c0.097-0.005,0.195-0.012,0.295-0.018c0.098-0.005,0.195-0.012,0.296-0.018
			c0.097-0.006,0.196-0.012,0.295-0.019c0.099-0.006,0.197-0.012,0.297-0.019c0.098-0.006,0.197-0.012,0.296-0.02
			c0.098-0.005,0.195-0.011,0.295-0.018c0.098-0.006,0.196-0.013,0.294-0.019c0.099-0.006,0.197-0.012,0.296-0.018
			c0.099-0.007,0.198-0.013,0.297-0.019c0.098-0.007,0.198-0.013,0.296-0.02c0.1-0.005,0.198-0.012,0.297-0.019
			c0.101-0.006,0.199-0.013,0.299-0.02l0.299-0.019c0.099-0.006,0.198-0.012,0.298-0.019s0.199-0.013,0.299-0.02
			c0.1-0.005,0.201-0.013,0.299-0.019c0.101-0.006,0.201-0.014,0.3-0.02c0.101-0.007,0.2-0.013,0.299-0.019
			c0.101-0.007,0.2-0.013,0.299-0.019c0.1-0.006,0.199-0.014,0.299-0.021c0.1-0.005,0.2-0.013,0.298-0.019
			c0.1-0.006,0.199-0.013,0.298-0.019c0.1-0.008,0.199-0.013,0.297-0.021c0.099-0.005,0.198-0.012,0.295-0.018
			c0.1-0.007,0.198-0.014,0.296-0.02c0.099-0.007,0.199-0.013,0.296-0.02c0.099-0.007,0.197-0.013,0.295-0.02
			c0.098-0.006,0.196-0.012,0.293-0.019c-0.003,0.011-0.007,0.023-0.007,0.023l0.297-0.005l0.296-0.004c0,0,0.107-0.002,0.296-0.005
			c0.083-0.001,0.183-0.004,0.297-0.006c0.09,0,0.189-0.002,0.295-0.004c0.093-0.001,0.192-0.003,0.296-0.005
			c0.094-0.001,0.193-0.003,0.296-0.006c0.096-0.001,0.194-0.002,0.296-0.004c0.097-0.001,0.197-0.003,0.297-0.005
			c0.097,0,0.196-0.002,0.296-0.004c0.097-0.002,0.196-0.004,0.296-0.005c0.098-0.001,0.198-0.002,0.297-0.004
			c0.098-0.001,0.198-0.003,0.298-0.004c0.098-0.001,0.198-0.004,0.296-0.005c0.1-0.001,0.2-0.003,0.299-0.004
			c0.101-0.002,0.2-0.004,0.3-0.006c0.101-0.001,0.201-0.002,0.301-0.005c0.099-0.001,0.2-0.003,0.297-0.004
			c0.101-0.001,0.2-0.003,0.298-0.005c0.101-0.001,0.201-0.003,0.299-0.004c0.102-0.002,0.201-0.004,0.298-0.005
			c0.103-0.001,0.202-0.003,0.3-0.004c0.102-0.002,0.202-0.003,0.299-0.004c0.103-0.002,0.203-0.004,0.298-0.005
			c0.104-0.002,0.204-0.003,0.298-0.005c0.108-0.001,0.208-0.002,0.3-0.004c0.113-0.001,0.214-0.004,0.297-0.005
			c0.188-0.003,0.294-0.004,0.294-0.004c-0.011-0.011-0.017-0.027-0.027-0.039c0.086-0.001,0.185-0.001,0.285-0.001
			c0.098,0,0.197,0.001,0.287,0c0.12-0.001,0.222-0.006,0.282-0.016c0,0,0.111,0.013,0.228,0.022
			c0.09,0.007,0.183,0.012,0.226,0.003c0.063-0.011,0.159-0.021,0.272-0.03c0.085-0.007,0.179-0.014,0.275-0.019
			c0.092-0.005,0.186-0.011,0.276-0.015c0.099-0.005,0.194-0.01,0.276-0.013c0.162-0.006,0.275-0.009,0.275-0.009
			c0.061-0.011,0.2-0.031,0.367-0.055c0.115-0.016,0.244-0.034,0.369-0.051c0.115-0.002,0.226-0.006,0.329-0.009
			c0.119-0.004,0.228-0.006,0.33-0.009c0.122-0.004,0.231-0.008,0.326-0.01c0.063,0.01,0.173,0.023,0.293,0.036
			c0.098,0.01,0.203,0.021,0.297,0.03c0.165,0.016,0.296,0.028,0.296,0.028c0.042,0.011,0.14,0.012,0.249,0.006
			c0.082-0.003,0.171-0.008,0.251-0.014c0.139-0.01,0.25-0.021,0.25-0.021c0.039-0.007,0.147-0.01,0.273-0.006
			c0.087,0.002,0.183,0.008,0.272,0.018c0.11,0.013,0.21,0.032,0.262,0.059c0.046-0.009,0.159-0.011,0.31-0.012
			c0.091,0,0.197,0,0.31,0.001c0.1,0,0.205,0.001,0.311,0.002c0.104,0.001,0.208,0.002,0.311,0.002c0.109,0,0.215,0,0.31-0.001
			c0.035-0.062,0.065-0.126,0.098-0.188c0.097,0,0.195,0,0.296,0c0.098,0,0.196,0.001,0.297,0.002c0.098,0,0.197,0.001,0.296,0.003
			s0.199,0.003,0.297,0.003c0.1,0.002,0.201,0.003,0.297,0.004c0.103,0.002,0.203,0.002,0.298,0.003
			c0.105,0.001,0.205,0.003,0.296,0.004c0.111,0.001,0.211,0.002,0.296,0.003c0.153,0.001,0.257,0,0.294-0.005
			c0.057,0,0.159-0.001,0.3-0.002c0.086-0.001,0.187-0.001,0.3-0.002c0.093-0.001,0.195-0.002,0.302-0.003
			c0.096-0.001,0.196-0.002,0.301-0.003c0.097-0.001,0.198-0.003,0.302-0.004c0.098-0.001,0.198-0.002,0.302-0.004
			c0.098,0,0.199-0.002,0.301-0.002c0.1-0.002,0.2-0.003,0.302-0.005c0.099-0.001,0.199-0.002,0.299-0.004
			c0.1-0.001,0.2-0.003,0.301-0.004s0.202-0.002,0.303-0.003c0.101-0.001,0.202-0.003,0.302-0.003
			c0.102-0.002,0.203-0.003,0.304-0.005c0.1-0.001,0.203-0.003,0.302-0.004c0.103-0.001,0.203-0.003,0.304-0.004
			c0.102-0.002,0.203-0.002,0.302-0.004c0.103-0.002,0.204-0.003,0.302-0.005c0.104-0.001,0.205-0.003,0.303-0.004
			c0.105-0.001,0.206-0.003,0.302-0.004c0.106-0.001,0.207-0.003,0.303-0.006c0.108-0.001,0.209-0.002,0.301-0.004
			c0.113-0.002,0.214-0.004,0.299-0.005c0,0,0.123-0.013,0.308-0.027c0.09-0.006,0.194-0.014,0.308-0.02
			c0.098-0.005,0.203-0.01,0.308-0.013c0.103-0.003,0.208-0.005,0.309-0.003c0.108,0.001,0.213,0.005,0.31,0.012
			c0.058-0.006,0.16-0.014,0.298-0.023c0.087-0.006,0.187-0.014,0.297-0.02c0.092-0.006,0.192-0.013,0.297-0.02
			c0.095-0.005,0.194-0.011,0.297-0.018c0.097-0.006,0.196-0.012,0.298-0.018c0.098-0.005,0.197-0.012,0.296-0.017
			c0.099-0.005,0.199-0.012,0.298-0.018l0.3-0.016c0.101-0.006,0.2-0.011,0.3-0.016c0.101-0.006,0.201-0.012,0.299-0.017
			c0.103-0.006,0.204-0.011,0.3-0.015c0.104-0.006,0.205-0.01,0.301-0.015c0.105-0.005,0.206-0.01,0.298-0.013
			c0.111-0.005,0.211-0.01,0.299-0.013c0.132-0.004,0.234-0.007,0.298-0.007c0.092,0,0.194-0.001,0.309-0.004
			c0.095-0.001,0.198-0.003,0.307-0.006c0.1-0.002,0.201-0.005,0.309-0.009c0.1-0.002,0.203-0.005,0.308-0.009
			c0.101-0.003,0.204-0.007,0.308-0.011c0.102-0.003,0.205-0.007,0.308-0.011c0.104-0.004,0.208-0.008,0.31-0.012
			c0.104-0.005,0.208-0.009,0.31-0.013c0.105-0.004,0.208-0.009,0.309-0.014c0.107-0.004,0.21-0.01,0.311-0.015
			c0.108-0.005,0.211-0.011,0.311-0.015c0.109-0.005,0.212-0.012,0.308-0.016c0.115-0.007,0.219-0.013,0.309-0.019
			c0.139-0.009,0.244-0.016,0.308-0.023c0.059,0.004,0.164,0.006,0.299,0.006c0.087,0,0.188-0.001,0.297-0.003
			c0.096-0.001,0.196-0.003,0.299-0.005c0.098-0.002,0.198-0.004,0.299-0.005c0.101-0.003,0.201-0.005,0.3-0.007
			c0.103-0.002,0.205-0.005,0.301-0.006c0.107-0.002,0.209-0.003,0.301-0.005c0.117-0.002,0.219-0.003,0.299-0.004
			c0.061-0.001,0.16-0.005,0.296-0.009c0.085-0.003,0.186-0.008,0.296-0.013c0.092-0.003,0.189-0.007,0.299-0.012
			c0.092-0.003,0.191-0.008,0.297-0.012c0.094-0.004,0.193-0.008,0.297-0.013c0.096-0.004,0.193-0.009,0.296-0.013
			c0.097-0.004,0.196-0.009,0.297-0.013c0.097-0.003,0.196-0.009,0.3-0.013c0.096-0.005,0.194-0.009,0.297-0.014
			c0.098-0.004,0.196-0.008,0.297-0.013c0.099-0.004,0.196-0.008,0.297-0.013s0.197-0.01,0.301-0.013
			c0.097-0.005,0.195-0.009,0.298-0.013c0.099-0.005,0.194-0.009,0.298-0.014c0.098-0.004,0.196-0.009,0.299-0.014
			c0.096-0.003,0.196-0.008,0.297-0.013c0.098-0.004,0.198-0.008,0.299-0.013c0.099-0.005,0.197-0.009,0.298-0.013
			c0.099-0.005,0.198-0.01,0.298-0.014c0.1-0.005,0.199-0.009,0.3-0.014c0.099-0.005,0.196-0.009,0.295-0.013
			c0.099-0.004,0.196-0.01,0.296-0.013c0.098-0.005,0.196-0.01,0.295-0.014c0.099-0.005,0.197-0.009,0.297-0.014
			c0.098-0.004,0.196-0.008,0.295-0.014c0.099-0.003,0.197-0.008,0.297-0.012c0.099-0.004,0.197-0.01,0.296-0.014
			c0.099-0.005,0.198-0.01,0.296-0.014c0.1-0.004,0.197-0.009,0.298-0.014c0.099-0.004,0.196-0.009,0.296-0.014
			c0.1-0.003,0.197-0.008,0.297-0.014c0.1-0.004,0.197-0.008,0.295-0.013c0.1-0.004,0.199-0.009,0.299-0.014
			c0.099-0.004,0.196-0.008,0.295-0.013c0.1-0.006,0.199-0.01,0.299-0.014c0.098-0.005,0.195-0.01,0.297-0.014
			c0.098-0.004,0.197-0.01,0.296-0.014s0.198-0.01,0.298-0.014c0.098-0.004,0.197-0.01,0.297-0.014
			c0.1-0.004,0.197-0.008,0.297-0.013s0.198-0.009,0.297-0.014c0.101-0.004,0.199-0.009,0.299-0.014
			c0.099-0.004,0.197-0.008,0.298-0.013c0.099-0.005,0.196-0.01,0.297-0.014c0.101-0.005,0.196-0.01,0.298-0.014
			c0.1-0.004,0.198-0.009,0.296-0.013c0.101-0.005,0.199-0.01,0.3-0.015c0.098-0.004,0.197-0.009,0.299-0.014
			c0.099-0.004,0.195-0.008,0.295-0.014c0.101-0.004,0.199-0.009,0.3-0.014c0.098-0.004,0.198-0.009,0.298-0.014
			c0.098-0.005,0.197-0.009,0.297-0.013c0.1-0.006,0.198-0.01,0.298-0.014c0.101-0.005,0.199-0.01,0.3-0.015
			c0.099-0.003,0.196-0.008,0.297-0.013c0.098-0.004,0.197-0.01,0.297-0.014c0.099-0.004,0.195-0.01,0.297-0.014
			c0.099-0.004,0.197-0.009,0.296-0.014c0.101-0.005,0.198-0.009,0.297-0.014c0.101-0.005,0.198-0.009,0.298-0.015
			c0.1-0.004,0.199-0.008,0.297-0.013c0.1-0.004,0.198-0.009,0.299-0.013c0.1-0.005,0.197-0.01,0.297-0.015
			c0.1-0.004,0.197-0.009,0.3-0.014c0.098-0.004,0.196-0.009,0.296-0.014c0.1-0.005,0.197-0.01,0.299-0.015
			c0.098-0.004,0.197-0.008,0.297-0.014c0.1-0.004,0.199-0.008,0.299-0.013c0.098-0.004,0.198-0.009,0.297-0.015
			c0.102-0.004,0.198-0.008,0.299-0.013s0.199-0.01,0.299-0.014c0.1-0.005,0.197-0.01,0.298-0.014c0.101-0.006,0.198-0.01,0.3-0.014
			c0.098-0.005,0.197-0.01,0.296-0.015c0.101-0.004,0.199-0.01,0.3-0.014l0.299-0.014c0.099-0.004,0.199-0.009,0.299-0.014
			c0.098-0.004,0.199-0.009,0.298-0.015c0.099-0.004,0.198-0.009,0.298-0.013c0.102-0.005,0.2-0.01,0.299-0.014
			c0.102-0.005,0.199-0.01,0.301-0.015c0.1-0.005,0.197-0.009,0.299-0.014c0.099-0.005,0.197-0.009,0.299-0.014
			c0.1-0.004,0.199-0.01,0.299-0.014c0.1-0.004,0.201-0.01,0.299-0.014l0.301-0.015c0.101-0.004,0.2-0.009,0.301-0.014l0.3-0.014
			c0.1-0.005,0.198-0.009,0.298-0.015c0.102-0.004,0.201-0.009,0.301-0.013c0.102-0.005,0.2-0.01,0.301-0.014
			c0.102-0.005,0.199-0.01,0.301-0.014c0.1-0.005,0.199-0.01,0.3-0.015c0.1-0.004,0.2-0.009,0.299-0.014
			c0.101-0.004,0.201-0.009,0.301-0.014c0.101-0.005,0.198-0.01,0.3-0.014c0.101-0.004,0.198-0.009,0.299-0.014l0.301-0.014
			c0.1-0.005,0.199-0.009,0.3-0.015c0.101-0.004,0.2-0.009,0.299-0.013c0.101-0.005,0.199-0.01,0.3-0.014
			c0.102-0.006,0.2-0.01,0.301-0.015l0.3-0.014c0.1-0.006,0.2-0.01,0.3-0.014c0.1-0.005,0.2-0.01,0.299-0.014
			c0.102-0.005,0.2-0.01,0.301-0.015c0.102-0.005,0.2-0.009,0.301-0.014l0.3-0.014c0.1-0.004,0.198-0.009,0.299-0.014
			c0.101-0.004,0.201-0.008,0.3-0.014c0.102-0.004,0.201-0.009,0.301-0.013c0.101-0.006,0.199-0.01,0.299-0.014
			c0.101-0.005,0.201-0.01,0.302-0.014c0.1-0.006,0.198-0.01,0.3-0.015s0.199-0.009,0.299-0.014c0.102-0.004,0.2-0.01,0.301-0.015
			c0.101-0.004,0.199-0.01,0.299-0.014c0.102-0.004,0.201-0.009,0.302-0.014c0.1-0.004,0.2-0.009,0.299-0.015
			c0.103-0.005,0.201-0.009,0.3-0.015c0.1-0.004,0.2-0.008,0.301-0.013c0.1-0.005,0.199-0.01,0.301-0.015l0.3-0.014
			c0.101-0.005,0.198-0.009,0.298-0.014c0.102-0.005,0.201-0.01,0.3-0.015c0.101-0.004,0.201-0.01,0.302-0.015
			c0.1-0.004,0.198-0.009,0.299-0.013s0.201-0.011,0.3-0.015c0.1-0.005,0.2-0.009,0.3-0.014c0.102-0.004,0.2-0.009,0.3-0.014
			c0.101-0.005,0.199-0.01,0.3-0.015c0.1-0.004,0.198-0.009,0.299-0.014c0.102-0.004,0.201-0.009,0.301-0.013
			c0.1-0.005,0.199-0.01,0.298-0.015c0.103-0.005,0.201-0.01,0.301-0.014c0.101-0.005,0.198-0.01,0.298-0.014
			c0.102-0.004,0.2-0.009,0.299-0.014c0.102-0.005,0.201-0.01,0.301-0.015c0.1-0.005,0.199-0.009,0.299-0.014
			c0.102-0.005,0.199-0.009,0.3-0.015c0.101-0.004,0.199-0.009,0.297-0.014c0.103-0.004,0.2-0.008,0.3-0.014
			c0.102-0.004,0.199-0.009,0.299-0.013c0.101-0.005,0.199-0.01,0.3-0.015c0.099-0.005,0.198-0.009,0.298-0.014
			c0.1-0.006,0.2-0.01,0.298-0.015c0.101-0.005,0.2-0.009,0.298-0.014c0.102-0.005,0.2-0.01,0.299-0.015
			c0.1-0.005,0.199-0.01,0.297-0.015c0.103-0.004,0.201-0.01,0.299-0.014c0.102-0.004,0.201-0.008,0.302-0.013
			c0.101-0.005,0.201-0.01,0.301-0.015c0.101-0.004,0.2-0.009,0.3-0.014c0.101-0.004,0.2-0.009,0.299-0.015
			c0.102-0.004,0.201-0.009,0.299-0.013c0.103-0.006,0.201-0.01,0.299-0.014c0.102-0.005,0.201-0.01,0.3-0.015
			c0.101-0.005,0.198-0.01,0.297-0.014c0.101-0.004,0.199-0.009,0.298-0.014c0.101-0.004,0.199-0.01,0.295-0.015
			c0.103-0.004,0.201-0.01,0.299-0.014c0.102-0.004,0.201-0.009,0.297-0.014c0.104-0.004,0.201-0.009,0.298-0.015
			c0.104-0.004,0.202-0.009,0.296-0.013c0.105-0.005,0.205-0.009,0.299-0.013c0.105-0.007,0.205-0.011,0.296-0.015
			c0.11-0.006,0.21-0.01,0.296-0.015c0.135-0.007,0.232-0.011,0.293-0.014c0.074,0,0.176-0.001,0.291-0.003
			c0.09-0.003,0.188-0.006,0.295-0.008c0.092-0.002,0.189-0.004,0.293-0.008c0.096-0.002,0.192-0.004,0.293-0.007
			c0.098-0.002,0.195-0.004,0.293-0.007c0.1-0.003,0.197-0.005,0.295-0.006c0.1-0.002,0.199-0.004,0.295-0.005
			c0.104-0.001,0.201-0.001,0.293-0.001c0.107,0,0.205,0,0.296,0.002c0.112,0.002,0.21,0.006,0.291,0.012
			c0.069,0.002,0.172,0.003,0.296,0.003c0.089,0,0.188,0,0.298-0.001c0.093-0.001,0.192-0.001,0.297-0.002
			c0.097-0.001,0.194-0.002,0.3-0.004c0.096-0.001,0.193-0.003,0.297-0.004c0.098-0.001,0.196-0.003,0.297-0.004
			c0.099-0.001,0.197-0.003,0.299-0.005c0.099-0.003,0.197-0.004,0.299-0.006c0.098-0.001,0.197-0.003,0.297-0.006
			c0.098-0.001,0.196-0.003,0.297-0.005c0.1-0.003,0.197-0.005,0.299-0.007c0.101-0.002,0.199-0.004,0.299-0.006
			c0.102-0.002,0.201-0.006,0.302-0.008c0.1-0.002,0.2-0.004,0.3-0.007c0.102-0.002,0.2-0.005,0.298-0.007
			c0.103-0.003,0.203-0.005,0.3-0.007c0.103-0.003,0.201-0.007,0.299-0.009c0.104-0.003,0.203-0.006,0.299-0.008
			c0.104-0.003,0.203-0.006,0.3-0.009c0.106-0.003,0.205-0.006,0.298-0.009c0.109-0.004,0.21-0.008,0.299-0.01
			c0.119-0.004,0.219-0.009,0.295-0.013c0.069,0,0.174-0.001,0.303-0.004c0.09-0.002,0.19-0.004,0.299-0.009
			c0.097-0.002,0.197-0.005,0.304-0.008c0.097-0.002,0.199-0.006,0.304-0.009c0.098-0.002,0.198-0.006,0.301-0.008
			c0.102-0.003,0.201-0.006,0.305-0.009c0.101-0.002,0.201-0.006,0.305-0.008c0.104-0.003,0.204-0.005,0.305-0.008
			c0.104-0.002,0.205-0.004,0.307-0.006c0.103-0.003,0.203-0.005,0.303-0.006c0.105-0.002,0.206-0.003,0.305-0.005
			c0.106-0.001,0.209-0.001,0.303-0.001c0.113,0,0.217,0,0.301,0.003l0.232-0.025l0.229-0.023c-0.076-0.045,0.017-0.109,0.119-0.168
			c0.108-0.061,0.229-0.116,0.19-0.141C129.634,31.486,129.632,31.321,129.479,31.226"/>
		<path d="M55.001,14.206h-0.084l-0.116-0.071c-0.084,0-0.217,0.071-0.217,0.071h-0.335c-0.269,0.146-0.82,0.218-0.871,0.29
			c0,0-0.54,0.291-0.807,0.437c-0.085,0-0.622,0.288-0.705,0.288c-0.052,0.074-1.145,0.799-1.516,1.089
			c-0.084,0-0.403,0.216-0.538,0.29c-0.103,0.145-0.658,0.58-0.876,0.653c0,0-0.807,0.434-0.907,0.581
			c-0.218,0.071-1.214,1.014-1.349,1.088c-0.927,0.723-4.735,3.769-5.662,4.495c0,0-0.371,0.29-0.454,0.29
			c-0.052,0.073-0.556,0.435-0.607,0.509c-0.051,0.071-0.677,0.725-0.944,0.869c-0.051,0.073-1.08,0.943-1.469,1.378
			c-0.051,0.072-0.894,0.797-1.131,1.015c-0.472,0.435-2.413,2.248-2.7,2.538c-0.218,0.073-1.316,1.161-1.501,1.306
			c-0.153,0.218-1.839,1.668-2.024,1.813c-0.051,0.074-0.338,0.363-0.389,0.436c-0.269,0.144-1.315,1.159-1.584,1.305
			c-0.05,0.072-0.306,0.435-0.472,0.435c-0.204,0.291-0.729,0.798-0.778,0.87c-0.186,0.146-1.215,1.016-1.317,1.161
			c-0.051,0.071-0.759,0.724-0.861,0.87c-0.051,0.072-0.574,0.58-0.625,0.652c-0.32,0.217-1.181,1.087-1.501,1.305
			c-0.051,0.073-0.505,0.363-0.606,0.507c-0.236,0.219-1.788,1.597-1.942,1.815c-0.05,0.072-0.624,0.651-0.675,0.724
			c0,0-0.237,0.218-0.32,0.218l-0.186,0.145h-0.046c-0.426,0.982-1.16,1.811-2.248,2.324c-0.062,0.08-0.106,0.141-0.106,0.141
			c-0.087,0.03-0.245,0.141-0.407,0.268c0.776,0.127,1.541,0.276,2.304,0.431c0.113-0.104,0.261-0.22,0.388-0.263
			c0.051-0.072,0.338-0.361,0.473-0.436c0.134-0.072,0.907-0.58,0.907-0.58c0.052-0.072,0.441-0.507,0.491-0.579
			c0.288-0.29,1.251-1.306,1.251-1.306c0.269-0.145,0.792-0.653,1.011-0.726c0.05-0.072,0.959-0.652,1.145-0.797
			c0,0,0.792-0.652,0.893-0.797c0.103-0.146,0.557-0.434,0.557-0.434c0.352-0.147,1.65-1.162,1.835-1.306
			c0.319-0.218,1.885-1.378,2.123-1.596c0.083,0,0.287-0.29,0.287-0.29c0.269-0.146,0.927-0.725,1.029-0.87
			c0.167,0,1.079-0.943,1.349-1.089c0,0,0.557-0.435,0.657-0.58c0,0,0.287-0.29,0.338-0.363c0.135-0.072,0.979-0.798,1.029-0.869
			c0,0,0.42-0.363,0.472-0.435c0,0,0.236-0.217,0.289-0.291c0.101-0.145,0.791-0.652,0.842-0.725c0,0,0.32-0.218,0.372-0.291
			c0,0,0.336-0.362,0.439-0.507c0,0,0.487-0.218,0.537-0.291l0.237-0.218c0.134-0.073,0.639-0.436,0.741-0.579
			c0.353-0.146,1.97-1.378,2.257-1.668l0.761-0.726c0.167,0,0.639-0.434,0.69-0.507c0.051-0.072,0.843-0.724,1.112-0.87
			c0.102-0.145,0.523-0.506,0.658-0.58c0.102-0.145,1.367-1.232,1.501-1.306c0.153-0.217,1.028-0.87,1.129-1.015
			c0.052-0.073,0.408-0.58,0.492-0.58c0.102-0.146,0.471-0.435,0.471-0.435l0.557-0.436c0.05-0.072,0.338-0.362,0.39-0.434
			c0.05-0.072,1.25-1.306,1.52-1.45l0.37-0.291c0.151-0.217,0.861-0.871,0.963-1.015c0.102-0.145,0.49-0.581,0.541-0.653
			c0,0,0.27-0.145,0.371-0.289c0.051-0.074,0.862-0.871,0.964-1.016c0.319-0.218,0.812-0.798,0.912-0.942
			c0,0,0.408-0.581,0.56-0.798c0.203-0.291,0.56-0.797,0.56-0.797C54.946,14.641,55.066,14.352,55.001,14.206 M48.753,20.371
			c-0.186,0.145-0.593,0.725-0.644,0.796c-0.103,0.146-1.028,0.871-1.181,1.088c-0.185,0.145-1.399,1.161-1.399,1.161
			c-0.051,0.072-0.102,0.145-0.102,0.145c-0.235,0.217-1.181,1.088-1.417,1.305c0,0-0.606,0.508-0.657,0.581
			c-0.102,0.145-2.058,1.739-2.262,2.03c0,0-1.061,0.798-1.195,0.87c-0.052,0.073-0.659,0.58-0.709,0.652
			c-0.269,0.146-1.433,1.088-1.618,1.234l-0.455,0.291c-0.453,0.29-1.583,1.305-1.953,1.594c0,0-0.709,0.653-1.112,0.871
			l-0.306,0.436c-0.219,0.072-0.69,0.506-0.741,0.579c-0.104,0.145-0.792,0.653-0.843,0.725c-0.103,0.146-0.575,0.581-0.742,0.581
			c-0.051,0.072-0.204,0.291-0.287,0.291c-0.051,0.072-0.543,0.652-0.592,0.725c-0.218,0.073-0.588,0.363-0.64,0.436
			c-0.167,0-1.028,0.87-1.247,0.941c-0.135,0.074-0.607,0.508-0.741,0.581c-0.218,0.073-0.269,0.145-0.269,0.145L27.422,38.5
			c0.051-0.073,0.102-0.145,0.152-0.218l0.322-0.218c0.05-0.072,0.573-0.58,0.625-0.653c0.236-0.217,1.569-1.522,2.023-1.812
			c0.052-0.072,0.76-0.725,0.947-0.871c0,0,0.305-0.434,0.522-0.507c0.051-0.073,0.996-0.942,1.098-1.088l0.319-0.217
			c0.051-0.073,0.287-0.29,0.338-0.361c0.218-0.074,0.557-0.437,0.557-0.437c0.051-0.073,0.287-0.289,0.287-0.289l0.505-0.364
			c0.134-0.071,0.759-0.724,0.81-0.798l0.389-0.434c0.187-0.146,0.996-0.942,1.233-1.16c0.134-0.074,0.894-0.798,1.247-0.944
			c0,0,0.305-0.434,0.355-0.507l0.556-0.435c0.237-0.218,1.468-1.377,1.655-1.522c0.185-0.145,1.263-1.087,1.449-1.232
			c0,0,0.371-0.291,0.422-0.364c0.052-0.072,0.658-0.58,0.709-0.652c0,0,0.421-0.363,0.472-0.435
			c0.103-0.145,0.287-0.291,0.389-0.435c0,0,0.505-0.363,0.556-0.436c0.051-0.073,0.422-0.362,0.422-0.362
			c0.05-0.073,0.268-0.146,0.37-0.291c0.269-0.145,1.145-0.797,1.145-0.797c0.134-0.072,0.806-0.435,1.21-0.652l0.301-0.072h0.417
			C49.225,19.937,48.805,20.298,48.753,20.371"/>
		<path d="M77.908,50.587c-1.071,0.888-5.169,2.329-5.169,2.329l-2.103,1.441c0,0-2.925,0.332,2.928-5.436
			c0,0,3.646-4.341,8.496-9.219c0.478-0.042,2.434-1.264,2.918-1.705c0.278-0.32,0.565-0.635,0.856-0.946
			c-0.713,0.368-1.448,0.741-2.233,1.123c0.928-0.905,1.888-1.815,2.864-2.707c-1.069,0.011-2.146,0.061-3.237,0.217
			c-0.138,0.02-0.256,0.012-0.369-0.011C76.73,41.63,71.094,48.4,68.324,51.85c-1.145,1.428-1.188,3.615-1.188,3.615
			c0.364,3.326,15.13-5.283,15.13-5.283c0.264,1.53-0.568,3.629-2.229,6.879c0.024,0,0.047-0.004,0.071-0.004
			c0.439,0,0.592,0.329,0.924,0.521c2.052-4.147,7.955-9.448,7.955-9.448C90.107,43.249,78.98,49.699,77.908,50.587"/>
		<path d="M111.075,14.206h-0.083l-0.117-0.071c-0.084,0-0.217,0.071-0.217,0.071h-0.335c-0.269,0.146-0.82,0.218-0.872,0.29
			c0,0-0.539,0.291-0.807,0.437c-0.086,0-0.623,0.288-0.705,0.288c-0.053,0.074-1.146,0.799-1.516,1.089
			c-0.085,0-0.402,0.216-0.539,0.29c-0.102,0.145-0.658,0.58-0.875,0.653c0,0-0.808,0.434-0.908,0.581
			c-0.218,0.071-1.213,1.014-1.349,1.088c-0.927,0.723-4.733,3.769-5.662,4.495c0,0-0.37,0.29-0.454,0.29
			c-0.052,0.073-0.558,0.435-0.607,0.509c-0.051,0.071-0.676,0.725-0.943,0.869c-0.051,0.073-1.08,0.943-1.468,1.378
			c-0.054,0.072-0.896,0.797-1.132,1.015c-0.473,0.435-2.413,2.248-2.7,2.538c-0.218,0.073-1.315,1.161-1.501,1.306
			c-0.153,0.218-1.84,1.668-2.024,1.813c-0.052,0.074-0.339,0.363-0.39,0.436c-0.268,0.144-1.314,1.159-1.585,1.305
			c-0.05,0.072-0.306,0.435-0.472,0.435c-0.203,0.291-0.729,0.798-0.776,0.87c-0.187,0.146-1.215,1.016-1.315,1.161
			c-0.053,0.071-0.76,0.724-0.861,0.87c-0.053,0.072-0.574,0.58-0.625,0.652c-0.321,0.217-1.182,1.087-1.502,1.305
			c-0.051,0.073-0.506,0.363-0.605,0.507c-0.236,0.219-1.788,1.597-1.941,1.815c-0.052,0.072-0.625,0.651-0.677,0.724
			c0,0-0.235,0.218-0.319,0.218l-0.186,0.145H74.96c-0.427,0.982-1.16,1.811-2.247,2.324c-0.063,0.08-0.107,0.141-0.107,0.141
			c-0.086,0.03-0.244,0.141-0.406,0.268c0.777,0.127,1.542,0.276,2.305,0.431c0.113-0.104,0.262-0.22,0.389-0.263
			c0.051-0.072,0.338-0.361,0.473-0.436c0.135-0.072,0.908-0.58,0.908-0.58c0.052-0.072,0.441-0.507,0.49-0.579
			c0.288-0.29,1.25-1.306,1.25-1.306c0.271-0.145,0.795-0.653,1.012-0.726c0.052-0.072,0.959-0.652,1.146-0.797
			c0,0,0.792-0.652,0.896-0.797c0.102-0.146,0.555-0.434,0.555-0.434c0.354-0.147,1.648-1.162,1.836-1.306
			c0.32-0.218,1.885-1.378,2.122-1.596c0.085,0,0.288-0.29,0.288-0.29c0.268-0.146,0.927-0.725,1.027-0.87
			c0.166,0,1.08-0.943,1.349-1.089c0,0,0.558-0.435,0.657-0.58c0,0,0.287-0.29,0.338-0.363c0.136-0.072,0.979-0.798,1.031-0.869
			c0,0,0.42-0.363,0.471-0.435c0,0,0.234-0.217,0.287-0.291c0.103-0.145,0.791-0.652,0.844-0.725c0,0,0.32-0.218,0.371-0.291
			c0,0,0.337-0.362,0.438-0.507c0,0,0.486-0.218,0.538-0.291l0.236-0.218c0.135-0.073,0.64-0.436,0.741-0.579
			c0.354-0.146,1.97-1.378,2.258-1.668l0.76-0.726c0.166,0,0.641-0.434,0.689-0.507c0.051-0.072,0.844-0.724,1.111-0.87
			c0.104-0.145,0.523-0.506,0.657-0.58c0.103-0.145,1.367-1.232,1.502-1.306c0.151-0.217,1.028-0.87,1.13-1.015
			c0.051-0.073,0.407-0.58,0.49-0.58c0.104-0.146,0.473-0.435,0.473-0.435l0.557-0.436c0.052-0.072,0.339-0.362,0.39-0.434
			c0.052-0.072,1.25-1.306,1.521-1.45l0.369-0.291c0.152-0.217,0.862-0.871,0.963-1.015c0.104-0.145,0.492-0.581,0.543-0.653
			c0,0,0.269-0.145,0.371-0.289c0.051-0.074,0.86-0.871,0.963-1.016c0.318-0.218,0.812-0.798,0.912-0.942
			c0,0,0.407-0.581,0.562-0.798c0.202-0.291,0.56-0.797,0.56-0.797C111.021,14.641,111.141,14.352,111.075,14.206 M104.828,20.371
			c-0.186,0.145-0.594,0.725-0.645,0.796c-0.104,0.146-1.029,0.871-1.182,1.088c-0.188,0.145-1.4,1.161-1.4,1.161
			c-0.05,0.072-0.101,0.145-0.101,0.145c-0.235,0.217-1.183,1.088-1.418,1.305c0,0-0.606,0.508-0.657,0.581
			c-0.103,0.145-2.058,1.739-2.262,2.03c0,0-1.061,0.798-1.195,0.87c-0.051,0.073-0.656,0.58-0.707,0.652
			c-0.271,0.146-1.434,1.088-1.619,1.234l-0.453,0.291c-0.455,0.29-1.584,1.305-1.955,1.594c0,0-0.709,0.653-1.111,0.871
			l-0.307,0.436c-0.219,0.072-0.689,0.506-0.741,0.579c-0.103,0.145-0.791,0.653-0.843,0.725c-0.103,0.146-0.575,0.581-0.741,0.581
			c-0.05,0.072-0.203,0.291-0.286,0.291c-0.053,0.072-0.543,0.652-0.594,0.725c-0.219,0.073-0.588,0.363-0.639,0.436
			c-0.168,0-1.029,0.87-1.248,0.941c-0.137,0.074-0.605,0.508-0.742,0.581c-0.217,0.073-0.268,0.145-0.268,0.145l-0.22,0.073
			c0.052-0.073,0.103-0.145,0.153-0.218l0.319-0.218c0.052-0.072,0.574-0.58,0.624-0.653c0.237-0.217,1.57-1.522,2.025-1.812
			c0.05-0.072,0.759-0.725,0.945-0.871c0,0,0.306-0.434,0.521-0.507c0.051-0.073,0.996-0.942,1.1-1.088l0.318-0.217
			c0.053-0.073,0.288-0.29,0.338-0.361c0.219-0.074,0.557-0.437,0.557-0.437c0.053-0.073,0.287-0.289,0.287-0.289l0.506-0.364
			c0.135-0.071,0.76-0.724,0.811-0.798l0.389-0.434c0.188-0.146,0.995-0.942,1.232-1.16c0.134-0.074,0.895-0.798,1.247-0.944
			c0,0,0.305-0.434,0.354-0.507l0.557-0.435c0.236-0.218,1.468-1.377,1.654-1.522c0.186-0.145,1.264-1.087,1.448-1.232
			c0,0,0.371-0.291,0.423-0.364c0.053-0.072,0.657-0.58,0.709-0.652c0,0,0.422-0.363,0.471-0.435
			c0.104-0.145,0.289-0.291,0.391-0.435c0,0,0.506-0.363,0.559-0.436c0.049-0.073,0.42-0.362,0.42-0.362
			c0.051-0.073,0.269-0.146,0.371-0.291c0.269-0.145,1.146-0.797,1.146-0.797c0.134-0.072,0.806-0.435,1.21-0.652l0.3-0.072h0.418
			C105.299,19.937,104.879,20.298,104.828,20.371"/>
	</g>
</g>
</svg>
