<?xml version="1.0" encoding="utf-8"?>
<!-- Generator: Adobe Illustrator 16.0.0, SVG Export Plug-In . SVG Version: 6.00 Build 0)  -->
<!DOCTYPE svg PUBLIC "-//W3C//DTD SVG 1.1//EN" "http://www.w3.org/Graphics/SVG/1.1/DTD/svg11.dtd">
<svg version="1.1" id="Layer_1" xmlns="http://www.w3.org/2000/svg" xmlns:xlink="http://www.w3.org/1999/xlink" x="0px" y="0px"
	 width="201.006px" height="85px" viewBox="0 0 201.006 85" enable-background="new 0 0 201.006 85" xml:space="preserve">
<g>
	<path fill="#161616" d="M99.743,0L0,21.49V85l201.006-0.065l-0.001-0.001h0.001V21.427L99.743,0z"/>
	<g>
		<polygon fill="#781F35" points="42.265,27.002 42.265,46.918 24.458,58.512 20.543,59.498 20.543,39.58 		"/>
		<polygon fill="#61192E" points="42.265,46.918 20.543,59.498 42.265,72 63.988,59.46 		"/>
		<polygon fill="#8C1F37" points="42.265,39.542 20.543,52.121 42.265,64.624 63.988,52.084 		"/>
		<polygon fill="#BE202E" points="42.265,27 20.543,39.58 42.265,52.083 61.127,43.805 63.988,39.543 		"/>
		<polygon fill="#9F2037" points="63.988,39.543 63.988,52.084 42.265,64.624 42.265,52.083 60.417,41.604 		"/>
		<path fill="#FFFFFF" d="M76.157,52.899c0.419,0.368,1.024,0.551,1.81,0.551c1.664,0,3.146-0.054,4.453-0.16l0.751-0.081
			l0.053,2.655c-2.056,0.5-3.916,0.751-5.578,0.751c-2.021,0-3.487-0.535-4.399-1.608s-1.368-2.816-1.368-5.229
			c0-4.809,1.975-7.214,5.927-7.214c3.897,0,5.847,2.02,5.847,6.061l-0.269,2.494H75.5C75.518,51.94,75.736,52.534,76.157,52.899z
			 M80.113,48.383c0-1.074-0.171-1.819-0.509-2.239c-0.341-0.42-0.935-0.631-1.784-0.631c-0.85,0-1.448,0.22-1.796,0.657
			c-0.349,0.438-0.533,1.176-0.55,2.213H80.113z"/>
		<path fill="#FFFFFF" d="M89.63,56.293h-3.594V42.885h3.567v0.751c1.216-0.714,2.333-1.072,3.352-1.072
			c1.788,0,3.021,0.528,3.7,1.583c0.68,1.054,1.02,2.681,1.02,4.88v7.267h-3.594v-7.16c0-1.144-0.133-1.987-0.402-2.534
			c-0.268-0.545-0.804-0.817-1.608-0.817c-0.732,0-1.439,0.125-2.119,0.375l-0.321,0.107L89.63,56.293L89.63,56.293z"/>
		<path fill="#FFFFFF" d="M112.562,57.97c0,1.527-0.59,2.659-1.769,3.393c-1.182,0.732-2.777,1.099-4.788,1.099
			c-2.012,0-3.557-0.268-4.641-0.804c-1.081-0.536-1.621-1.511-1.621-2.923c0-1.127,0.643-2.19,1.93-3.191
			c-0.662-0.447-0.992-1.127-0.992-2.039c0-0.357,0.268-0.946,0.804-1.77l0.241-0.374c-1.216-0.877-1.823-2.169-1.823-3.877
			c0-1.707,0.514-2.945,1.542-3.715c1.029-0.768,2.393-1.152,4.091-1.152c0.77,0,1.528,0.091,2.28,0.268l0.429,0.081l4.318-0.134
			V45.7l-2.012-0.161c0.393,0.607,0.589,1.217,0.589,1.824c0,1.788-0.455,3.021-1.368,3.7c-0.91,0.68-2.342,1.019-4.289,1.019
			c-0.413,0-0.778-0.036-1.101-0.106c-0.179,0.465-0.269,0.845-0.269,1.141c0,0.294,0.151,0.496,0.457,0.603
			c0.303,0.106,1.019,0.17,2.145,0.187c2.251,0.02,3.79,0.318,4.613,0.899C112.151,55.386,112.562,56.439,112.562,57.97z
			 M103.283,58.357c0,0.771,0.943,1.154,2.829,1.154c1.887,0,2.832-0.447,2.832-1.342c0-0.482-0.161-0.791-0.484-0.925
			c-0.321-0.135-1.001-0.21-2.038-0.229l-2.412-0.187C103.523,57.313,103.283,57.822,103.283,58.357z M103.498,47.378
			c0,1.313,0.683,1.97,2.052,1.97c1.367,0,2.051-0.657,2.051-1.97c0-1.315-0.684-1.973-2.051-1.973
			C104.181,45.405,103.498,46.063,103.498,47.378z"/>
		<path fill="#FFFFFF" d="M114.47,40.605v-3.085h2.924v3.085H114.47z M114.47,56.293V42.885h2.924v13.408H114.47z"/>
		<path fill="#FFFFFF" d="M123.462,56.293h-2.922V42.885h2.896v0.832c1.304-0.751,2.538-1.127,3.7-1.127
			c1.79,0,3.008,0.505,3.662,1.516c0.652,1.009,0.978,2.677,0.978,5.002v7.187h-2.895v-7.106c0-1.448-0.158-2.478-0.47-3.085
			c-0.313-0.607-0.952-0.912-1.917-0.912c-0.912,0-1.788,0.179-2.629,0.536l-0.402,0.161V56.293L123.462,56.293z"/>
		<path fill="#FFFFFF" d="M144.463,53.881l0.75-0.081l0.054,2.173c-2.037,0.411-3.844,0.616-5.416,0.616
			c-1.986,0-3.412-0.546-4.278-1.637c-0.867-1.09-1.303-2.832-1.303-5.228c0-4.756,1.941-7.135,5.821-7.135
			c3.754,0,5.632,2.049,5.632,6.143l-0.188,2.092h-8.313c0.017,1.109,0.261,1.922,0.725,2.44s1.331,0.777,2.601,0.777
			C141.819,54.042,143.121,53.986,144.463,53.881z M142.854,48.57c0-1.323-0.209-2.249-0.631-2.775
			c-0.42-0.528-1.131-0.792-2.131-0.792c-1.001,0-1.73,0.277-2.186,0.832c-0.456,0.555-0.693,1.466-0.711,2.735H142.854z"/>
		<path fill="#FFFFFF" d="M157.517,54.63l0.779-0.081l0.053,1.584c-2.037,0.285-3.781,0.428-5.229,0.428
			c-1.93,0-3.299-0.558-4.103-1.675c-0.805-1.118-1.207-2.857-1.207-5.218c0-4.701,1.869-7.053,5.605-7.053
			c1.806,0,3.154,0.506,4.049,1.516c0.894,1.01,1.341,2.597,1.341,4.76l-0.107,1.529h-8.851c0,1.483,0.269,2.583,0.804,3.297
			c0.537,0.717,1.471,1.073,2.803,1.073C154.787,54.79,156.141,54.738,157.517,54.63z M156.793,48.813
			c0-1.646-0.265-2.809-0.791-3.487c-0.527-0.679-1.387-1.02-2.574-1.02c-1.189,0-2.083,0.358-2.683,1.073
			c-0.599,0.716-0.908,1.859-0.925,3.434H156.793z"/>
		<path fill="#FFFFFF" d="M175.285,44.413c-1.948,0-2.923,0.68-2.923,2.039c0,0.625,0.224,1.068,0.672,1.327
			c0.446,0.26,1.466,0.527,3.056,0.804c1.591,0.278,2.719,0.668,3.38,1.168c0.66,0.5,0.993,1.438,0.993,2.815
			c0,1.376-0.442,2.386-1.328,3.029c-0.884,0.645-2.177,0.966-3.874,0.966c-1.109,0-2.415-0.125-3.917-0.375l-0.805-0.134
			l0.108-1.743c2.037,0.304,3.574,0.456,4.613,0.456c1.035,0,1.826-0.165,2.372-0.497c0.545-0.33,0.817-0.885,0.817-1.662
			c0-0.778-0.232-1.304-0.697-1.583c-0.467-0.275-1.484-0.54-3.058-0.789c-1.573-0.251-2.69-0.617-3.352-1.101
			c-0.662-0.482-0.992-1.377-0.992-2.681c0-1.305,0.46-2.271,1.381-2.897c0.922-0.624,2.068-0.938,3.446-0.938
			c1.09,0,2.458,0.126,4.104,0.376l0.751,0.134l-0.056,1.716C177.994,44.557,176.43,44.413,175.285,44.413z"/>
		<rect x="161.599" y="54.479" fill="#BE202E" width="2.01" height="1.813"/>
		<path fill="#FFFFFF" d="M163.584,44.708v-1.824h-1.985v9.229h2.01v-5.661l0.671-0.35c0.43-0.231,1.051-0.5,1.863-0.804
			c0.813-0.305,1.598-0.529,2.348-0.672v-2.039C166.773,42.93,165.139,43.635,163.584,44.708z"/>
	</g>
	<g>
		<polygon fill="#FFFFFF" points="72.176,35.837 69.881,29.005 68.253,29.005 68.253,37.086 69.155,37.086 69.155,29.963 
			69.319,29.963 71.672,36.794 72.679,36.794 75.033,29.963 75.197,29.963 75.197,37.086 76.099,37.086 76.099,29.005 
			74.471,29.005 		"/>
		<path fill="#FFFFFF" d="M82.071,36v-2.99c0-0.646-0.15-1.121-0.451-1.425c-0.301-0.304-0.783-0.455-1.446-0.455
			s-1.425,0.085-2.284,0.256l0.035,0.666l0.363-0.035c0.671-0.078,1.319-0.117,1.944-0.117c0.296,0,0.531,0.085,0.703,0.257
			c0.171,0.171,0.258,0.456,0.258,0.853v0.502l-1.839,0.175c-0.617,0.063-1.069,0.228-1.358,0.496
			c-0.289,0.269-0.433,0.688-0.433,1.255c0,0.568,0.141,1.005,0.422,1.309c0.281,0.304,0.69,0.455,1.229,0.455
			c0.703,0,1.405-0.155,2.108-0.467c0.313,0.312,0.777,0.467,1.394,0.467l0.035-0.689C82.321,36.46,82.094,36.289,82.071,36z
			 M81.193,36.105l-0.27,0.094c-0.515,0.179-1.039,0.268-1.569,0.268c-0.593,0-0.89-0.357-0.89-1.074
			c0-0.327,0.078-0.576,0.234-0.748c0.156-0.171,0.41-0.272,0.762-0.304l1.733-0.163V36.105z"/>
		<path fill="#FFFFFF" d="M87.434,31.282c-0.508-0.101-0.988-0.151-1.44-0.151c-0.875,0-1.501,0.251-1.879,0.753
			c-0.379,0.502-0.568,1.32-0.568,2.453s0.211,1.909,0.632,2.33c0.203,0.203,0.421,0.343,0.656,0.42s0.507,0.117,0.82,0.117
			c0.585,0,1.178-0.171,1.78-0.514v0.397h0.867v-8.385h-0.867V31.282z M87.434,35.988L87.2,36.094
			c-0.156,0.07-0.373,0.142-0.65,0.215c-0.277,0.074-0.527,0.111-0.749,0.111c-0.223,0-0.404-0.027-0.545-0.082
			c-0.141-0.055-0.273-0.156-0.398-0.304c-0.273-0.312-0.41-0.918-0.41-1.822c0-0.794,0.117-1.38,0.352-1.758
			s0.648-0.566,1.241-0.566c0.429,0,0.894,0.046,1.394,0.14V35.988z"/>
		<path fill="#FFFFFF" d="M92.188,31.131c-1.632,0-2.447,1.023-2.447,3.071c0,1.028,0.176,1.785,0.527,2.271
			c0.352,0.487,0.949,0.73,1.792,0.73c0.633,0,1.394-0.063,2.284-0.187l-0.023-0.689l-0.34,0.035
			c-0.601,0.047-1.193,0.07-1.774,0.07s-0.989-0.155-1.224-0.467s-0.351-0.791-0.351-1.437h3.864l0.047-0.666
			c0-0.942-0.195-1.633-0.585-2.073C93.566,31.351,92.977,31.131,92.188,31.131z M90.619,33.828
			c0.007-0.685,0.143-1.184,0.404-1.495c0.262-0.312,0.652-0.467,1.171-0.467c0.519,0,0.894,0.148,1.124,0.444
			c0.23,0.296,0.346,0.802,0.346,1.518H90.619z"/>
		<path fill="#FFFFFF" d="M101.076,31.131c-0.554,0-1.128,0.136-1.721,0.409v-2.838h-0.866v8.373l0.328,0.035
			c0.757,0.063,1.3,0.093,1.627,0.093c1.054,0,1.778-0.228,2.173-0.683c0.394-0.456,0.591-1.244,0.591-2.365
			s-0.158-1.905-0.474-2.353S101.864,31.131,101.076,31.131z M101.948,35.901c-0.246,0.347-0.751,0.52-1.516,0.52
			c-0.211,0-0.57-0.02-1.078-0.059v-4.111l0.234-0.082c0.476-0.171,0.941-0.257,1.394-0.257c0.499,0,0.847,0.165,1.042,0.497
			c0.195,0.331,0.292,0.909,0.292,1.734S102.194,35.555,101.948,35.901z"/>
		<polygon fill="#FFFFFF" points="108.196,31.247 106.72,36.327 106.334,36.327 104.87,31.247 103.992,31.247 105.655,37.086 
			106.521,37.086 105.76,39.679 106.639,39.679 109.074,31.247 		"/>
	</g>
</g>
</svg>
