<?xml version="1.0" encoding="utf-8"?>
<!-- Generator: Adobe Illustrator 16.0.0, SVG Export Plug-In . SVG Version: 6.00 Build 0)  -->
<!DOCTYPE svg PUBLIC "-//W3C//DTD SVG 1.1//EN" "http://www.w3.org/Graphics/SVG/1.1/DTD/svg11.dtd">
<svg version="1.1" id="Layer_2" xmlns="http://www.w3.org/2000/svg" xmlns:xlink="http://www.w3.org/1999/xlink" x="0px" y="0px"
	 width="159px" height="105px" viewBox="0 0 159 105" enable-background="new 0 0 159 105" xml:space="preserve">
<g>
	<g>
		<path fill="#BE1E2D" d="M25.055,4.829c1.37,0.207,2.448,0.816,2.448,2.199c0,0.927-0.512,1.632-1.327,2.089
			c-0.706,0.387-1.618,0.554-2.711,0.554h-3.057V9.282C21.596,9.2,21.68,9.117,21.68,7.955V2.379c0-1.147-0.055-1.23-1.162-1.314
			V0.679h3.556c1.037,0,1.646,0.166,2.075,0.47c0.498,0.332,0.775,0.94,0.775,1.577c0,1.314-1.094,1.854-1.868,2.062V4.829z
			 M23.492,4.662c1.522,0,2.158-0.607,2.158-1.769c0-0.942-0.526-1.771-1.839-1.771c-0.346,0-0.65,0.055-0.79,0.137
			c-0.124,0.084-0.179,0.236-0.179,0.692v2.711H23.492z M22.842,7.941c0,0.995,0.263,1.259,1.148,1.259
			c1.134-0.014,2.145-0.595,2.145-2.033c0-1.425-0.968-2.049-2.656-2.049h-0.636V7.941z"/>
		<path fill="#BE1E2D" d="M40.778,9.671V9.282c1.065-0.083,1.189-0.153,1.189-1.341v-3.61c0-0.457,0-1.246,0.07-2.574h-0.055
			l-4.385,7.234c-0.111,0.167-0.125,0.347-0.125,0.526v0.153h-2.435V9.282c1.053-0.083,1.162-0.18,1.162-1.438V2.325
			c0-1.093-0.109-1.176-1.162-1.259V0.679h3.487v0.387c-1.039,0.083-1.177,0.166-1.177,1.244v3.376c0,0.636,0,1.355-0.055,2.725
			h0.027l4.343-7.137c0.126-0.195,0.153-0.332,0.153-0.457V0.679h2.476v0.387c-1.051,0.083-1.176,0.193-1.176,1.425v5.45
			c0,1.188,0.125,1.258,1.176,1.341v0.389H40.778z"/>
		<path fill="#BE1E2D" d="M61.863,1.065c-1.134,0.097-1.245,0.167-1.245,1.314v5.59c0,1.16,0.111,1.23,1.231,1.313V9.67h-3.707
			V9.282c1.176-0.083,1.3-0.153,1.3-1.313V5.202h-4.718v2.767c0,1.148,0.111,1.23,1.245,1.313V9.67h-3.637V9.282
			c1.107-0.083,1.218-0.153,1.218-1.313v-5.59c0-1.161-0.111-1.217-1.247-1.314V0.678h3.583v0.387
			c-1.051,0.097-1.162,0.167-1.162,1.314v2.24h4.718v-2.24c0-1.147-0.111-1.217-1.19-1.314V0.678h3.611V1.065z"/>
		<path fill="#BE1E2D" d="M75.363,9.671V9.282c0.871-0.109,0.996-0.22,0.815-0.76c-0.18-0.541-0.456-1.287-0.76-2.131h-2.948
			c-0.22,0.623-0.428,1.204-0.608,1.784c-0.303,0.872-0.18,1.011,0.857,1.107v0.389h-3.001V9.282
			c0.872-0.124,1.065-0.208,1.549-1.424l2.864-7.264l0.429-0.123c0.858,2.379,1.784,5.007,2.67,7.415
			c0.442,1.188,0.622,1.313,1.521,1.396v0.389H75.363z M74.008,2.269h-0.029c-0.442,1.189-0.884,2.393-1.301,3.528h2.546
			L74.008,2.269z"/>
		<path fill="#BE1E2D" d="M90.115,0.679c0.981,0,1.769,0.166,2.323,0.58c0.539,0.401,0.898,1.039,0.898,1.951
			c0,1.785-1.355,2.655-2.696,2.836c-0.209,0.014-0.47,0.014-0.622,0l-1.024-0.263v2.172c0,1.174,0.124,1.245,1.369,1.327v0.389
			h-3.748V9.282c1.105-0.083,1.217-0.193,1.217-1.341V2.407c0-1.217-0.111-1.272-1.135-1.342V0.679H90.115z M88.994,5.326
			c0.18,0.07,0.554,0.167,1.011,0.167c0.898,0,2.006-0.484,2.006-2.241c0-1.495-0.956-2.13-2.09-2.13
			c-0.388,0-0.678,0.069-0.775,0.167c-0.11,0.096-0.151,0.261-0.151,0.65V5.326z"/>
		<path fill="#BE1E2D" d="M106.656,9.671V9.282c1.065-0.083,1.189-0.153,1.189-1.341v-3.61c0-0.457,0-1.246,0.068-2.574h-0.054
			l-4.386,7.234c-0.11,0.167-0.124,0.347-0.124,0.526v0.153h-2.436V9.282c1.052-0.083,1.162-0.18,1.162-1.438V2.325
			c0-1.093-0.11-1.176-1.162-1.259V0.679h3.487v0.387c-1.038,0.083-1.177,0.166-1.177,1.244v3.376c0,0.636,0,1.355-0.057,2.725
			h0.029l4.344-7.137c0.123-0.195,0.152-0.332,0.152-0.457V0.679h2.476v0.387c-1.052,0.083-1.176,0.193-1.176,1.425v5.45
			c0,1.188,0.124,1.258,1.176,1.341v0.389H106.656z"/>
		<path fill="#BE1E2D" d="M121.806,1.065c-1.065,0.083-1.178,0.18-1.178,1.342v5.174c0,1.77-0.274,2.725-1.188,3.569
			c-0.471,0.429-0.939,0.691-1.287,0.801l-0.18-0.386c0.775-0.388,1.189-1.024,1.328-1.813c0.125-0.664,0.153-1.467,0.153-2.628
			V2.408c0-1.162-0.111-1.259-1.232-1.342V0.678h3.584V1.065z"/>
		<path fill="#BE1E2D" d="M134.551,9.671V9.282c0.872-0.109,0.996-0.22,0.816-0.76c-0.18-0.541-0.456-1.287-0.761-2.131h-2.946
			c-0.222,0.623-0.429,1.204-0.608,1.784c-0.305,0.872-0.181,1.011,0.856,1.107v0.389h-3V9.282c0.87-0.124,1.063-0.208,1.549-1.424
			l2.862-7.264l0.43-0.123c0.857,2.379,1.784,5.007,2.669,7.415c0.443,1.188,0.623,1.313,1.521,1.396v0.389H134.551z M133.195,2.269
			h-0.026c-0.444,1.189-0.886,2.393-1.301,3.528h2.545L133.195,2.269z"/>
	</g>
	<g>
		<path fill="#FFFFFF" d="M144.103,54.396c0.071-0.101,0.026-0.203,0.026-0.203c-0.045-0.102-0.203-0.205-0.319-0.205h-0.343
			c0,0-0.071,0.104-0.142,0.205c-0.114,0-0.441,0.306-0.441,0.306c-0.483,0.203-2.104,1.22-2.518,1.32
			c-0.257,0.205-2.495,1.12-2.682,1.222c-0.484,0.203-3.26,1.729-4.255,2.339l-3.1,1.828c-0.369,0.205-1.806,1.12-2.177,1.322
			c-1.11,0.611-5.269,2.645-6.194,3.155c-0.114,0-1.109,0.609-1.295,0.709l-0.671,0.306l-0.299,0.102l-0.045-0.102
			c-0.113,0-0.132-0.306-0.132-0.306c0.052-0.406,0.718-2.033,0.883-2.44c0.166-0.405,1.228-2.44,1.326-2.746
			c0.069-0.1,1.923-2.948,2.65-4.167l0.283-0.406c0.186-0.103,0.978-0.916,1.091-0.916c0,0,1.181-0.711,1.622-1.017
			c0.071-0.103,0.669-0.306,0.669-0.306c0.07-0.101,0.899-0.305,0.971-0.408c0.3-0.099,0.926-0.508,1.04-0.508
			c0.069-0.1,1.487-1.321,1.997-1.727c0.07-0.102,0.396-0.406,0.468-0.51c0.141-0.202,0.605-0.71,0.605-0.71l0.493-0.711
			c0.07-0.102,0.384-1.22,0.596-1.525c0.069-0.102-0.063-0.406-0.178-0.406c0.14-0.204-0.179-0.408-0.292-0.408h-0.804
			c-0.186,0.103-1.173,0.204-1.429,0.408c-0.114,0-1.965,1.016-2.518,1.321c0,0-0.883,0.61-1.208,0.915c0,0-0.978,0.915-1.232,1.117
			c-0.256,0.205-1.488,1.323-1.628,1.527c-0.255,0.203-0.651,0.61-0.651,0.61l-0.397,0.406c-0.069,0.103-0.737,0.406-0.511,0.406
			c-0.368,0.203-0.578,0.509-0.578,0.509c-0.557,0.306-2.575,1.728-2.987,1.83c-0.255,0.203-1.155,0.509-1.366,0.813
			c-0.115,0-1.039,0.51-1.295,0.713c-0.414,0.103-2.105,1.221-2.661,1.525c-0.14,0.202-0.67,0.305-0.67,0.305
			c-0.141,0.203-0.166,0.408-0.395,0.408c-0.07,0.1-0.996,0.61-0.996,0.61l-10.461,5.573c-0.039,0.014-0.095,0.042-0.161,0.076
			c0.13,0.389,0.06,0.862-0.28,1.238c0.341-0.199,0.628-0.377,0.796-0.5c0.3-0.102,10.435-5.373,10.576-5.576
			c0.184-0.102,1.181-0.712,1.251-0.812c0.07-0.103,1.11-0.61,1.11-0.61c0.114,0,1.18-0.713,1.18-0.713l1.436-0.916
			c0.23,0,0.97-0.407,1.227-0.609c0.184-0.103,1.179-0.713,1.293-0.713l0.44-0.304l0.811-0.509
			c-0.255,0.203-0.676,0.813-0.887,1.118c0,0-0.722,0.713-0.792,0.814l-2.111,3.049c0,0-0.331,0.814-0.473,1.017
			c-0.211,0.308-0.596,1.526-0.665,1.629c-0.211,0.305-0.57,1.32-0.596,1.526c0.045,0.099-0.201,1.116-0.183,1.423
			c0.045,0.102,0.082,0.712-0.059,0.914l0.204,0.202l0.522,0.408c0.229,0,0.935,0.305,1.164,0.305h0.688c0,0,0.3-0.102,0.369-0.204
			c0.302-0.101,1.755-0.711,2.31-1.017c0.071-0.101,0.669-0.305,0.669-0.305s0.211-0.304,0.327-0.304
			c0.07-0.104,0.67-0.307,0.854-0.408l1.181-0.712l0.556-0.303c0.07-0.104,0.483-0.206,0.625-0.408c0.115,0,0.599-0.203,0.829-0.203
			c0.139-0.205,0.44-0.305,0.51-0.407c0.23,0,1.34-0.61,1.524-0.713l0.556-0.306c0.298-0.1,1.436-0.915,1.806-1.118l0.995-0.609
			c0.511-0.407,1.691-1.117,1.99-1.22c0.927-0.509,3.702-2.034,4.071-2.236l2.054-0.814l3.887-2.137l0.422-0.609
			C144.121,54.702,144.103,54.396,144.103,54.396 M127.581,53.075l0.631-0.916c0.142-0.203,0.563-0.812,0.861-0.916
			c0.327-0.304,1.677-1.422,2.114-1.727c0,0,0.44-0.305,0.557-0.305c0.183-0.103,0.944-0.204,0.944-0.204
			c0.112,0,0.413-0.102,0.528-0.102l-0.072,0.102c0,0-0.096,0.305-0.165,0.406c0,0-0.027,0.204-0.096,0.305
			c-0.069,0.102-0.325,0.306-0.396,0.407c0,0-1.021,0.813-1.206,0.915c-0.071,0.102-0.836,0.712-0.977,0.915
			c-0.186,0.101-0.995,0.61-1.367,0.814c0,0-0.554,0.304-0.898,0.304c-0.07,0.101-0.44,0.306-0.44,0.306
			C127.37,53.381,127.51,53.176,127.581,53.075"/>
		<path fill="#FFFFFF" d="M27.2,62.388c-1.311,1.087-6.328,2.852-6.328,2.852L18.3,67.003c0,0-3.58,0.408,3.584-6.651
			c0,0,4.465-5.313,10.398-11.284c0.584-0.051,2.978-1.547,3.571-2.086c0.342-0.392,0.693-0.777,1.05-1.158
			c-0.874,0.451-1.777,0.907-2.735,1.375c1.136-1.107,2.311-2.221,3.506-3.313c-1.309,0.013-2.625,0.074-3.962,0.266
			c-0.167,0.024-0.313,0.015-0.449-0.013c-7.504,7.29-14.401,15.576-17.793,19.799c-1.4,1.746-1.456,4.425-1.456,4.425
			c0.445,4.071,18.52-6.467,18.52-6.467c0.321,1.873-0.697,4.44-2.73,8.419c0.028,0,0.057-0.004,0.085-0.004
			c0.538-0.001,0.724,0.402,1.131,0.636c2.513-5.077,9.738-11.564,9.738-11.564C42.131,53.407,28.511,61.302,27.2,62.388"/>
		<path fill="#FFFFFF" d="M41.555,62.964l0.232-0.317c0,0,0.273-0.422,0.316-0.528c0.189-0.21,0.949-1.056,1.245-1.267
			c0.084-0.212,1.39-1.903,1.58-2.115c0.189-0.212,0.634-0.528,0.675-0.634l0.866-0.847c0.041-0.104,0.483-0.422,0.527-0.527
			c0.189-0.211,0.969-0.847,1.118-0.952c0.296-0.209,1.478-1.055,1.774-1.269c0,0,0.505-0.209,0.717-0.209
			c0.147-0.107,0.971-0.319,1.12-0.425c0.254-0.105,1.12-0.423,1.12-0.423h0.211h0.317c0,0-0.063,0.423-0.146,0.635
			c0,0-0.146,0.636-0.083,0.74c0,0,0.106,0,0.064,0.104h1.268h1.057c0.317,0,1.522-0.104,1.945-0.104l0.971-0.318
			c0.423,0,2.811-0.422,3.339-0.422c0,0,1.247-0.212,1.353-0.212l0.887-0.105c0.211,0,1.184-0.317,1.289-0.317l1.311-0.104
			c0.465-0.106,2.134-0.317,2.387-0.424h0.212c0.169,0.106,0.55,0.212,0.656,0.212c0,0,0.17,0.105,0.127,0.212
			c-0.148,0.104-0.569,0.633-0.716,0.739l-0.296,0.213h-0.316h-0.423l-0.233-0.213h-0.105h-0.212c0,0-0.57,0.105-0.613,0.213h-0.846
			c0,0-1.668,0.209-1.774,0.209c0,0-0.719,0.214-0.972,0.318c-0.105,0-0.74,0-0.782,0.104h-0.423c-0.317,0-1.965,0.423-2.177,0.423
			c-0.211,0-1.459,0.214-1.606,0.319c-0.211,0-0.888,0.104-0.888,0.104h-0.422c-0.149,0.105-0.719,0.213-0.825,0.213
			c-0.21,0-1.711,0.315-1.964,0.422c0,0-0.571,0.106-0.676,0.106c-0.212,0-0.611,0.211-0.611,0.211
			c-0.148,0.105-0.615,0.211-0.803,0.423l-0.402,0.212l-0.084,0.211c-0.083,0.211-0.061,0.95-0.146,1.162
			c0,0-0.146,0.634-0.231,0.846c-0.042,0.106,0.17,0.634,0.277,0.634l-0.126,0.319L51.57,60.64c-0.106,0-0.423,0.526-0.423,0.526
			c-0.041,0.107-0.126,0.319-0.168,0.423c0,0-0.442,0.319-0.526,0.529c-0.085,0.213-0.76,0.846-0.949,1.059
			c-0.359,0.105-1.034,0.738-1.394,0.844c0,0-1.394,0.845-1.499,0.845c-0.19,0.214-0.992,0.636-1.183,0.847l-0.506,0.213
			c0,0-0.676,0.105-0.888,0.105c0,0-0.76,0.316-0.867,0.316c0,0-0.675,0.106-0.887,0.106l-0.487-0.106
			c-0.104,0-0.466-0.422-0.466-0.422c-0.211,0-0.065-0.637-0.065-0.637l-0.021-0.209c-0.212,0-0.213-0.529-0.171-0.636
			c0.043-0.106,0.189-0.738,0.274-0.951c0,0,0.083-0.21,0.125-0.315L41.555,62.964z M47.071,62.646l0.085,0.317l0.128,0.213
			c0.104,0,0.402-0.213,0.717-0.213c0,0,0.655-0.317,0.739-0.527c0.36-0.105,0.739-0.528,0.739-0.528s0.337-0.319,0.379-0.423
			c0.042-0.105-0.043-0.423-0.043-0.423s0.105-0.527,0.23-0.847l0.063-0.424h-0.318h-0.211c-0.106,0-0.318,0-0.36,0.106
			c0,0-0.358,0.106-0.443,0.317c-0.337,0.319-0.949,1.058-1.203,1.164l-0.21,0.528C47.281,62.118,47.071,62.646,47.071,62.646"/>
		<path fill="#FFFFFF" d="M158.439,38.888c-0.106,0-0.487-0.105-0.657-0.212h-0.211c-0.253,0.107-1.923,0.317-2.388,0.423
			l-1.31,0.106c-0.106,0-1.079,0.316-1.289,0.316l-0.888,0.106c-0.105,0-1.354,0.212-1.354,0.212c-0.527,0-2.914,0.422-3.338,0.422
			l-0.972,0.317c-0.356,0-1.841,0.901-1.94,1.309c0.389-0.081,0.747-0.146,0.844-0.146c0.104,0,0.676-0.107,0.823-0.212h0.422
			c0,0,0.679-0.105,0.89-0.105c0.146-0.105,1.394-0.316,1.605-0.316s1.859-0.423,2.177-0.423h0.422
			c0.042-0.106,0.677-0.106,0.782-0.106c0.254-0.106,0.973-0.317,0.973-0.317c0.106,0,1.773-0.21,1.773-0.21h0.846
			c0.043-0.106,0.613-0.211,0.613-0.211h0.211h0.104l0.235,0.211h0.423h0.316l0.297-0.211c0.146-0.105,0.567-0.634,0.716-0.741
			C158.607,38.993,158.439,38.888,158.439,38.888"/>
		<path fill="#FFFFFF" d="M31.85,65.327c-0.071,0.082-0.129,0.155-0.146,0.202c-0.077,0-0.35,0.305-0.425,0.305
			c0,0-0.41,0.454-0.44,0.53c-0.456,0.381-2.051,1.902-2.459,2.358c-0.077,0-0.365,0.153-0.365,0.153
			c-0.136,0.151-1.261,1.065-1.534,1.368c-0.213,0.152-1.017,0.837-1.23,0.99c-0.107,0.075-1.001,0.988-1.168,1.217
			c-0.077,0-0.563,0.456-0.669,0.532c-0.06,0.152-0.35,0.306-0.35,0.306c-0.061,0.151-0.41,0.456-0.439,0.531
			c-0.062,0.153-1.034,1.063-1.064,1.14c-0.152,0-0.485,0.457-0.515,0.533c0,0-0.107,0.075-0.183,0.075
			c-0.41,0.457-2.217,2.13-2.565,2.436c-0.031,0.074-0.684,0.76-0.79,0.836l-0.623,0.608c-0.105,0.076-0.668,0.533-0.729,0.685
			c-0.289,0.154-1.153,0.989-1.367,1.142c-0.061,0.153-1.396,1.598-1.562,1.826c-0.108,0.077-1.003,0.987-1.14,1.139
			c-0.059,0.152-1.154,1.371-1.319,1.599c-0.077,0-0.32,0.229-0.349,0.304c-0.243,0.229-0.926,0.989-1.002,0.989
			C9.355,87.282,8.9,88.044,8.9,88.044c-0.243,0.229-1.136,1.521-1.274,1.674c-0.03,0.077-0.333,0.456-0.333,0.456
			c-0.061,0.153-0.257,0.457-0.288,0.533c-0.167,0.228-0.879,1.064-1.018,1.215c-0.03,0.076-0.41,0.457-0.487,0.457
			c-0.09,0.229-0.863,1.217-1.076,1.369c-0.031,0.075-0.304,0.38-0.364,0.532c-0.106,0.076-1.077,1.369-1.41,1.826
			c-0.137,0.152-0.456,0.762-0.456,0.762c-0.213,0.151-0.591,0.912-0.622,0.988c-0.029,0.076-0.303,0.762-0.364,0.913
			c-0.089,0.228-0.363,0.913-0.423,1.064c0,0-0.045,0.305,0.077,0.382c0,0-0.211,0.91-0.241,0.987
			c-0.031,0.075,0.001,0.38,0.001,0.38c-0.031,0.075-0.015,0.228,0.03,0.305c-0.03,0.075,0.138,0.229,0.076,0.379
			c0.047,0.076,0.215,0.609,0.292,0.609l0.153,0.381c0.045,0.075,0.183,0.305,0.183,0.305c-0.015,0.228,0.214,0.607,0.23,0.761
			c0.077,0,0.26,0.303,0.26,0.303c-0.06,0.153,0.245,0.153,0.397,0.153h0.227h0.305c0.075,0,0.304,0,0.516-0.153l0.259-0.076
			c0.183-0.074,1.032-0.685,1.139-0.76c0.152,0,0.531-0.381,0.667-0.532c0.03-0.077,0.351-0.305,0.379-0.381
			c0.138-0.153,0.593-0.533,0.699-0.609c0.061-0.15,0.577-0.684,0.637-0.836l0.503-0.305c0,0,0.409-0.456,0.485-0.456l0.563-0.454
			c0.029-0.077,0.228-0.382,0.303-0.382c0.03-0.074,0.682-0.76,0.865-0.837c0.076,0,0.516-0.532,0.622-0.608
			c0,0,0.41-0.456,0.439-0.532c0.107-0.076,1.139-1.141,1.2-1.294c0.348-0.304,1.304-1.368,1.518-1.521
			c0.091-0.229,0.865-1.218,1.032-1.445c0,0,0.393-0.609,0.424-0.684c0.091-0.229,0.469-0.99,0.531-1.141
			c0,0,0.272-0.305,0.303-0.38l0.41-0.457c0.076,0,0.212-0.151,0.212-0.151c0.077,0,0.196-0.304,0.196-0.304
			s0.502-0.685,0.532-0.762c0.03-0.076,0.531-0.761,0.561-0.836c0.062-0.153,0.319-0.609,0.349-0.686l0.289-0.152
			c0.091-0.229,0.363-0.913,0.47-0.989l0.441-0.531c0,0,0.332-0.457,0.363-0.533c0,0,0.136-0.152,0.211-0.152
			c0.061-0.152,0.41-0.456,0.44-0.533c0.076,0,0.303-0.379,0.485-0.456c0.031-0.076,0.424-0.684,0.455-0.761
			c0.212-0.153,0.683-0.762,0.743-0.91c0.288-0.153,1.337-1.446,1.442-1.522c0,0,0.258-0.456,0.395-0.609
			c0.061-0.151,0.379-0.759,0.484-0.836c0.032-0.077,0.578-0.686,0.607-0.762c0,0,0.198-0.304,0.379-0.38
			c0.031-0.075,0.288-0.533,0.349-0.685l0.136-0.153c0.243-0.227,0.912-1.141,1.078-1.368c0.106-0.076,0.501-0.686,0.576-0.686
			c0.061-0.151,0.516-0.914,0.653-1.063c0.031-0.077,0.287-0.531,0.347-0.684c0.214-0.152,0.668-0.914,0.698-0.989l0.273-0.305
			c0.061-0.152,1.122-1.674,1.456-2.131l0.364-0.531c0.031-0.077,0.41-0.457,0.441-0.532c0.105-0.077,0.804-1.065,0.91-1.142
			l0.029-0.077c0.213-0.15,0.592-0.913,0.622-0.989l0.137-0.151c0.061-0.152,0.334-0.456,0.44-0.532c0,0,0.318-0.229,0.349-0.305
			c0.03-0.076,0.484-0.838,0.65-1.063c0.008-0.019,0.038-0.083,0.078-0.168C33.896,65.439,32.875,65.378,31.85,65.327
			 M29.186,69.559c-0.031,0.077-0.591,0.915-0.758,1.143c-0.03,0.076-0.288,0.533-0.288,0.533c-0.03,0.075-0.864,1.217-0.894,1.292
			l-0.334,0.457c-0.061,0.152-0.257,0.457-0.334,0.457c-0.03,0.075-0.394,0.608-0.394,0.608c-0.031,0.076-0.441,0.533-0.472,0.606
			c0,0-0.165,0.229-0.196,0.305c-0.03,0.076-0.728,1.065-0.788,1.217c0,0-0.606,0.761-0.744,0.913
			c-0.03,0.076-1.137,1.522-1.228,1.75l-0.167,0.229c-0.135,0.151-1.138,1.522-1.198,1.674c-0.197,0.304-1.851,2.358-2.094,2.584
			c-0.061,0.154-0.667,0.913-0.804,1.065c0,0-0.44,0.534-0.47,0.609c-0.031,0.076-0.273,0.304-0.273,0.304
			c-0.029,0.077-0.545,0.609-0.577,0.686c-0.182,0.076-0.273,0.305-0.303,0.38c-0.06,0.153-0.591,0.912-0.728,1.065
			c-0.03,0.076-0.562,0.837-0.592,0.914c-0.029,0.074-0.38,0.379-0.44,0.532c-0.03,0.075-0.394,0.607-0.394,0.607
			c-0.137,0.152-0.894,1.294-1.03,1.445c-0.259,0.457-1.836,2.51-1.958,2.813c0,0-0.577,0.685-0.712,0.838
			c-0.135,0.15-1.154,1.368-1.214,1.521c0,0-0.349,0.305-0.38,0.381c-0.029,0.075-0.713,0.837-0.772,0.988l-0.228,0.381
			c-0.349,0.304-1.063,1.141-1.229,1.369c0,0-0.699,0.608-0.805,0.685c-0.061,0.153-1.154,1.368-1.366,1.521
			c-0.06,0.152-0.576,0.686-0.651,0.686c-0.137,0.15-0.852,0.606-0.852,0.606H3.211H2.907c-0.076,0-0.273-0.074-0.273-0.074
			s-0.183-0.306-0.229-0.382c-0.015-0.15-0.244-0.532-0.259-0.684c-0.046-0.076-0.109-0.685-0.23-0.762
			c-0.076,0-0.09-0.151-0.184-0.303c0.03-0.078,0.333-0.836,0.394-0.988c0.062-0.152,0.454-1.142,0.605-1.521
			c0.212-0.152,0.501-0.685,0.562-0.838c0,0,0.47-0.608,0.575-0.684c0.091-0.229,0.592-0.913,0.652-1.064
			c0.03-0.077,0.229-0.382,0.229-0.382c0.167-0.229,1.183-1.445,1.244-1.597c0,0,0.334-0.458,0.365-0.532h0.151
			c0.029-0.076,0.364-0.533,0.394-0.609c0.106-0.075,0.667-0.911,0.728-1.063l0.334-0.457c0.031-0.076,0.547-0.609,0.547-0.609
			c0.028-0.075,0.227-0.379,0.257-0.456c0.105-0.076,0.515-0.532,0.576-0.685l0.122-0.305c0.03-0.075,0.47-0.609,0.5-0.685
			c0.137-0.152,0.547-0.608,0.547-0.608c0.061-0.153,0.576-0.686,0.667-0.912c0.106-0.077,0.546-0.609,0.577-0.686
			c0,0,0.41-0.456,0.44-0.533h0.152c0.03-0.076,0.226-0.379,0.333-0.456c0.031-0.076,0.85-0.609,0.927-0.609
			c0.029-0.074,0.061-0.151,0.121-0.305c0.182-0.075,0.819-0.91,0.88-1.063c0,0,0.212-0.152,0.243-0.228
			c0,0,0.196-0.305,0.227-0.381l0.259-0.076c0,0,0.121-0.305,0.258-0.456l0.289-0.153c0.135-0.15,0.439-0.532,0.515-0.532
			c0.03-0.076,0.593-0.532,0.775-0.609c0,0,0.622-0.607,0.729-0.684c0,0,0.243-0.229,0.273-0.305
			c0.105-0.075,0.729-0.685,0.835-0.761c0.137-0.152,1.047-0.912,1.154-0.989c0.03-0.076,0.608-0.761,0.637-0.836
			c0.075,0,0.456-0.381,0.456-0.381c0.563-0.456,1.913-1.75,1.943-1.826c0,0,0.471-0.606,0.502-0.682
			c0.106-0.077,0.668-0.533,0.727-0.685c0.107-0.077,0.457-0.382,0.457-0.382c0.107-0.075,0.988-0.76,1.153-0.989
			c0.076,0,0.534-0.38,0.563-0.456l0.167-0.228c0.076,0,0.349-0.304,0.485-0.457c0.107-0.076,0.852-0.609,0.957-0.687
			c0.031-0.074,0.198-0.302,0.273-0.302c0.061-0.153,0.198-0.306,0.351-0.306c0,0,0.243-0.228,0.394-0.228h0.077
			C29.308,69.256,29.217,69.483,29.186,69.559"/>
		<path fill="#FFFFFF" d="M100.932,65.327c-0.07,0.082-0.128,0.155-0.146,0.202c-0.076,0-0.349,0.305-0.425,0.305
			c0,0-0.409,0.454-0.439,0.53c-0.455,0.381-2.051,1.902-2.46,2.358c-0.077,0-0.365,0.153-0.365,0.153
			c-0.137,0.151-1.26,1.065-1.533,1.368c-0.213,0.152-1.017,0.837-1.23,0.99c-0.105,0.075-1.002,0.988-1.168,1.217
			c-0.076,0-0.562,0.456-0.668,0.532c-0.062,0.152-0.351,0.306-0.351,0.306c-0.06,0.151-0.411,0.456-0.438,0.531
			c-0.061,0.153-1.032,1.063-1.063,1.14c-0.151,0-0.485,0.457-0.517,0.533c0,0-0.104,0.075-0.181,0.075
			c-0.411,0.457-2.218,2.13-2.566,2.436c-0.029,0.074-0.683,0.76-0.79,0.836l-0.621,0.608c-0.106,0.076-0.67,0.533-0.73,0.685
			c-0.288,0.154-1.152,0.989-1.365,1.142c-0.062,0.153-1.396,1.598-1.564,1.826c-0.105,0.077-1.003,0.987-1.139,1.139
			c-0.059,0.152-1.153,1.371-1.32,1.599c-0.077,0-0.318,0.229-0.349,0.304c-0.243,0.229-0.925,0.989-1.001,0.989
			c-0.062,0.151-0.515,0.913-0.515,0.913c-0.245,0.229-1.139,1.521-1.275,1.674c-0.03,0.077-0.333,0.456-0.333,0.456
			c-0.061,0.153-0.258,0.457-0.288,0.533c-0.168,0.228-0.88,1.064-1.018,1.215c-0.029,0.076-0.409,0.457-0.486,0.457
			c-0.09,0.229-0.863,1.217-1.076,1.369c-0.03,0.075-0.303,0.38-0.363,0.532c-0.106,0.076-1.077,1.369-1.411,1.826
			c-0.137,0.152-0.456,0.762-0.456,0.762c-0.213,0.151-0.591,0.912-0.622,0.988c-0.029,0.076-0.302,0.762-0.364,0.913
			c-0.089,0.228-0.363,0.913-0.423,1.064c0,0-0.045,0.305,0.078,0.382c0,0-0.211,0.91-0.241,0.987
			c-0.03,0.075,0.001,0.38,0.001,0.38c-0.031,0.075-0.015,0.228,0.03,0.305c-0.03,0.075,0.137,0.229,0.076,0.379
			c0.046,0.076,0.213,0.609,0.291,0.609l0.152,0.381c0.046,0.075,0.184,0.305,0.184,0.305c-0.015,0.228,0.214,0.607,0.229,0.761
			c0.077,0,0.26,0.303,0.26,0.303c-0.06,0.153,0.245,0.153,0.396,0.153h0.228h0.305c0.076,0,0.304,0,0.517-0.153l0.258-0.076
			c0.182-0.074,1.033-0.685,1.139-0.76c0.152,0,0.531-0.381,0.668-0.532c0.03-0.077,0.351-0.305,0.379-0.381
			c0.137-0.153,0.592-0.533,0.699-0.609c0.061-0.15,0.578-0.684,0.637-0.836l0.503-0.305c0,0,0.409-0.456,0.485-0.456l0.562-0.454
			c0.031-0.077,0.228-0.382,0.304-0.382c0.03-0.074,0.683-0.76,0.865-0.837c0.075,0,0.515-0.532,0.623-0.608
			c0,0,0.409-0.456,0.439-0.532c0.106-0.076,1.138-1.141,1.2-1.294c0.349-0.304,1.304-1.368,1.518-1.521
			c0.091-0.229,0.864-1.218,1.031-1.445c0,0,0.395-0.609,0.424-0.684c0.091-0.229,0.47-0.99,0.53-1.141c0,0,0.273-0.305,0.304-0.38
			l0.409-0.457c0.077,0,0.213-0.151,0.213-0.151c0.076,0,0.197-0.304,0.197-0.304s0.501-0.685,0.532-0.762
			c0.029-0.076,0.529-0.761,0.561-0.836c0.06-0.153,0.316-0.609,0.348-0.686l0.288-0.152c0.092-0.229,0.364-0.913,0.471-0.989
			l0.44-0.531c0,0,0.332-0.457,0.363-0.533c0,0,0.137-0.152,0.212-0.152c0.061-0.152,0.411-0.456,0.439-0.533
			c0.077,0,0.305-0.379,0.487-0.456c0.029-0.076,0.424-0.684,0.454-0.761c0.213-0.153,0.684-0.762,0.744-0.91
			c0.287-0.153,1.336-1.446,1.442-1.522c0,0,0.257-0.456,0.393-0.609c0.062-0.151,0.38-0.759,0.486-0.836
			c0.032-0.077,0.577-0.686,0.607-0.762c0,0,0.197-0.304,0.378-0.38c0.031-0.075,0.288-0.533,0.349-0.685l0.138-0.153
			c0.243-0.227,0.91-1.141,1.075-1.368c0.107-0.076,0.503-0.686,0.577-0.686c0.063-0.151,0.516-0.914,0.653-1.063
			c0.03-0.077,0.287-0.531,0.349-0.684c0.213-0.152,0.667-0.914,0.697-0.989l0.272-0.305c0.062-0.152,1.122-1.674,1.456-2.131
			l0.363-0.531c0.032-0.077,0.41-0.457,0.442-0.532c0.106-0.077,0.803-1.065,0.91-1.142l0.028-0.077
			c0.213-0.15,0.592-0.913,0.622-0.989l0.138-0.151c0.062-0.152,0.334-0.456,0.44-0.532c0,0,0.318-0.229,0.349-0.305
			c0.031-0.076,0.485-0.838,0.651-1.063c0.01-0.019,0.038-0.083,0.076-0.168C102.979,65.439,101.958,65.378,100.932,65.327
			 M98.27,69.559c-0.029,0.077-0.591,0.915-0.758,1.143c-0.032,0.076-0.288,0.533-0.288,0.533c-0.031,0.075-0.863,1.217-0.895,1.292
			l-0.335,0.457c-0.061,0.152-0.257,0.457-0.334,0.457c-0.029,0.075-0.394,0.608-0.394,0.608c-0.029,0.076-0.44,0.533-0.471,0.606
			c0,0-0.167,0.229-0.197,0.305c-0.029,0.076-0.727,1.065-0.788,1.217c0,0-0.606,0.761-0.743,0.913
			c-0.029,0.076-1.138,1.522-1.228,1.75l-0.169,0.229c-0.135,0.151-1.138,1.522-1.198,1.674c-0.197,0.304-1.851,2.358-2.094,2.584
			c-0.059,0.154-0.667,0.913-0.804,1.065c0,0-0.439,0.534-0.47,0.609c-0.031,0.076-0.272,0.304-0.272,0.304
			c-0.031,0.077-0.548,0.609-0.578,0.686c-0.183,0.076-0.273,0.305-0.302,0.38c-0.061,0.153-0.592,0.912-0.729,1.065
			c-0.029,0.076-0.562,0.837-0.591,0.914c-0.03,0.074-0.38,0.379-0.439,0.532c-0.032,0.075-0.395,0.607-0.395,0.607
			c-0.137,0.152-0.895,1.294-1.032,1.445c-0.258,0.457-1.835,2.51-1.955,2.813c0,0-0.577,0.685-0.714,0.838
			c-0.136,0.15-1.155,1.368-1.214,1.521c0,0-0.35,0.305-0.38,0.381c-0.03,0.075-0.714,0.837-0.773,0.988l-0.228,0.381
			c-0.35,0.304-1.063,1.141-1.23,1.369c0,0-0.698,0.608-0.805,0.685c-0.06,0.153-1.153,1.368-1.366,1.521
			c-0.06,0.152-0.575,0.686-0.651,0.686c-0.138,0.15-0.852,0.606-0.852,0.606h-0.305H71.99c-0.076,0-0.272-0.074-0.272-0.074
			s-0.184-0.306-0.23-0.382c-0.015-0.15-0.244-0.532-0.26-0.684c-0.046-0.076-0.108-0.685-0.23-0.762
			c-0.076,0-0.09-0.151-0.183-0.303c0.029-0.078,0.333-0.836,0.394-0.988c0.06-0.152,0.454-1.142,0.604-1.521
			c0.212-0.152,0.501-0.685,0.562-0.838c0,0,0.47-0.608,0.575-0.684c0.092-0.229,0.591-0.913,0.653-1.064
			c0.029-0.077,0.227-0.382,0.227-0.382c0.167-0.229,1.184-1.445,1.246-1.597c0,0,0.333-0.458,0.364-0.532h0.152
			c0.028-0.076,0.363-0.533,0.393-0.609c0.106-0.075,0.667-0.911,0.728-1.063l0.334-0.457c0.03-0.076,0.546-0.609,0.546-0.609
			c0.03-0.075,0.227-0.379,0.258-0.456c0.105-0.076,0.516-0.532,0.575-0.685l0.12-0.305c0.032-0.075,0.472-0.609,0.502-0.685
			c0.138-0.152,0.549-0.608,0.549-0.608c0.058-0.153,0.574-0.686,0.666-0.912c0.104-0.077,0.545-0.609,0.576-0.686
			c0,0,0.409-0.456,0.439-0.533h0.152c0.031-0.076,0.228-0.379,0.334-0.456c0.03-0.076,0.85-0.609,0.926-0.609
			c0.03-0.074,0.062-0.151,0.121-0.305c0.184-0.075,0.819-0.91,0.88-1.063c0,0,0.214-0.152,0.243-0.228c0,0,0.196-0.305,0.227-0.381
			l0.261-0.076c0,0,0.121-0.305,0.257-0.456l0.289-0.153c0.136-0.15,0.44-0.532,0.515-0.532c0.032-0.076,0.592-0.532,0.776-0.609
			c0,0,0.622-0.607,0.728-0.684c0,0,0.244-0.229,0.274-0.305c0.106-0.075,0.728-0.685,0.834-0.761
			c0.137-0.152,1.048-0.912,1.154-0.989c0.031-0.076,0.606-0.761,0.638-0.836c0.075,0,0.454-0.381,0.454-0.381
			c0.563-0.456,1.914-1.75,1.943-1.826c0,0,0.472-0.606,0.501-0.682c0.107-0.077,0.67-0.533,0.729-0.685
			c0.104-0.077,0.456-0.382,0.456-0.382c0.105-0.075,0.987-0.76,1.153-0.989c0.077,0,0.533-0.38,0.563-0.456l0.167-0.228
			c0.075,0,0.349-0.304,0.484-0.457c0.107-0.076,0.853-0.609,0.956-0.687c0.032-0.074,0.199-0.302,0.274-0.302
			c0.061-0.153,0.198-0.306,0.351-0.306c0,0,0.243-0.228,0.394-0.228h0.077C98.391,69.256,98.299,69.483,98.27,69.559"/>
		<path fill="#FFFFFF" d="M85.687,63.369c0.156-0.293,0.983-2.5,1.158-2.786c-2.114,1.008-14.392,6.386-14.549,6.457l-0.388,0.356
			h-0.082c-0.167,0-0.447-0.356-0.447-0.356c-0.083,0-0.099-0.18-0.029-0.356l0.034-0.091c0.036-0.091,0.104-0.271,0.104-0.271
			c0.035-0.087,0.339-0.445,0.407-0.624c0.035-0.088,0.344-0.892,0.461-0.982c0.034-0.089,0.457-0.537,0.526-0.718l0.035-0.088
			c0.035-0.088,0.323-0.624,0.323-0.624c0.154-0.18,0.408-0.627,0.442-0.717c0.07-0.179,0.599-1.341,0.704-1.607
			c0,0,0.269-0.27,0.305-0.358c0.116-0.09,0.407-0.626,0.442-0.715c0.082,0,0.305-0.357,0.608-0.716l0.033-0.088
			c0.036-0.091,0.491-0.628,0.491-0.628l0.035-0.089c0.035-0.089,0.324-0.625,0.324-0.625c0.102-0.268-0.305,0.479-0.099-0.056
			c0,0,0.324-0.626,0.427-0.895c0.104-0.269,0.26-0.895,0.26-0.895c0.104-0.268,0.331-1.072,0.433-1.342
			c-0.049-0.089-0.01-0.624,0.059-0.804c-0.25,0-0.278-0.355-0.362-0.355h-0.92c0,0,0.068,0.267-0.217,0.355
			c-0.167,0-1.862,0.715-2.229,0.804c-0.119,0.092-0.875,0.536-0.991,0.628c-0.034,0.089-0.756,0.446-0.908,0.625
			c-0.201,0.089-0.756,0.448-0.756,0.448c-0.672,0.447-3.463,2.501-4.17,3.037c0.035-0.089,0.068-0.176,0.068-0.176
			s0.595-0.897,0.664-1.074l0.374-0.536c0.069-0.18,0.491-0.627,0.526-0.716c0,0,0.269-0.269,0.338-0.447
			c0.034-0.088,0.761-0.894,0.795-0.984c0.118-0.088,0.526-0.713,0.56-0.805c0.035-0.089,0.422-0.444,0.491-0.624
			c0.083,0,0.471-0.357,0.471-0.357c0.069-0.178,0.354-0.268,0.388-0.358c0.069-0.178,0.711-0.982,0.814-1.251l0.187-0.269
			c0.237-0.178,0.948-1.162,1.251-1.52c0,0,0.139-0.356,0.305-0.356c0.069-0.179,0.442-0.715,0.442-0.715
			c0.065-0.05,0.336-0.372,0.573-0.666c-0.486-0.277-0.881-0.702-1.146-1.216c-0.459,0.541-0.863,1.021-0.986,1.167
			c-0.153,0.178-0.967,1.431-1.168,1.52c-0.035,0.089-0.879,0.984-0.913,1.073c-0.201,0.089-0.457,0.536-0.492,0.625
			c-0.082,0-0.609,0.715-0.642,0.804c-0.07,0.181-0.493,0.627-0.56,0.805c-0.305,0.358-1.066,1.251-1.101,1.34
			c-0.185,0.27-1.826,2.148-2.011,2.416c-0.034,0.089-0.389,0.356-0.458,0.536l-0.456,0.536c-0.139,0.357-1.935,2.861-2.24,3.219
			l-0.185,0.267c-0.036,0.089-0.257,0.448-0.34,0.448l-0.457,0.536c-0.068,0.178-0.373,0.535-0.373,0.535
			c-0.339,0.447-1.88,2.503-2.253,3.039c-0.236,0.179-0.763,0.896-0.796,0.984c-0.104,0.268-1.03,1.16-1.066,1.252
			c-0.15,0.178-1.438,1.788-1.776,2.233c0,0-0.138,0.36-0.375,0.536c-0.067,0.18-0.799,1.431-0.951,1.609
			c-0.305,0.359-0.933,1.343-1.002,1.521c-0.118,0.09-0.491,0.626-0.644,0.805c-0.523,0.714-10.784,17.057-11.227,17.773
			c-0.151,0.178-0.56,0.805-0.795,0.981c-0.27,0.27-1.472,1.876-1.694,2.236c-0.152,0.177-0.747,1.072-1.016,1.341l-0.036,0.088
			l-0.034,0.091c0.166,0,0.23,0.27,0.314,0.27c-0.034,0.088,0.182,0.176,0.348,0.176c0,0,0.784-0.088,0.986-0.176
			c0.083,0,0.201-0.092,0.486-0.182l0.27-0.267c0,0,0.338-0.447,0.407-0.627c0.035-0.089,0.324-0.625,0.358-0.714
			c0.27-0.269,1.037-1.609,1.307-1.877c0.035-0.09,0.672-0.448,0.79-0.536c0.035-0.091,0.324-0.627,0.393-0.805
			c0.035-0.09,0.305-0.359,0.338-0.448l0.271-0.269c0,0,0.22-0.357,0.288-0.535c0,0,0.491-0.627,0.526-0.717
			c0.201-0.088,7.938-13.124,7.938-13.124c0.305-0.357,0.697-1.161,0.899-1.25c0.034-0.09,0.663-1.073,0.898-1.251
			c0,0,0.171-0.449,0.289-0.537l0.187-0.269c0.118-0.089,0.742-0.626,0.742-0.626l0.034-0.09c0.069-0.179,0.525-0.716,0.594-0.892
			c0,0,0.27-0.271,0.306-0.361c0.102-0.267,0.696-1.16,0.696-1.16c0.069-0.18,0.496-1.072,0.531-1.161c0,0,0.235-0.179,0.27-0.269
			c0.118-0.09,0.692-0.715,0.692-0.715c0.117-0.091,0.408-0.627,0.408-0.627c0.034-0.089,0.371-0.536,0.573-0.625
			c0.07-0.181,1.017-1.34,1.12-1.61h0.167c0.073-0.084,0.223-0.272,0.385-0.465c1.878-1.553,8.026-6.362,9.689-4.271
			c-0.067,0.111-0.121,0.202-0.133,0.233c-0.034,0.09-0.29,0.537-0.407,0.625c-0.22,0.357-1.001,1.52-1.036,1.607
			c-0.069,0.181-0.593,0.896-0.628,0.984c0,0-0.29,0.537-0.324,0.628c-0.271,0.267-0.58,1.073-0.58,1.073l-0.344,0.893
			c-0.104,0.268-0.344,0.896-0.344,0.896c-0.034,0.087-0.138,0.354-0.005,0.443c0.03,0.359,0.455,0.985,0.538,0.985h1.501
			c0.082,0,0.554-0.358,0.804-0.358c0.271-0.268,6.75-2.58,7.138-2.938c0,0,7.34-2.014,7.55-2.231
			C85.163,64.109,85.405,63.898,85.687,63.369 M70.92,57.484l-0.322,0.202c-0.032-0.034-0.051-0.063-0.043-0.089L70.92,57.484z"/>
		<path fill="#FFFFFF" d="M158.953,38.69c0,0-0.128-0.055-0.314-0.131c-0.094-0.038-0.202-0.082-0.317-0.127
			c-0.104-0.04-0.214-0.081-0.322-0.12c-0.11-0.04-0.222-0.078-0.323-0.111c-0.126-0.039-0.24-0.069-0.329-0.085
			c-0.048-0.029-0.166-0.051-0.346-0.083c-0.098-0.018-0.216-0.039-0.348-0.066c-0.106-0.021-0.223-0.047-0.349-0.079l-0.346-0.009
			l-0.347-0.009l-0.346-0.008c0,0-0.146,0.003-0.36,0.008c-0.106,0.003-0.229,0.006-0.361,0.012
			c-0.116,0.003-0.239,0.007-0.363,0.011c-0.121,0.004-0.245,0.01-0.364,0.015c-0.128,0.006-0.25,0.012-0.362,0.019
			c-0.143,0.009-0.266,0.018-0.36,0.028c-0.063,0.006-0.208,0.018-0.393,0.032c-0.116,0.009-0.249,0.019-0.392,0.029
			c-0.127,0.009-0.26,0.02-0.395,0.028c-0.135,0.01-0.268,0.019-0.395,0.029c-0.144,0.01-0.277,0.021-0.396,0.029
			c-0.187,0.015-0.329,0.025-0.395,0.033c-0.095-0.002-0.219-0.002-0.368,0c-0.108,0.002-0.231,0.004-0.365,0.008
			c-0.114,0.003-0.237,0.007-0.366,0.011c-0.119,0.004-0.241,0.008-0.367,0.012c-0.12,0.005-0.242,0.01-0.367,0.015
			c-0.12,0.004-0.243,0.011-0.369,0.016c-0.118,0.004-0.24,0.01-0.362,0.015c-0.121,0.005-0.244,0.01-0.366,0.017
			c-0.123,0.005-0.246,0.01-0.368,0.017c-0.124,0.005-0.248,0.01-0.369,0.015c-0.123,0.006-0.246,0.011-0.369,0.016
			c-0.125,0.005-0.246,0.011-0.367,0.017c-0.126,0.004-0.25,0.01-0.369,0.015c-0.125,0.004-0.249,0.009-0.368,0.015
			c-0.129,0.005-0.252,0.008-0.369,0.012c-0.129,0.005-0.253,0.009-0.368,0.013c-0.136,0.002-0.258,0.005-0.369,0.007
			c-0.147,0.002-0.271,0.002-0.363,0c-0.06,0.007-0.182,0.001-0.338-0.01c-0.099-0.008-0.213-0.018-0.335-0.031
			c-0.108-0.01-0.222-0.022-0.338-0.036c-0.111-0.011-0.227-0.024-0.339-0.038c-0.115-0.013-0.229-0.026-0.337-0.039
			c-0.125-0.013-0.238-0.027-0.34-0.038c-0.147-0.017-0.266-0.028-0.337-0.035c-0.063,0.007-0.197,0.018-0.376,0.032
			c-0.11,0.009-0.239,0.018-0.378,0.029c-0.121,0.008-0.246,0.018-0.377,0.027c-0.125,0.008-0.252,0.019-0.379,0.029
			c-0.129,0.009-0.257,0.019-0.379,0.028c-0.136,0.012-0.265,0.021-0.38,0.031c-0.151,0.012-0.281,0.024-0.376,0.034
			c-0.083,0.01-0.227,0.013-0.399,0.015c-0.125,0.001-0.265,0.002-0.403,0.002c-0.141,0-0.281,0.001-0.406,0.002
			c-0.171,0.001-0.316,0.006-0.397,0.014l-0.347-0.008l-0.348-0.009l-0.347-0.008c0,0-0.145,0.007-0.357,0.019
			c-0.105,0.005-0.229,0.012-0.358,0.021c-0.115,0.007-0.238,0.015-0.361,0.022c-0.123,0.008-0.244,0.017-0.358,0.025
			c-0.135,0.011-0.257,0.022-0.358,0.032c0,0-0.144,0.002-0.364,0.005c-0.105,0.003-0.23,0.005-0.364,0.007
			c-0.115,0.001-0.237,0.004-0.362,0.006c-0.122,0.002-0.246,0.004-0.366,0.007c-0.126,0.004-0.249,0.007-0.366,0.01
			c-0.132,0.003-0.257,0.006-0.364,0.01c-0.176,0.006-0.308,0.012-0.363,0.018c-0.023-0.004-0.147-0.002-0.364,0.005
			c-0.103,0.003-0.225,0.008-0.364,0.014c-0.11,0.005-0.232,0.01-0.365,0.015c-0.113,0.005-0.234,0.011-0.364,0.017
			c-0.115,0.004-0.236,0.011-0.365,0.016c-0.116,0.005-0.237,0.011-0.363,0.017c-0.117,0.005-0.239,0.011-0.365,0.018
			c-0.116,0.005-0.237,0.011-0.363,0.017c-0.119,0.006-0.24,0.011-0.364,0.017c-0.118,0.006-0.239,0.012-0.364,0.017
			c-0.118,0.007-0.24,0.012-0.362,0.019c-0.117,0.007-0.238,0.012-0.362,0.018c-0.119,0.006-0.239,0.012-0.361,0.018
			c-0.119,0.007-0.24,0.012-0.363,0.019c-0.118,0.005-0.24,0.012-0.361,0.018c-0.119,0.005-0.241,0.012-0.363,0.018
			c-0.119,0.005-0.239,0.013-0.362,0.019c-0.121,0.005-0.24,0.012-0.363,0.018c-0.119,0.006-0.24,0.012-0.363,0.019
			c-0.12,0.006-0.24,0.013-0.363,0.019c-0.119,0.006-0.239,0.012-0.363,0.019c-0.12,0.006-0.24,0.012-0.362,0.019
			c-0.12,0.005-0.243,0.012-0.363,0.018c-0.12,0.006-0.241,0.013-0.364,0.019c-0.12,0.006-0.242,0.013-0.364,0.019
			c-0.119,0.006-0.24,0.013-0.363,0.019c-0.12,0.006-0.242,0.013-0.363,0.019c-0.12,0.007-0.242,0.013-0.364,0.02
			c-0.121,0.006-0.242,0.012-0.363,0.019c-0.12,0.006-0.243,0.012-0.364,0.019c-0.121,0.007-0.242,0.013-0.363,0.02
			c-0.123,0.005-0.243,0.012-0.364,0.019c-0.122,0.006-0.243,0.012-0.366,0.02c-0.12,0.006-0.241,0.012-0.364,0.019
			c-0.12,0.006-0.241,0.012-0.364,0.019c-0.121,0.006-0.242,0.012-0.363,0.02c-0.121,0.006-0.242,0.012-0.364,0.019
			c-0.119,0.006-0.24,0.012-0.361,0.019c-0.122,0.006-0.241,0.012-0.363,0.02c-0.12,0.006-0.241,0.013-0.363,0.019
			c-0.121,0.007-0.242,0.012-0.363,0.02c-0.12,0.006-0.241,0.013-0.364,0.019c-0.119,0.006-0.24,0.013-0.363,0.019
			c-0.12,0.006-0.242,0.014-0.363,0.02c-0.121,0.005-0.242,0.013-0.363,0.019c-0.122,0.006-0.244,0.013-0.365,0.019
			c-0.119,0.007-0.242,0.013-0.365,0.02c-0.12,0.005-0.241,0.012-0.362,0.019c-0.122,0.006-0.244,0.014-0.365,0.019
			c-0.121,0.007-0.243,0.014-0.365,0.02c-0.121,0.007-0.243,0.013-0.364,0.02c-0.122,0.006-0.243,0.013-0.364,0.02
			c-0.123,0.006-0.243,0.013-0.365,0.019c-0.121,0.006-0.242,0.014-0.365,0.02c-0.12,0.006-0.242,0.013-0.364,0.019
			c-0.12,0.007-0.242,0.013-0.364,0.02s-0.244,0.014-0.365,0.02c-0.121,0.007-0.245,0.013-0.365,0.02
			c-0.121,0.006-0.244,0.013-0.366,0.02c-0.122,0.006-0.243,0.013-0.365,0.02c-0.123,0.007-0.244,0.014-0.366,0.02
			c-0.122,0.007-0.244,0.014-0.366,0.02c-0.122,0.007-0.245,0.013-0.368,0.02c-0.121,0.007-0.243,0.013-0.364,0.02
			c-0.124,0.008-0.246,0.014-0.367,0.02c-0.123,0.008-0.244,0.014-0.367,0.02c-0.123,0.007-0.245,0.013-0.367,0.02
			c-0.122,0.007-0.245,0.014-0.368,0.02c-0.121,0.007-0.244,0.013-0.366,0.02c-0.124,0.007-0.246,0.014-0.369,0.021
			c-0.122,0.006-0.246,0.012-0.368,0.019c-0.122,0.006-0.245,0.012-0.367,0.02s-0.245,0.013-0.366,0.02
			c-0.124,0.006-0.243,0.013-0.366,0.02c-0.123,0.006-0.244,0.013-0.367,0.02c-0.122,0.006-0.245,0.012-0.366,0.02
			c-0.122,0.006-0.245,0.012-0.366,0.02c-0.123,0.006-0.245,0.013-0.367,0.02c-0.123,0.007-0.244,0.013-0.367,0.02
			s-0.244,0.014-0.365,0.021c-0.123,0.006-0.244,0.014-0.368,0.02c-0.121,0.006-0.244,0.013-0.366,0.02
			c-0.123,0.007-0.245,0.014-0.366,0.02c-0.124,0.006-0.245,0.013-0.365,0.019c-0.124,0.006-0.246,0.014-0.368,0.02
			s-0.245,0.014-0.367,0.02c-0.122,0.006-0.244,0.013-0.365,0.02c-0.124,0.006-0.245,0.014-0.367,0.02
			c-0.123,0.007-0.245,0.014-0.366,0.02c-0.124,0.007-0.245,0.013-0.366,0.021c-0.122,0.007-0.244,0.013-0.368,0.019
			c-0.122,0.008-0.244,0.014-0.365,0.02c-0.123,0.007-0.245,0.015-0.366,0.021c-0.123,0.007-0.245,0.014-0.365,0.02
			c-0.125,0.007-0.246,0.013-0.367,0.02c-0.122,0.007-0.244,0.014-0.366,0.021c-0.124,0.006-0.243,0.013-0.366,0.02
			c-0.122,0.007-0.245,0.014-0.365,0.021c-0.122,0.006-0.245,0.013-0.367,0.02c-0.122,0.006-0.244,0.013-0.365,0.02
			c-0.123,0.006-0.244,0.013-0.365,0.021c-0.123,0.006-0.245,0.012-0.364,0.02c-0.123,0.006-0.246,0.012-0.366,0.02
			c-0.122,0.007-0.244,0.014-0.365,0.021c-0.124,0.006-0.244,0.013-0.365,0.02c-0.122,0.006-0.244,0.014-0.365,0.02
			c-0.122,0.006-0.245,0.014-0.363,0.02c-0.123,0.006-0.247,0.013-0.366,0.021c-0.123,0.006-0.247,0.013-0.367,0.019
			c-0.126,0.007-0.247,0.014-0.367,0.02c-0.125,0.006-0.248,0.014-0.368,0.021c-0.124,0.008-0.247,0.014-0.366,0.02
			c-0.122,0.007-0.246,0.013-0.366,0.021c-0.125,0.007-0.244,0.013-0.363,0.02c-0.125,0.007-0.247,0.014-0.364,0.019
			c-0.125,0.008-0.246,0.015-0.362,0.021c-0.128,0.007-0.249,0.014-0.366,0.02c-0.126,0.007-0.248,0.014-0.366,0.02
			c-0.126,0.008-0.247,0.015-0.361,0.021c-0.13,0.007-0.253,0.013-0.364,0.02c-0.132,0.006-0.253,0.013-0.362,0.02
			c-0.142,0.008-0.264,0.014-0.365,0.02c-0.234,0.012-0.358,0.02-0.358,0.02c-0.114,0-0.238,0.002-0.368,0.005
			c-0.117,0.002-0.24,0.006-0.37,0.011c-0.119,0.004-0.243,0.008-0.368,0.014c-0.122,0.005-0.245,0.011-0.37,0.016
			c-0.122,0.005-0.246,0.013-0.371,0.018c-0.125,0.006-0.247,0.012-0.37,0.018c-0.125,0.005-0.25,0.012-0.371,0.017
			c-0.125,0.006-0.25,0.012-0.37,0.018c-0.13,0.005-0.255,0.01-0.374,0.016c-0.131,0.004-0.255,0.008-0.369,0.011
			c-0.137,0.002-0.262,0.004-0.371,0.003c-0.166-0.001-0.293-0.006-0.368-0.02c-0.045,0.006-0.177,0.014-0.367,0.024
			c-0.106,0.005-0.229,0.011-0.366,0.019c-0.114,0.004-0.24,0.01-0.37,0.016c-0.118,0.005-0.241,0.01-0.369,0.015
			c-0.12,0.005-0.245,0.011-0.369,0.015c-0.123,0.004-0.247,0.008-0.371,0.014c-0.123,0.003-0.248,0.007-0.37,0.011
			c-0.127,0.004-0.25,0.007-0.373,0.011c-0.126,0.003-0.254,0.006-0.372,0.008c-0.13,0.002-0.254,0.004-0.371,0.006
			c-0.136,0.001-0.26,0.001-0.371,0c-0.153-0.001-0.28-0.005-0.369-0.012c0,0-0.146,0.016-0.357,0.035
			c-0.107,0.01-0.229,0.021-0.358,0.032c-0.119,0.01-0.242,0.021-0.361,0.029c-0.127,0.008-0.25,0.017-0.362,0.022
			c-0.15,0.006-0.277,0.009-0.357,0.002l-0.314,0.011l-0.315,0.01l-0.314,0.011c-0.07-0.004-0.199-0.013-0.364-0.021
			c-0.108-0.006-0.232-0.013-0.363-0.02c-0.118-0.008-0.24-0.014-0.365-0.02c-0.123-0.007-0.246-0.014-0.368-0.019
			c-0.125-0.007-0.25-0.014-0.365-0.02c-0.134-0.007-0.258-0.013-0.365-0.019c-0.219-0.011-0.362-0.018-0.362-0.018l-0.286,0.029
			c-0.084,0.01-0.203,0.017-0.343,0.023c-0.104,0.006-0.221,0.01-0.346,0.015c-0.11,0.003-0.227,0.007-0.347,0.011
			c-0.112,0.002-0.229,0.005-0.346,0.009c-0.116,0.002-0.232,0.006-0.348,0.009c-0.118,0.002-0.235,0.005-0.348,0.008
			c-0.121,0.003-0.237,0.007-0.347,0.011c-0.125,0.004-0.243,0.008-0.348,0.013c-0.14,0.007-0.257,0.014-0.343,0.024
			c0,0-0.139-0.002-0.33-0.007c-0.101-0.002-0.216-0.004-0.332-0.004c-0.113-0.001-0.229-0.001-0.333,0
			c-0.138,0.002-0.257,0.006-0.329,0.014c-0.094,0.009-0.216,0.02-0.359,0.03c-0.108,0.008-0.229,0.017-0.358,0.025
			c-0.114,0.007-0.233,0.015-0.36,0.021c-0.116,0.006-0.237,0.013-0.359,0.02c-0.12,0.006-0.24,0.013-0.361,0.019
			c-0.122,0.005-0.243,0.011-0.362,0.018c-0.124,0.005-0.244,0.011-0.362,0.018c-0.125,0.005-0.248,0.011-0.363,0.016
			c-0.129,0.005-0.25,0.011-0.364,0.016c-0.135,0.006-0.259,0.011-0.362,0.016c-0.222,0.009-0.358,0.014-0.358,0.014
			c-0.081,0.008-0.212,0.021-0.376,0.036c-0.111,0.01-0.238,0.021-0.375,0.033c-0.119,0.01-0.246,0.021-0.378,0.032
			c-0.122,0.011-0.249,0.021-0.378,0.033c-0.125,0.01-0.251,0.021-0.38,0.032c-0.126,0.01-0.254,0.022-0.378,0.032
			c-0.13,0.011-0.258,0.021-0.381,0.031c-0.133,0.013-0.261,0.023-0.378,0.033c-0.141,0.011-0.268,0.023-0.378,0.032
			c-0.19,0.016-0.326,0.029-0.377,0.034c0,0-0.151-0.01-0.344-0.021c-0.109-0.006-0.231-0.011-0.348-0.014
			c-0.135-0.002-0.263-0.001-0.346,0.008c-0.071-0.006-0.21-0.011-0.392-0.015c-0.116-0.003-0.248-0.006-0.39-0.008
			c-0.125-0.003-0.258-0.006-0.392-0.008c-0.131-0.002-0.263-0.004-0.394-0.006c-0.135-0.001-0.268-0.003-0.393-0.004
			c-0.144-0.003-0.277-0.005-0.392-0.006c-0.235-0.002-0.389-0.004-0.389-0.004c-0.075-0.005-0.203-0.005-0.362-0.001
			c-0.108,0.002-0.232,0.006-0.361,0.013c-0.117,0.004-0.24,0.01-0.362,0.017c-0.124,0.006-0.247,0.012-0.365,0.02
			c-0.132,0.007-0.257,0.014-0.365,0.021c-0.216,0.013-0.361,0.023-0.361,0.023c-0.066,0.006-0.209,0.014-0.392,0.02
			c-0.116,0.003-0.25,0.006-0.392,0.008c-0.126,0.002-0.259,0.003-0.394,0.003c-0.134,0-0.267-0.002-0.396-0.004
			c-0.14-0.002-0.275-0.007-0.397-0.013c-0.16-0.009-0.296-0.021-0.388-0.038c-0.072,0.007-0.2,0.014-0.371,0.022
			c-0.108,0.004-0.234,0.008-0.373,0.014c-0.115,0.003-0.239,0.006-0.37,0.009c-0.119,0.004-0.244,0.006-0.373,0.01
			c-0.121,0.003-0.246,0.006-0.374,0.008c-0.121,0.003-0.245,0.007-0.371,0.009c-0.123,0.004-0.249,0.006-0.375,0.009
			c-0.125,0.002-0.251,0.005-0.377,0.008c-0.097-0.004-0.215-0.008-0.35-0.013c-0.107-0.005-0.226-0.009-0.351-0.014
			c-0.112-0.003-0.23-0.007-0.35-0.012c-0.115-0.004-0.232-0.007-0.351-0.011c-0.118-0.004-0.236-0.008-0.353-0.012
			c-0.121-0.003-0.239-0.007-0.354-0.011c-0.122-0.004-0.24-0.008-0.352-0.01c-0.128-0.004-0.247-0.007-0.354-0.009
			c-0.141-0.004-0.26-0.007-0.349-0.008c0,0-0.186,0.035-0.401,0.042c-0.132,0.005-0.276,0-0.397-0.029
			c-0.057,0.01-0.196,0.025-0.384,0.042c-0.114,0.01-0.246,0.021-0.385,0.032c-0.125,0.009-0.257,0.019-0.388,0.028
			c-0.132,0.009-0.263,0.018-0.39,0.025c-0.14,0.009-0.272,0.015-0.389,0.022c-0.184,0.008-0.326,0.012-0.388,0.009
			c-0.1-0.006-0.228-0.008-0.373-0.008c-0.116,0-0.241,0.001-0.372,0.003c-0.123,0.002-0.249,0.006-0.375,0.009
			c-0.128,0.005-0.253,0.01-0.374,0.016c-0.136,0.006-0.263,0.013-0.374,0.02c-0.176,0.011-0.311,0.023-0.372,0.035
			c-0.062-0.016-0.221-0.022-0.41-0.026c-0.131-0.004-0.276-0.005-0.412-0.007c-0.166-0.002-0.317-0.003-0.41-0.009
			c-0.057,0-0.18,0.003-0.362,0.009c-0.103,0.003-0.226,0.008-0.366,0.014c-0.11,0.004-0.231,0.009-0.364,0.015
			c-0.113,0.004-0.234,0.009-0.363,0.016c-0.115,0.004-0.237,0.009-0.364,0.015c-0.116,0.005-0.239,0.011-0.364,0.016
			c-0.118,0.005-0.24,0.011-0.365,0.016c-0.12,0.005-0.241,0.011-0.365,0.017c-0.12,0.005-0.241,0.01-0.367,0.017
			c-0.118,0.004-0.24,0.01-0.365,0.017c-0.119,0.004-0.242,0.01-0.366,0.017c-0.12,0.005-0.242,0.01-0.365,0.016
			c-0.12,0.006-0.243,0.011-0.366,0.017c-0.121,0.006-0.243,0.011-0.365,0.017c-0.122,0.005-0.243,0.012-0.367,0.018
			c-0.12,0.005-0.24,0.012-0.363,0.017c-0.119,0.005-0.241,0.011-0.363,0.017c-0.12,0.006-0.241,0.011-0.363,0.018
			c-0.12,0.005-0.241,0.011-0.363,0.017c-0.121,0.006-0.241,0.011-0.364,0.017c-0.121,0.006-0.242,0.011-0.365,0.018
			c-0.12,0.006-0.241,0.012-0.364,0.017c-0.12,0.006-0.242,0.012-0.364,0.017c-0.121,0.006-0.242,0.012-0.365,0.018
			c-0.121,0.005-0.243,0.012-0.365,0.017c-0.122,0.005-0.243,0.012-0.366,0.017c-0.122,0.005-0.243,0.012-0.365,0.018
			c-0.121,0.006-0.243,0.011-0.364,0.018c-0.122,0.005-0.243,0.01-0.365,0.017c-0.122,0.005-0.243,0.011-0.365,0.018l-0.366,0.018
			l-0.364,0.017c-0.122,0.006-0.244,0.013-0.367,0.018c-0.121,0.006-0.244,0.012-0.366,0.018c-0.122,0.006-0.244,0.012-0.367,0.018
			l-0.367,0.018c-0.123,0.006-0.245,0.012-0.368,0.018c-0.122,0.006-0.244,0.012-0.367,0.018c-0.123,0.006-0.245,0.013-0.367,0.019
			c-0.124,0.005-0.246,0.012-0.369,0.018c-0.122,0.005-0.246,0.011-0.367,0.018c-0.123,0.007-0.247,0.012-0.368,0.019
			c-0.124,0.005-0.246,0.011-0.369,0.018c-0.123,0.005-0.246,0.011-0.37,0.018c-0.122,0.006-0.246,0.011-0.368,0.018
			c-0.124,0.006-0.246,0.011-0.368,0.019c-0.125,0.005-0.247,0.011-0.37,0.017c-0.123,0.006-0.246,0.013-0.368,0.018
			c-0.123,0.006-0.247,0.013-0.369,0.018c-0.125,0.006-0.247,0.013-0.369,0.018c-0.124,0.006-0.246,0.013-0.369,0.018
			c-0.124,0.006-0.247,0.013-0.368,0.018c-0.124,0.005-0.247,0.012-0.368,0.018c-0.125,0.005-0.247,0.012-0.369,0.018
			c-0.124,0.006-0.246,0.013-0.368,0.018c-0.123,0.007-0.246,0.013-0.368,0.018c-0.124,0.006-0.246,0.013-0.366,0.019
			c-0.125,0.006-0.246,0.012-0.368,0.018c-0.123,0.006-0.245,0.012-0.365,0.019c-0.124,0.006-0.246,0.012-0.367,0.018
			c-0.123,0.006-0.245,0.011-0.365,0.018c-0.124,0.006-0.246,0.012-0.364,0.019c-0.125,0.006-0.247,0.011-0.364,0.018
			c-0.125,0.005-0.248,0.011-0.366,0.017c-0.126,0.007-0.248,0.013-0.366,0.019c-0.126,0.006-0.248,0.012-0.365,0.017
			c-0.126,0.007-0.247,0.013-0.364,0.019c-0.128,0.006-0.252,0.012-0.366,0.018c-0.132,0.007-0.254,0.013-0.365,0.019
			c-0.139,0.008-0.26,0.013-0.362,0.019c-0.182,0.01-0.305,0.016-0.361,0.019c-0.081-0.005-0.216-0.005-0.375-0.005
			c-0.118,0-0.249,0-0.38-0.001c-0.13-0.001-0.261-0.004-0.38-0.01c-0.153-0.007-0.287-0.021-0.373-0.042
			c-0.073-0.009-0.205-0.017-0.374-0.025c-0.11-0.004-0.238-0.009-0.375-0.012c-0.118-0.004-0.244-0.006-0.375-0.009
			c-0.122-0.003-0.249-0.005-0.375-0.007c-0.125-0.002-0.251-0.003-0.377-0.004c-0.128-0.001-0.254-0.002-0.377-0.002
			c-0.131,0-0.256,0-0.375,0c-0.139,0-0.265,0.001-0.377,0.002c-0.163,0.001-0.292,0.004-0.375,0.009
			c-0.064-0.004-0.184-0.005-0.337-0.004c-0.101,0-0.216,0.001-0.336,0.002c-0.11,0-0.224,0-0.339,0c-0.114,0.001-0.23,0-0.34,0
			c-0.122-0.001-0.237-0.003-0.341-0.006c-0.136-0.004-0.253-0.011-0.336-0.021l-0.121,0.022l-0.122,0.021
			c0.069,0.122-0.229,0.308-0.193,0.37c-0.121,0.022-0.138,0.225-0.07,0.345c0,0,0.138,0.167,0.292,0.331
			c0.118,0.123,0.246,0.246,0.328,0.288c0.035,0.062,0.189,0.099,0.417,0.258l0.431,0.054c0,0,0.135,0.002,0.305,0
			c0.098-0.001,0.207-0.003,0.309-0.008c0.121-0.005,0.233-0.014,0.306-0.026c0.045-0.009,0.179-0.024,0.335-0.04
			c0.11-0.013,0.23-0.025,0.339-0.037c0.155-0.018,0.288-0.033,0.333-0.042c0.075,0.01,0.198,0.014,0.348,0.014
			c0.104-0.001,0.222-0.004,0.349-0.008c0.11-0.003,0.228-0.008,0.349-0.012c0.114-0.005,0.231-0.009,0.348-0.015
			c0.118-0.005,0.237-0.01,0.353-0.013c0.12-0.006,0.238-0.01,0.349-0.014c0.127-0.003,0.246-0.005,0.35-0.006
			c0.151-0.001,0.272,0.003,0.348,0.012c0.046-0.008,0.178,0.026,0.33,0.075c0.104,0.033,0.217,0.072,0.322,0.108
			c0.14,0.048,0.262,0.092,0.318,0.105c0.048-0.008,0.198-0.024,0.376-0.044c0.119-0.014,0.253-0.029,0.377-0.042
			c0.155-0.019,0.293-0.036,0.375-0.052c0.061-0.01,0.201-0.003,0.338,0.005c0.14,0.008,0.278,0.016,0.338,0.006l0.433,0.054
			c0,0,0.183-0.011,0.38-0.027c0.139-0.013,0.283-0.027,0.382-0.045c0,0,0.161,0.004,0.357,0.008
			c0.117,0.002,0.246,0.004,0.363,0.004c0.169,0.001,0.313-0.001,0.356-0.008c0.014,0.007,0.141,0.007,0.363-0.001
			c0.101-0.003,0.221-0.009,0.362-0.015c0.108-0.005,0.229-0.01,0.359-0.017c0.112-0.006,0.233-0.011,0.36-0.019
			c0.115-0.006,0.236-0.012,0.361-0.019c0.116-0.007,0.237-0.013,0.361-0.021c0.117-0.006,0.239-0.014,0.362-0.021
			c0.118-0.006,0.239-0.014,0.363-0.021c0.118-0.006,0.239-0.014,0.362-0.021c0.119-0.007,0.24-0.015,0.364-0.021
			c0.118-0.008,0.24-0.015,0.362-0.021c0.119-0.008,0.24-0.015,0.363-0.022c0.117-0.008,0.239-0.015,0.359-0.022
			c0.119-0.007,0.239-0.015,0.361-0.022c0.118-0.006,0.239-0.015,0.361-0.022c0.12-0.007,0.239-0.015,0.362-0.021
			c0.119-0.008,0.24-0.015,0.361-0.023s0.241-0.015,0.363-0.022c0.12-0.008,0.241-0.015,0.363-0.024
			c0.12-0.007,0.239-0.014,0.361-0.021c0.12-0.008,0.24-0.016,0.36-0.023c0.121-0.007,0.241-0.015,0.362-0.022
			c0.121-0.009,0.242-0.016,0.363-0.023c0.121-0.008,0.242-0.016,0.362-0.024c0.122-0.007,0.243-0.015,0.364-0.022
			c0.123-0.008,0.243-0.016,0.365-0.024l0.366-0.023c0.121-0.008,0.243-0.015,0.365-0.023c0.122-0.008,0.244-0.016,0.366-0.024
			c0.122-0.007,0.245-0.016,0.366-0.023c0.124-0.007,0.246-0.017,0.367-0.023c0.123-0.008,0.245-0.016,0.366-0.023
			c0.124-0.009,0.245-0.016,0.367-0.023s0.244-0.017,0.366-0.025c0.122-0.007,0.244-0.016,0.364-0.023
			c0.123-0.008,0.244-0.016,0.365-0.023c0.122-0.009,0.243-0.016,0.363-0.025c0.122-0.007,0.243-0.015,0.362-0.022
			c0.122-0.008,0.243-0.017,0.362-0.024c0.122-0.009,0.244-0.016,0.363-0.023c0.121-0.009,0.241-0.016,0.361-0.025
			c0.121-0.007,0.24-0.014,0.359-0.023c-0.004,0.014-0.009,0.029-0.009,0.029l0.363-0.006l0.363-0.005c0,0,0.131-0.003,0.363-0.006
			c0.102-0.002,0.224-0.005,0.363-0.007c0.11-0.001,0.231-0.003,0.361-0.005c0.114-0.002,0.235-0.004,0.363-0.006
			c0.116-0.002,0.237-0.004,0.363-0.007c0.117-0.002,0.238-0.003,0.363-0.005c0.119-0.002,0.241-0.004,0.364-0.006
			c0.118-0.001,0.24-0.003,0.362-0.005c0.119-0.003,0.24-0.005,0.362-0.007c0.12-0.001,0.242-0.003,0.364-0.005
			c0.12-0.002,0.242-0.004,0.365-0.005c0.12-0.002,0.242-0.005,0.363-0.007c0.123-0.002,0.245-0.003,0.367-0.005
			c0.123-0.002,0.245-0.004,0.367-0.007c0.123-0.001,0.246-0.003,0.369-0.006c0.122-0.002,0.245-0.003,0.364-0.005
			c0.123-0.002,0.245-0.003,0.365-0.006c0.124-0.001,0.246-0.003,0.366-0.005c0.124-0.003,0.246-0.005,0.365-0.006
			c0.125-0.002,0.248-0.004,0.367-0.006c0.125-0.002,0.247-0.003,0.366-0.005c0.126-0.002,0.248-0.005,0.365-0.006
			c0.127-0.002,0.25-0.004,0.364-0.006c0.133-0.002,0.255-0.003,0.368-0.005c0.139-0.002,0.262-0.005,0.364-0.006
			c0.229-0.003,0.36-0.005,0.36-0.005c-0.014-0.014-0.021-0.033-0.034-0.047c0.106-0.002,0.227-0.001,0.349-0.001
			c0.12,0,0.241,0.001,0.351,0c0.146-0.002,0.272-0.007,0.345-0.02c0,0,0.137,0.016,0.279,0.027c0.11,0.008,0.224,0.015,0.277,0.004
			c0.077-0.014,0.194-0.026,0.333-0.038c0.104-0.008,0.219-0.017,0.336-0.023c0.113-0.007,0.228-0.013,0.338-0.018
			c0.122-0.006,0.238-0.012,0.338-0.016c0.199-0.007,0.336-0.011,0.336-0.011c0.074-0.014,0.245-0.038,0.45-0.067
			c0.141-0.02,0.298-0.042,0.451-0.062c0.141-0.003,0.276-0.008,0.402-0.011c0.146-0.004,0.279-0.008,0.403-0.011
			c0.149-0.005,0.283-0.009,0.399-0.013c0.078,0.013,0.211,0.029,0.359,0.044c0.12,0.013,0.249,0.026,0.364,0.037
			c0.202,0.02,0.363,0.034,0.363,0.034c0.051,0.014,0.171,0.014,0.305,0.008c0.1-0.003,0.209-0.01,0.308-0.017
			c0.17-0.012,0.307-0.025,0.307-0.025c0.048-0.008,0.18-0.012,0.334-0.008c0.106,0.003,0.224,0.01,0.333,0.022
			c0.135,0.016,0.257,0.039,0.321,0.072c0.057-0.011,0.194-0.014,0.379-0.015c0.112,0,0.241,0,0.379,0.002
			c0.122,0,0.251,0.002,0.38,0.002c0.126,0.001,0.255,0.002,0.38,0.002c0.133,0.001,0.263,0,0.379-0.001
			c0.043-0.076,0.08-0.154,0.12-0.231c0.118,0,0.239,0,0.362,0c0.12,0,0.24,0.001,0.363,0.002c0.12,0.001,0.241,0.002,0.363,0.004
			c0.122,0.002,0.244,0.003,0.364,0.004c0.123,0.002,0.245,0.003,0.364,0.005c0.125,0.002,0.248,0.003,0.365,0.004
			c0.129,0.002,0.25,0.003,0.363,0.005c0.136,0.002,0.258,0.003,0.362,0.003c0.188,0.001,0.315,0,0.36-0.006
			c0.069,0,0.195-0.001,0.367-0.002c0.105-0.001,0.229-0.001,0.367-0.003c0.113-0.001,0.238-0.002,0.37-0.004
			c0.117-0.001,0.24-0.002,0.369-0.003c0.119-0.001,0.242-0.004,0.369-0.005c0.12-0.002,0.243-0.003,0.37-0.004
			c0.12-0.001,0.244-0.003,0.369-0.003c0.122-0.003,0.245-0.004,0.37-0.006c0.121-0.001,0.243-0.002,0.366-0.005
			c0.123-0.001,0.245-0.003,0.369-0.004c0.123-0.001,0.247-0.003,0.371-0.004c0.123-0.001,0.247-0.003,0.37-0.004
			c0.125-0.002,0.248-0.003,0.372-0.006c0.123-0.002,0.248-0.004,0.37-0.005c0.125-0.001,0.249-0.003,0.372-0.005
			c0.125-0.002,0.249-0.002,0.37-0.005c0.126-0.003,0.249-0.004,0.37-0.006c0.126-0.001,0.251-0.003,0.371-0.005
			c0.128-0.002,0.252-0.004,0.37-0.005c0.13-0.001,0.253-0.004,0.371-0.007c0.132-0.002,0.256-0.003,0.369-0.005
			c0.139-0.003,0.262-0.005,0.366-0.007c0,0,0.15-0.016,0.377-0.034c0.111-0.007,0.238-0.017,0.376-0.024
			c0.12-0.006,0.248-0.012,0.377-0.015c0.126-0.004,0.254-0.006,0.378-0.004c0.132,0.001,0.26,0.006,0.379,0.014
			c0.07-0.007,0.196-0.017,0.364-0.028c0.106-0.007,0.229-0.017,0.364-0.025c0.113-0.007,0.234-0.015,0.363-0.024
			c0.116-0.007,0.238-0.014,0.363-0.022c0.118-0.007,0.24-0.014,0.365-0.022c0.12-0.007,0.241-0.014,0.363-0.021
			c0.122-0.006,0.243-0.014,0.365-0.021l0.368-0.02c0.123-0.007,0.245-0.014,0.367-0.02c0.123-0.008,0.246-0.014,0.366-0.02
			c0.126-0.007,0.249-0.013,0.368-0.019c0.127-0.007,0.251-0.013,0.369-0.019c0.129-0.007,0.252-0.012,0.365-0.017
			c0.136-0.006,0.258-0.012,0.366-0.016c0.162-0.006,0.287-0.009,0.365-0.009c0.112,0,0.238-0.001,0.377-0.004
			c0.117-0.002,0.243-0.004,0.375-0.007c0.122-0.003,0.246-0.007,0.377-0.011c0.122-0.003,0.249-0.006,0.377-0.011
			c0.123-0.004,0.249-0.009,0.376-0.013c0.124-0.004,0.251-0.009,0.377-0.014c0.127-0.005,0.254-0.01,0.379-0.014
			c0.128-0.006,0.254-0.011,0.38-0.016c0.128-0.005,0.254-0.011,0.378-0.017c0.131-0.005,0.257-0.013,0.38-0.018
			c0.132-0.006,0.258-0.013,0.38-0.019c0.134-0.006,0.26-0.014,0.377-0.02c0.141-0.008,0.268-0.016,0.377-0.022
			c0.17-0.011,0.298-0.02,0.376-0.028c0.073,0.006,0.201,0.008,0.366,0.007c0.107,0,0.231-0.001,0.364-0.003
			c0.117-0.002,0.24-0.004,0.366-0.007c0.119-0.002,0.242-0.004,0.366-0.006c0.123-0.003,0.246-0.006,0.367-0.009
			c0.126-0.003,0.251-0.006,0.368-0.008c0.131-0.002,0.256-0.004,0.368-0.007c0.144-0.002,0.268-0.004,0.366-0.004
			c0.075-0.002,0.196-0.006,0.363-0.012c0.104-0.004,0.227-0.01,0.362-0.015c0.112-0.004,0.233-0.009,0.367-0.015
			c0.112-0.004,0.233-0.009,0.362-0.015c0.115-0.005,0.238-0.01,0.364-0.016c0.116-0.005,0.236-0.01,0.362-0.016
			c0.118-0.004,0.24-0.011,0.363-0.016c0.118-0.004,0.24-0.011,0.365-0.016c0.117-0.006,0.239-0.011,0.363-0.017
			c0.119-0.005,0.241-0.01,0.365-0.016c0.119-0.005,0.24-0.01,0.362-0.016c0.122-0.006,0.242-0.012,0.367-0.016
			c0.118-0.006,0.239-0.011,0.365-0.016c0.119-0.006,0.239-0.011,0.364-0.017c0.119-0.005,0.24-0.011,0.364-0.017
			c0.119-0.004,0.242-0.01,0.364-0.017c0.119-0.004,0.243-0.01,0.366-0.016c0.12-0.006,0.241-0.011,0.363-0.016
			c0.121-0.006,0.243-0.012,0.365-0.017c0.121-0.006,0.243-0.011,0.366-0.017c0.12-0.006,0.24-0.012,0.361-0.017
			c0.119-0.005,0.24-0.012,0.362-0.016c0.119-0.006,0.24-0.012,0.36-0.017c0.12-0.006,0.242-0.011,0.362-0.018
			c0.12-0.005,0.241-0.01,0.362-0.017c0.12-0.004,0.241-0.01,0.363-0.015c0.12-0.005,0.24-0.012,0.361-0.017
			c0.12-0.006,0.242-0.012,0.362-0.017c0.12-0.005,0.242-0.011,0.364-0.017c0.119-0.005,0.24-0.012,0.362-0.018
			c0.12-0.004,0.241-0.01,0.363-0.017c0.12-0.005,0.241-0.01,0.361-0.016c0.12-0.005,0.243-0.011,0.364-0.018
			c0.12-0.005,0.241-0.01,0.362-0.016c0.12-0.007,0.242-0.012,0.364-0.017c0.12-0.006,0.24-0.012,0.363-0.017
			c0.12-0.005,0.242-0.012,0.362-0.017s0.242-0.012,0.364-0.017c0.12-0.005,0.242-0.012,0.363-0.018
			c0.122-0.005,0.242-0.01,0.364-0.016c0.12-0.006,0.242-0.011,0.362-0.017c0.123-0.005,0.244-0.011,0.365-0.018
			c0.121-0.005,0.241-0.01,0.364-0.016c0.121-0.006,0.242-0.012,0.363-0.017c0.122-0.006,0.242-0.012,0.365-0.017
			c0.12-0.006,0.242-0.011,0.362-0.017c0.122-0.006,0.243-0.012,0.366-0.018c0.119-0.005,0.241-0.012,0.364-0.018
			c0.121-0.005,0.241-0.01,0.363-0.017c0.121-0.005,0.242-0.011,0.365-0.017c0.12-0.005,0.243-0.011,0.364-0.017
			c0.12-0.006,0.243-0.011,0.364-0.016c0.121-0.007,0.242-0.012,0.364-0.017c0.121-0.006,0.244-0.012,0.365-0.018
			c0.121-0.004,0.241-0.01,0.363-0.016c0.12-0.005,0.241-0.012,0.363-0.017c0.121-0.005,0.241-0.013,0.363-0.018
			c0.121-0.005,0.242-0.011,0.362-0.017c0.122-0.006,0.244-0.011,0.364-0.017c0.122-0.006,0.242-0.011,0.364-0.018
			c0.12-0.005,0.243-0.01,0.363-0.016c0.122-0.006,0.242-0.011,0.364-0.017c0.122-0.006,0.243-0.012,0.363-0.018
			c0.122-0.005,0.243-0.012,0.367-0.017c0.119-0.005,0.24-0.011,0.362-0.017c0.122-0.006,0.242-0.013,0.365-0.018
			c0.12-0.005,0.242-0.01,0.363-0.018c0.122-0.005,0.244-0.01,0.365-0.016c0.121-0.005,0.243-0.011,0.364-0.018
			c0.123-0.005,0.243-0.01,0.365-0.016c0.122-0.006,0.244-0.012,0.365-0.017c0.122-0.006,0.243-0.012,0.364-0.018
			c0.123-0.007,0.244-0.012,0.367-0.017c0.12-0.006,0.241-0.012,0.362-0.018c0.123-0.005,0.244-0.012,0.366-0.018l0.365-0.018
			c0.121-0.005,0.244-0.01,0.365-0.017c0.12-0.005,0.244-0.011,0.365-0.018c0.121-0.006,0.243-0.011,0.364-0.016
			c0.124-0.007,0.245-0.012,0.366-0.017c0.123-0.006,0.244-0.012,0.366-0.018s0.243-0.011,0.367-0.017
			c0.12-0.006,0.241-0.011,0.365-0.017c0.122-0.005,0.244-0.013,0.365-0.018c0.122-0.005,0.246-0.012,0.366-0.017l0.367-0.018
			c0.123-0.005,0.245-0.011,0.368-0.017l0.366-0.018c0.122-0.006,0.244-0.011,0.365-0.018c0.122-0.005,0.246-0.011,0.368-0.017
			c0.122-0.006,0.244-0.012,0.366-0.017c0.124-0.006,0.245-0.012,0.368-0.017c0.122-0.007,0.244-0.013,0.367-0.018
			c0.122-0.005,0.245-0.012,0.366-0.017c0.123-0.005,0.246-0.011,0.368-0.017c0.121-0.006,0.242-0.012,0.365-0.017
			c0.123-0.006,0.244-0.011,0.367-0.018l0.367-0.018c0.121-0.006,0.244-0.011,0.366-0.018c0.122-0.005,0.245-0.011,0.366-0.016
			c0.123-0.006,0.244-0.012,0.367-0.017c0.123-0.007,0.244-0.012,0.366-0.018l0.367-0.018c0.122-0.007,0.245-0.012,0.367-0.017
			c0.122-0.006,0.245-0.012,0.366-0.018c0.123-0.006,0.244-0.012,0.367-0.018c0.123-0.005,0.245-0.01,0.367-0.017l0.367-0.017
			c0.122-0.006,0.244-0.011,0.366-0.018c0.123-0.005,0.245-0.01,0.366-0.017c0.124-0.005,0.246-0.011,0.367-0.017
			c0.123-0.007,0.245-0.012,0.367-0.017c0.122-0.006,0.245-0.012,0.368-0.018c0.121-0.007,0.244-0.012,0.366-0.018
			c0.124-0.005,0.244-0.012,0.366-0.017c0.123-0.005,0.245-0.012,0.368-0.018c0.122-0.005,0.244-0.012,0.366-0.018
			c0.122-0.005,0.246-0.011,0.367-0.017c0.122-0.005,0.245-0.011,0.366-0.018c0.124-0.006,0.246-0.011,0.367-0.018
			c0.122-0.005,0.245-0.011,0.368-0.016c0.121-0.006,0.243-0.012,0.366-0.018l0.367-0.018c0.123-0.006,0.243-0.011,0.365-0.017
			c0.124-0.006,0.246-0.012,0.366-0.018c0.124-0.005,0.246-0.012,0.369-0.018c0.121-0.005,0.243-0.012,0.366-0.017
			c0.122-0.005,0.245-0.013,0.366-0.018c0.122-0.006,0.245-0.011,0.366-0.018c0.124-0.005,0.245-0.011,0.367-0.017
			s0.244-0.012,0.367-0.019c0.121-0.005,0.243-0.011,0.365-0.018c0.123-0.005,0.246-0.01,0.367-0.016
			c0.122-0.006,0.245-0.012,0.365-0.018c0.124-0.006,0.246-0.012,0.367-0.018c0.122-0.006,0.243-0.012,0.365-0.017
			c0.123-0.005,0.245-0.012,0.366-0.017c0.123-0.006,0.245-0.013,0.366-0.018c0.122-0.006,0.245-0.012,0.366-0.017
			c0.123-0.006,0.245-0.011,0.366-0.018c0.123-0.005,0.244-0.011,0.364-0.018c0.124-0.005,0.245-0.01,0.366-0.017
			c0.123-0.005,0.244-0.011,0.366-0.016c0.122-0.007,0.243-0.013,0.365-0.018c0.121-0.006,0.244-0.012,0.365-0.017
			c0.122-0.007,0.244-0.013,0.364-0.018c0.123-0.007,0.245-0.012,0.364-0.017c0.123-0.006,0.245-0.012,0.366-0.018
			c0.121-0.006,0.243-0.012,0.363-0.018c0.124-0.005,0.245-0.012,0.365-0.017c0.124-0.005,0.247-0.01,0.368-0.017
			c0.124-0.006,0.246-0.012,0.368-0.018c0.122-0.005,0.245-0.011,0.367-0.018c0.122-0.005,0.245-0.011,0.365-0.018
			c0.124-0.005,0.246-0.011,0.366-0.016c0.124-0.007,0.245-0.012,0.364-0.017c0.125-0.007,0.247-0.012,0.367-0.018
			c0.122-0.007,0.243-0.012,0.363-0.018c0.123-0.005,0.244-0.011,0.363-0.017c0.123-0.005,0.245-0.012,0.363-0.018
			c0.124-0.005,0.245-0.012,0.364-0.017c0.124-0.005,0.247-0.011,0.364-0.017c0.125-0.005,0.246-0.011,0.363-0.018
			c0.128-0.005,0.248-0.011,0.362-0.017c0.129-0.006,0.251-0.011,0.366-0.016c0.13-0.008,0.251-0.013,0.361-0.018
			c0.136-0.008,0.257-0.013,0.361-0.018c0.166-0.008,0.286-0.014,0.359-0.017c0.092,0,0.214-0.002,0.356-0.004
			c0.109-0.004,0.229-0.007,0.359-0.01c0.113-0.003,0.233-0.005,0.36-0.01c0.116-0.002,0.235-0.005,0.358-0.008
			c0.118-0.003,0.239-0.005,0.359-0.008c0.12-0.004,0.241-0.006,0.36-0.007c0.121-0.002,0.243-0.004,0.36-0.006
			c0.126-0.001,0.245-0.002,0.359-0.002c0.13,0,0.25,0.001,0.36,0.003c0.138,0.002,0.258,0.007,0.356,0.015
			c0.087,0.002,0.211,0.003,0.362,0.003c0.108,0,0.229,0,0.365-0.001c0.113-0.001,0.235-0.002,0.363-0.002
			c0.116-0.001,0.237-0.003,0.365-0.005c0.117-0.001,0.238-0.003,0.364-0.005c0.118-0.001,0.24-0.003,0.364-0.005
			c0.119-0.002,0.24-0.004,0.364-0.006c0.12-0.003,0.242-0.005,0.365-0.008c0.119-0.001,0.241-0.004,0.363-0.007
			c0.12-0.001,0.241-0.004,0.363-0.006c0.122-0.004,0.242-0.006,0.365-0.008c0.123-0.003,0.245-0.005,0.365-0.007
			c0.125-0.003,0.247-0.007,0.369-0.009s0.245-0.005,0.367-0.008c0.124-0.003,0.245-0.007,0.365-0.009
			c0.125-0.003,0.248-0.006,0.366-0.008c0.125-0.003,0.246-0.008,0.365-0.011c0.126-0.003,0.249-0.007,0.367-0.009
			c0.126-0.004,0.248-0.008,0.365-0.011c0.13-0.004,0.251-0.008,0.364-0.012c0.135-0.005,0.257-0.009,0.366-0.013
			c0.146-0.005,0.267-0.011,0.361-0.016c0.084,0,0.211-0.002,0.37-0.006c0.109-0.002,0.232-0.005,0.366-0.011
			c0.117-0.003,0.241-0.006,0.37-0.01c0.118-0.003,0.243-0.007,0.371-0.011c0.12-0.003,0.243-0.007,0.369-0.01
			c0.122-0.004,0.246-0.008,0.371-0.011c0.123-0.003,0.247-0.007,0.373-0.01c0.125-0.004,0.25-0.007,0.373-0.01
			c0.127-0.003,0.251-0.005,0.374-0.008c0.125-0.004,0.25-0.006,0.371-0.008c0.129-0.002,0.252-0.004,0.371-0.006
			c0.132-0.001,0.257-0.002,0.371-0.002c0.14,0,0.265,0.001,0.368,0.003l0.285-0.03l0.281-0.029
			c-0.094-0.056,0.019-0.134,0.146-0.206c0.133-0.075,0.28-0.142,0.233-0.172C159.145,39.009,159.142,38.807,158.953,38.69"/>
		<path fill="#FFFFFF" d="M67.796,17.859h-0.103l-0.142-0.087c-0.103,0-0.266,0.087-0.266,0.087h-0.41
			c-0.329,0.179-1.004,0.267-1.066,0.355c0,0-0.66,0.356-0.988,0.535c-0.104,0-0.761,0.353-0.862,0.353
			c-0.063,0.09-1.402,0.978-1.855,1.333c-0.103,0-0.493,0.265-0.659,0.354c-0.125,0.177-0.805,0.71-1.072,0.799
			c0,0-0.988,0.531-1.111,0.71c-0.267,0.086-1.486,1.241-1.651,1.332c-1.135,0.885-5.796,4.613-6.93,5.501
			c0,0-0.453,0.354-0.556,0.354c-0.063,0.089-0.681,0.532-0.744,0.623c-0.062,0.087-0.828,0.887-1.156,1.063
			c-0.062,0.089-1.321,1.154-1.797,1.687c-0.062,0.088-1.095,0.976-1.384,1.242c-0.577,0.532-2.953,2.751-3.305,3.106
			c-0.267,0.089-1.61,1.421-1.837,1.598c-0.187,0.267-2.251,2.042-2.478,2.219c-0.062,0.09-0.414,0.444-0.476,0.534
			c-0.329,0.176-1.61,1.418-1.939,1.597c-0.062,0.088-0.375,0.532-0.578,0.532c-0.249,0.355-0.891,0.977-0.952,1.064
			c-0.228,0.178-1.487,1.243-1.612,1.421c-0.062,0.087-0.929,0.887-1.054,1.065c-0.063,0.088-0.703,0.709-0.765,0.798
			c-0.392,0.266-1.446,1.33-1.838,1.597c-0.062,0.09-0.618,0.445-0.742,0.621c-0.289,0.268-2.188,1.954-2.376,2.221
			c-0.061,0.088-0.764,0.797-0.827,0.886c0,0-0.29,0.268-0.392,0.268l-0.227,0.177H23.59c-0.521,1.202-1.419,2.214-2.751,2.844
			c-0.076,0.099-0.13,0.173-0.13,0.173c-0.106,0.037-0.3,0.172-0.498,0.327c0.95,0.155,1.886,0.339,2.82,0.525
			c0.138-0.127,0.32-0.269,0.474-0.319c0.063-0.09,0.414-0.443,0.58-0.533c0.164-0.089,1.11-0.71,1.11-0.71
			c0.064-0.09,0.54-0.621,0.601-0.709c0.352-0.355,1.531-1.598,1.531-1.598c0.329-0.177,0.97-0.8,1.237-0.889
			c0.062-0.088,1.173-0.798,1.4-0.976c0,0,0.969-0.798,1.093-0.976c0.125-0.178,0.682-0.531,0.682-0.531
			c0.431-0.18,2.021-1.422,2.247-1.599c0.39-0.267,2.307-1.687,2.598-1.954c0.102,0,0.351-0.354,0.351-0.354
			c0.329-0.178,1.134-0.887,1.259-1.064c0.204,0,1.321-1.154,1.651-1.333c0,0,0.681-0.532,0.805-0.71c0,0,0.351-0.354,0.414-0.444
			c0.165-0.087,1.197-0.977,1.26-1.063c0,0,0.515-0.445,0.577-0.533c0,0,0.289-0.266,0.353-0.356
			c0.124-0.177,0.968-0.798,1.031-0.887c0,0,0.392-0.267,0.455-0.355c0,0,0.412-0.443,0.537-0.621c0,0,0.596-0.266,0.657-0.355
			l0.29-0.266c0.164-0.089,0.783-0.534,0.907-0.709c0.432-0.179,2.412-1.688,2.763-2.042l0.931-0.888
			c0.204,0,0.783-0.532,0.845-0.621c0.062-0.088,1.032-0.886,1.361-1.064c0.125-0.178,0.641-0.62,0.805-0.71
			c0.125-0.178,1.673-1.509,1.837-1.598c0.187-0.266,1.259-1.064,1.383-1.242c0.064-0.089,0.499-0.71,0.602-0.71
			c0.125-0.178,0.577-0.532,0.577-0.532l0.682-0.534c0.062-0.088,0.414-0.443,0.477-0.531c0.062-0.089,1.53-1.598,1.86-1.775
			l0.453-0.355c0.186-0.266,1.054-1.065,1.179-1.242c0.124-0.178,0.6-0.711,0.662-0.8c0,0,0.33-0.178,0.454-0.354
			c0.063-0.09,1.055-1.066,1.18-1.243c0.391-0.267,0.994-0.978,1.116-1.154c0,0,0.499-0.711,0.686-0.977
			c0.249-0.356,0.686-0.976,0.686-0.976C67.728,18.392,67.876,18.038,67.796,17.859 M60.148,25.405
			c-0.227,0.177-0.726,0.888-0.788,0.975c-0.125,0.179-1.258,1.066-1.445,1.332c-0.227,0.177-1.713,1.421-1.713,1.421
			c-0.063,0.088-0.125,0.177-0.125,0.177c-0.288,0.266-1.445,1.332-1.734,1.597c0,0-0.742,0.622-0.805,0.711
			c-0.125,0.177-2.519,2.129-2.768,2.484c0,0-1.299,0.977-1.462,1.065c-0.063,0.089-0.806,0.71-0.868,0.798
			c-0.329,0.178-1.753,1.332-1.98,1.51l-0.557,0.356c-0.555,0.354-1.938,1.598-2.391,1.951c0,0-0.868,0.799-1.361,1.065
			l-0.375,0.533c-0.268,0.088-0.845,0.62-0.907,0.709c-0.127,0.177-0.97,0.8-1.032,0.887c-0.126,0.179-0.704,0.711-0.908,0.711
			c-0.062,0.088-0.25,0.355-0.352,0.355c-0.062,0.088-0.665,0.798-0.725,0.887c-0.267,0.089-0.72,0.444-0.783,0.533
			c-0.205,0-1.259,1.064-1.526,1.152c-0.165,0.091-0.743,0.623-0.907,0.71c-0.267,0.09-0.329,0.178-0.329,0.178l-0.268,0.089
			c0.063-0.089,0.125-0.177,0.186-0.267l0.394-0.267c0.062-0.088,0.702-0.709,0.765-0.799c0.289-0.265,1.92-1.863,2.476-2.217
			c0.063-0.088,0.93-0.888,1.159-1.066c0,0,0.373-0.53,0.64-0.62c0.063-0.09,1.219-1.153,1.344-1.332l0.391-0.266
			c0.063-0.089,0.352-0.355,0.414-0.442c0.267-0.09,0.682-0.534,0.682-0.534c0.063-0.089,0.351-0.354,0.351-0.354l0.619-0.446
			c0.164-0.087,0.929-0.887,0.991-0.977l0.476-0.531c0.229-0.178,1.218-1.153,1.509-1.419c0.164-0.09,1.094-0.977,1.526-1.155
			c0,0,0.373-0.532,0.435-0.621l0.68-0.533c0.291-0.267,1.797-1.686,2.026-1.863c0.226-0.178,1.546-1.331,1.773-1.508
			c0,0,0.454-0.356,0.517-0.445c0.063-0.088,0.805-0.71,0.868-0.798c0,0,0.515-0.444,0.577-0.533
			c0.125-0.177,0.352-0.356,0.477-0.532c0,0,0.618-0.444,0.681-0.534c0.063-0.089,0.517-0.443,0.517-0.443
			c0.061-0.09,0.327-0.179,0.453-0.356c0.329-0.177,1.401-0.976,1.401-0.976c0.164-0.089,0.986-0.533,1.481-0.799l0.369-0.087h0.511
			C60.726,24.873,60.212,25.316,60.148,25.405"/>
		<path fill="#FFFFFF" d="M95.834,62.388c-1.312,1.087-6.327,2.852-6.327,2.852l-2.572,1.764c0,0-3.58,0.408,3.584-6.651
			c0,0,4.463-5.313,10.398-11.284c0.583-0.051,2.978-1.547,3.57-2.086c0.342-0.392,0.693-0.777,1.05-1.158
			c-0.872,0.451-1.774,0.907-2.733,1.375c1.136-1.107,2.31-2.221,3.505-3.313c-1.31,0.013-2.625,0.074-3.962,0.266
			c-0.168,0.024-0.314,0.015-0.451-0.013c-7.502,7.29-14.401,15.576-17.792,19.799c-1.4,1.746-1.455,4.425-1.455,4.425
			c0.445,4.071,18.519-6.467,18.519-6.467c0.322,1.873-0.696,4.44-2.73,8.419c0.03,0,0.058-0.004,0.088-0.004
			c0.539-0.001,0.724,0.402,1.131,0.636c2.511-5.077,9.736-11.564,9.736-11.564C110.766,53.407,97.146,61.302,95.834,62.388"/>
		<path fill="#FFFFFF" d="M136.429,17.859h-0.102l-0.143-0.087c-0.103,0-0.266,0.087-0.266,0.087h-0.41
			c-0.329,0.179-1.004,0.267-1.067,0.355c0,0-0.659,0.356-0.987,0.535c-0.104,0-0.761,0.353-0.862,0.353
			c-0.063,0.09-1.401,0.978-1.854,1.333c-0.104,0-0.493,0.265-0.66,0.354c-0.124,0.177-0.805,0.71-1.07,0.799
			c0,0-0.988,0.531-1.111,0.71c-0.268,0.086-1.486,1.241-1.651,1.332c-1.135,0.885-5.795,4.613-6.93,5.501
			c0,0-0.454,0.354-0.557,0.354c-0.063,0.089-0.682,0.532-0.743,0.623c-0.063,0.087-0.827,0.887-1.156,1.063
			c-0.062,0.089-1.321,1.154-1.796,1.687c-0.064,0.088-1.098,0.976-1.385,1.242c-0.578,0.532-2.954,2.751-3.306,3.106
			c-0.267,0.089-1.611,1.421-1.837,1.598c-0.188,0.267-2.251,2.042-2.479,2.219c-0.063,0.09-0.414,0.444-0.477,0.534
			c-0.327,0.176-1.609,1.418-1.939,1.597c-0.062,0.088-0.373,0.532-0.578,0.532c-0.247,0.355-0.89,0.977-0.95,1.064
			c-0.228,0.178-1.486,1.243-1.611,1.421c-0.063,0.087-0.929,0.887-1.054,1.065c-0.063,0.088-0.703,0.709-0.766,0.798
			c-0.393,0.266-1.446,1.33-1.837,1.597c-0.063,0.09-0.619,0.445-0.742,0.621c-0.29,0.268-2.188,1.954-2.378,2.221
			c-0.062,0.088-0.764,0.797-0.826,0.886c0,0-0.29,0.268-0.393,0.268l-0.226,0.177h-0.057c-0.522,1.202-1.42,2.214-2.75,2.844
			c-0.077,0.099-0.132,0.173-0.132,0.173c-0.104,0.037-0.3,0.172-0.498,0.327c0.951,0.155,1.887,0.339,2.821,0.525
			c0.138-0.127,0.319-0.269,0.476-0.319c0.061-0.09,0.413-0.443,0.577-0.533c0.165-0.089,1.112-0.71,1.112-0.71
			c0.063-0.09,0.54-0.621,0.6-0.709c0.354-0.355,1.531-1.598,1.531-1.598c0.33-0.177,0.972-0.8,1.236-0.889
			c0.063-0.088,1.175-0.798,1.402-0.976c0,0,0.97-0.798,1.095-0.976c0.124-0.178,0.679-0.531,0.679-0.531
			c0.433-0.18,2.02-1.422,2.248-1.599c0.393-0.267,2.307-1.687,2.597-1.954c0.104,0,0.353-0.354,0.353-0.354
			c0.328-0.178,1.135-0.887,1.259-1.064c0.203,0,1.321-1.154,1.649-1.333c0,0,0.683-0.532,0.805-0.71c0,0,0.352-0.354,0.414-0.444
			c0.165-0.087,1.199-0.977,1.262-1.063c0,0,0.515-0.445,0.576-0.533c0,0,0.288-0.266,0.353-0.356
			c0.124-0.177,0.968-0.798,1.031-0.887c0,0,0.393-0.267,0.454-0.355c0,0,0.413-0.443,0.537-0.621c0,0,0.596-0.266,0.658-0.355
			l0.29-0.266c0.164-0.089,0.782-0.534,0.907-0.709c0.432-0.179,2.41-1.688,2.763-2.042l0.93-0.888c0.204,0,0.783-0.532,0.845-0.621
			c0.062-0.088,1.032-0.886,1.361-1.064c0.125-0.178,0.641-0.62,0.805-0.71c0.125-0.178,1.673-1.509,1.838-1.598
			c0.186-0.266,1.259-1.064,1.383-1.242c0.062-0.089,0.499-0.71,0.6-0.71c0.126-0.178,0.579-0.532,0.579-0.532l0.681-0.534
			c0.063-0.088,0.414-0.443,0.477-0.531c0.063-0.089,1.53-1.598,1.86-1.775l0.452-0.355c0.187-0.266,1.056-1.065,1.179-1.242
			c0.126-0.178,0.602-0.711,0.663-0.8c0,0,0.329-0.178,0.454-0.354c0.063-0.09,1.055-1.066,1.179-1.243
			c0.392-0.267,0.993-0.978,1.117-1.154c0,0,0.499-0.711,0.687-0.977c0.248-0.356,0.684-0.976,0.684-0.976
			C136.362,18.392,136.51,18.038,136.429,17.859 M128.783,25.405c-0.228,0.177-0.727,0.888-0.788,0.975
			c-0.126,0.179-1.26,1.066-1.446,1.332c-0.228,0.177-1.714,1.421-1.714,1.421c-0.061,0.088-0.123,0.177-0.123,0.177
			c-0.289,0.266-1.446,1.332-1.735,1.597c0,0-0.742,0.622-0.805,0.711c-0.126,0.177-2.519,2.129-2.769,2.484
			c0,0-1.297,0.977-1.463,1.065c-0.063,0.089-0.805,0.71-0.866,0.798c-0.33,0.178-1.754,1.332-1.981,1.51l-0.556,0.356
			c-0.556,0.354-1.938,1.598-2.392,1.951c0,0-0.867,0.799-1.361,1.065l-0.374,0.533c-0.268,0.088-0.845,0.62-0.908,0.709
			c-0.125,0.177-0.969,0.8-1.03,0.887c-0.126,0.179-0.705,0.711-0.908,0.711c-0.062,0.088-0.249,0.355-0.351,0.355
			c-0.064,0.088-0.665,0.798-0.726,0.887c-0.268,0.089-0.72,0.444-0.783,0.533c-0.205,0-1.26,1.064-1.526,1.152
			c-0.167,0.091-0.742,0.623-0.908,0.71c-0.267,0.09-0.327,0.178-0.327,0.178l-0.27,0.089c0.063-0.089,0.125-0.177,0.188-0.267
			l0.393-0.267c0.062-0.088,0.703-0.709,0.764-0.799c0.29-0.265,1.922-1.863,2.479-2.217c0.062-0.088,0.93-0.888,1.158-1.066
			c0,0,0.373-0.53,0.639-0.62c0.063-0.09,1.22-1.153,1.346-1.332l0.39-0.266c0.063-0.089,0.353-0.355,0.414-0.442
			c0.267-0.09,0.682-0.534,0.682-0.534c0.063-0.089,0.351-0.354,0.351-0.354l0.619-0.446c0.164-0.087,0.929-0.887,0.991-0.977
			l0.475-0.531c0.229-0.178,1.22-1.153,1.51-1.419c0.164-0.09,1.095-0.977,1.526-1.155c0,0,0.373-0.532,0.435-0.621l0.681-0.533
			c0.29-0.267,1.797-1.686,2.024-1.863c0.228-0.178,1.547-1.331,1.774-1.508c0,0,0.454-0.356,0.516-0.445
			c0.064-0.088,0.806-0.71,0.869-0.798c0,0,0.516-0.444,0.576-0.533c0.127-0.177,0.353-0.356,0.478-0.532
			c0,0,0.619-0.444,0.682-0.534c0.062-0.089,0.515-0.443,0.515-0.443c0.063-0.09,0.329-0.179,0.454-0.356
			c0.329-0.177,1.402-0.976,1.402-0.976c0.163-0.089,0.985-0.533,1.48-0.799l0.367-0.087h0.512
			C129.359,24.873,128.845,25.316,128.783,25.405"/>
	</g>
</g>
</svg>
