<?xml version="1.0" encoding="utf-8"?>
<!-- Generator: Adobe Illustrator 16.0.0, SVG Export Plug-In . SVG Version: 6.00 Build 0)  -->
<!DOCTYPE svg PUBLIC "-//W3C//DTD SVG 1.1//EN" "http://www.w3.org/Graphics/SVG/1.1/DTD/svg11.dtd">
<svg version="1.1" id="Layer_2" xmlns="http://www.w3.org/2000/svg" xmlns:xlink="http://www.w3.org/1999/xlink" x="0px" y="0px"
	 width="515.875px" height="420.945px" viewBox="0 0 515.875 420.945" enable-background="new 0 0 515.875 420.945"
	 xml:space="preserve">
<g>
	<path fill="#CA4755" d="M71.098,210.735c0-2.272-1.846-4.112-4.113-4.112c-0.211,0-0.422,0.03-0.627,0.064
		c0.375-0.621,0.604-1.341,0.604-2.121c0-2.274-1.84-4.113-4.113-4.113c-2.227,0-4.031,1.774-4.096,3.984
		c-0.076-2.21-1.875-3.984-4.107-3.984c-2.273,0-4.112,1.839-4.112,4.113c0-2.274-1.841-4.113-4.115-4.113
		c-2.266,0-4.112,1.839-4.112,4.113c0-2.274-1.839-4.113-4.113-4.113s-4.113,1.839-4.113,4.113c0,0.78,0.229,1.494,0.604,2.115
		c-0.188-0.023-0.375-0.059-0.568-0.059c-2.272,0-4.113,1.84-4.113,4.112c0,2.274,1.841,4.114,4.113,4.114
		c0.322,0,0.633-0.047,0.925-0.117c-0.572,0.709-0.932,1.602-0.932,2.584c0,2.272,1.841,4.112,4.113,4.112
		c0.417,0,0.814-0.079,1.195-0.192c-0.726,0.738-1.177,1.752-1.177,2.871c0,2.269,1.847,4.112,4.112,4.112
		c0.547,0,1.061-0.11,1.543-0.305c-0.932,0.756-1.543,1.894-1.543,3.185c0,2.271,1.847,4.11,4.119,4.11
		c0.405,0,0.792-0.076,1.167-0.188c-0.722,0.744-1.167,1.746-1.167,2.865c0,2.273,1.841,4.113,4.108,4.113
		c2.273,0,4.119-1.84,4.119-4.113c0-1.119-0.451-2.121-1.166-2.865c0.369,0.111,0.756,0.188,1.166,0.188
		c2.273,0,4.113-1.84,4.113-4.11c0-1.291-0.609-2.429-1.541-3.185c0.48,0.192,0.996,0.305,1.541,0.305
		c2.273,0,4.113-1.846,4.113-4.112c0-1.106-0.439-2.104-1.154-2.842c0.357,0.094,0.721,0.17,1.107,0.17
		c2.273,0,4.113-1.847,4.113-4.113c0-0.982-0.357-1.875-0.932-2.584c0.293,0.07,0.604,0.111,0.926,0.111
		C69.252,214.85,71.098,213.01,71.098,210.735L71.098,210.735z M60.369,205.316c0.012,0.012,0.961,0.996,2.221,0.984
		c0.738-0.017,1.547-0.205,2.197-1.107l0.404,0.217c-0.814,1.125-1.471,1.974-2.484,1.998h-0.059c-1.652,0-2.584-1.806-2.637-1.871
		L60.369,205.316z M59.15,211.756c0.012,0.012,0.961,0.996,2.221,0.984c0.738-0.018,1.547-0.205,2.197-1.107l0.398,0.217
		c-0.809,1.125-1.465,1.969-2.479,2c-0.018,0-0.041,0-0.059,0c-1.658,0-2.578-1.807-2.631-1.871L59.15,211.756z M52.33,205.796
		c0.012,0.013,0.961,0.996,2.221,0.986c0.738-0.018,1.547-0.206,2.197-1.109l0.398,0.218c-0.809,1.125-1.465,1.975-2.479,1.998
		h-0.064c-1.652,0-2.578-1.804-2.631-1.869L52.33,205.796z M52.33,211.756c0.012,0.012,0.961,0.996,2.221,0.984
		c0.738-0.018,1.547-0.205,2.197-1.107l0.398,0.217c-0.809,1.125-1.465,1.969-2.479,2c-0.023,0-0.041,0-0.064,0
		c-1.652,0-2.578-1.807-2.631-1.871L52.33,211.756z M51.129,217.995c0.012,0.012,0.961,0.996,2.221,0.983
		c0.738-0.019,1.547-0.205,2.197-1.106l0.398,0.217c-0.809,1.125-1.465,1.976-2.479,1.992h-0.059c-1.652,0-2.584-1.799-2.636-1.863
		L51.129,217.995z M50.76,225.354c0.744-0.018,1.547-0.205,2.203-1.105l0.398,0.217c-0.809,1.125-1.471,1.977-2.479,1.998
		c-0.024,0-0.04,0-0.064,0c-1.653,0-2.578-1.805-2.631-1.869l0.356-0.223C48.551,224.382,49.5,225.366,50.76,225.354L50.76,225.354z
		 M43.764,205.538l0.352-0.222c0.018,0.012,0.968,0.996,2.228,0.984c0.738-0.017,1.546-0.205,2.195-1.107l0.399,0.217
		c-0.809,1.125-1.47,1.974-2.478,1.998h-0.064C44.742,207.409,43.811,205.603,43.764,205.538L43.764,205.538z M49.599,211.85
		c-0.814,1.125-1.47,1.969-2.478,2c-0.024,0-0.047,0-0.064,0c-1.651,0-2.585-1.807-2.631-1.871l0.353-0.223
		c0.01,0.012,0.96,0.996,2.22,0.984c0.744-0.018,1.546-0.205,2.197-1.107L49.599,211.85z M43.752,217.995
		c0.012,0.012,0.962,0.996,2.22,0.983c0.74-0.019,1.549-0.205,2.197-1.106l0.405,0.217c-0.814,1.125-1.472,1.976-2.479,1.992h-0.063
		c-1.653,0-2.579-1.799-2.631-1.863L43.752,217.995z M42.299,211.633l0.398,0.217c-0.809,1.125-1.466,1.969-2.479,2
		c-0.022,0-0.04,0-0.063,0c-1.653,0-2.572-1.807-2.631-1.871l0.356-0.223c0.013,0.012,0.962,0.996,2.22,0.984
		C40.841,212.723,41.649,212.536,42.299,211.633L42.299,211.633z M35.778,205.316c0.01,0.012,0.96,0.996,2.22,0.984
		c0.738-0.017,1.546-0.205,2.197-1.107l0.397,0.217c-0.809,1.125-1.464,1.974-2.478,1.998h-0.059c-1.651,0-2.585-1.806-2.631-1.871
		L35.778,205.316z M33.897,213.419c-0.019,0-0.043,0-0.059,0c-1.653,0-2.585-1.798-2.631-1.862l0.351-0.222
		c0.012,0.013,0.962,0.996,2.222,0.983c0.738-0.019,1.553-0.205,2.195-1.106l0.405,0.216
		C35.572,212.553,34.909,213.402,33.897,213.419L33.897,213.419z M38.572,219.782c-0.023,0-0.04,0.006-0.059,0.006
		c-1.659,0-2.584-1.806-2.637-1.875l0.356-0.218c0.013,0.015,0.962,0.996,2.223,0.979c0.737-0.018,1.546-0.197,2.197-1.102
		l0.397,0.213C40.242,218.912,39.587,219.766,38.572,219.782L38.572,219.782z M43.294,226.462c-0.028,0-0.046,0-0.064,0
		c-1.651,0-2.582-1.805-2.637-1.869l0.358-0.223c0.013,0.012,0.96,0.996,2.221,0.983c0.737-0.019,1.546-0.205,2.197-1.106
		l0.399,0.217C44.96,225.589,44.303,226.438,43.294,226.462L43.294,226.462z M47.649,233.354c-1.653,0-2.579-1.806-2.631-1.869
		l0.356-0.223c0.012,0.012,0.962,0.995,2.22,0.983c0.74-0.021,1.549-0.205,2.197-1.106l0.399,0.217
		c-0.809,1.125-1.466,1.97-2.478,1.998C47.689,233.354,47.672,233.354,47.649,233.354L47.649,233.354z M50.883,240.343
		c-0.024,0-0.04,0-0.064,0c-1.653,0-2.578-1.799-2.631-1.868l0.351-0.224c0.013,0.019,0.962,0.996,2.222,0.983
		c0.744-0.019,1.547-0.198,2.203-1.103l0.398,0.211C52.553,239.477,51.891,240.318,50.883,240.343L50.883,240.343z M53.9,233.354
		h-0.064c-1.652,0-2.578-1.806-2.63-1.869l0.356-0.223c0.012,0.012,0.961,0.995,2.221,0.983c0.738-0.021,1.547-0.205,2.197-1.106
		l0.398,0.217C55.57,232.479,54.914,233.329,53.9,233.354L53.9,233.354z M58.904,226.462c-0.023,0-0.041,0-0.064,0
		c-1.652,0-2.578-1.805-2.631-1.869l0.357-0.223c0.006,0.012,0.961,0.996,2.221,0.983c0.732-0.019,1.541-0.205,2.197-1.106
		l0.398,0.217C60.568,225.589,59.912,226.438,58.904,226.462L58.904,226.462z M62.707,220.081h-0.059
		c-1.658,0-2.584-1.799-2.637-1.863l0.357-0.223c0.012,0.012,0.961,0.996,2.221,0.979c0.738-0.02,1.547-0.199,2.197-1.104
		l0.404,0.211C64.377,219.214,63.721,220.063,62.707,220.081L62.707,220.081z M64.811,211.557l0.357-0.222
		c0.012,0.013,0.961,0.996,2.221,0.983c0.738-0.019,1.547-0.205,2.197-1.106l0.398,0.216c-0.809,1.125-1.465,1.975-2.479,1.991
		c-0.018,0-0.041,0-0.059,0C65.789,213.426,64.863,211.621,64.811,211.557L64.811,211.557z"/>
	<g>
		<g>
			<g>
				<defs>
					<rect id="SVGID_1_" x="30" y="191.604" width="41.76" height="51"/>
				</defs>
				<clipPath id="SVGID_2_">
					<use xlink:href="#SVGID_1_"  overflow="visible"/>
				</clipPath>
				<path clip-path="url(#SVGID_2_)" fill="#CA4755" d="M49.841,205.938c0,0,2.671-9.539-2.363-12.486"/>
			</g>
		</g>
		<g>
			<g>
				<defs>
					<rect id="SVGID_3_" x="30" y="191.604" width="41.76" height="51"/>
				</defs>
				<clipPath id="SVGID_4_">
					<use xlink:href="#SVGID_3_"  overflow="visible"/>
				</clipPath>
				<path clip-path="url(#SVGID_4_)" fill="#CA4755" d="M50.549,198.051c-0.059-1.559,0.445-2.725,1.112-3.698
					c0.681-0.972,1.606-1.71,2.696-2.191c1.09-0.474,2.367-0.702,3.668-0.456c1.277,0.246,2.625,0.938,3.293,2.373
					c-1.26,0.914-1.939,1.564-2.625,2.104c-0.662,0.544-1.295,0.932-2.027,1.254c-0.732,0.311-1.535,0.557-2.52,0.68
					S52.072,198.274,50.549,198.051L50.549,198.051z"/>
			</g>
		</g>
	</g>
	<path fill="#CA4755" d="M50.269,199.07c-1.378,0.322-2.426,0.375-3.412,0.351c-0.966-0.034-1.826-0.163-2.625-0.368
		c-0.802-0.2-1.528-0.48-2.308-0.832c-0.797-0.358-1.605-0.792-2.924-1.331c0.486-1.359,1.676-2.163,2.865-2.548
		c1.213-0.381,2.468-0.365,3.586-0.077c1.132,0.293,2.144,0.85,2.988,1.623C49.272,196.68,49.979,197.663,50.269,199.07
		L50.269,199.07z"/>
</g>
<g>
	<path d="M125.996,191.833h-20.553c-2.024,0-3.67,1.646-3.67,3.67v38.66c0,2.022,1.646,3.67,3.67,3.67h20.553
		c2.024,0,3.671-1.646,3.671-3.67v-38.66C129.667,193.479,128.02,191.833,125.996,191.833L125.996,191.833z M128.198,227.557h-3.181
		c-0.405,0-0.734,0.328-0.734,0.733s0.329,0.733,0.734,0.733h3.181v5.14c0,1.214-0.987,2.202-2.202,2.202h-20.553
		c-1.214,0-2.202-0.988-2.202-2.202v-5.14h18.84c0.405,0,0.734-0.328,0.734-0.733s-0.329-0.733-0.734-0.733h-18.84V202.11h24.957
		V227.557z M128.198,200.642h-24.957v-5.138c0-1.214,0.988-2.202,2.202-2.202h20.553c1.215,0,2.202,0.988,2.202,2.202V200.642z"/>
	<path d="M115.719,230.492c-1.214,0-2.202,0.988-2.202,2.201c0,1.216,0.988,2.203,2.202,2.203c1.214,0,2.202-0.987,2.202-2.203
		C117.921,231.48,116.933,230.492,115.719,230.492L115.719,230.492z M115.719,233.43c-0.405,0-0.734-0.33-0.734-0.734
		c0-0.403,0.329-0.732,0.734-0.732c0.405,0,0.734,0.329,0.734,0.732C116.453,233.1,116.124,233.43,115.719,233.43L115.719,233.43z"
		/>
	<path d="M118.656,196.237h-5.873c-0.405,0-0.734,0.329-0.734,0.734c0,0.405,0.329,0.734,0.734,0.734h5.873
		c0.405,0,0.733-0.329,0.733-0.734C119.389,196.566,119.061,196.237,118.656,196.237L118.656,196.237z"/>
</g>
<g>
	<path d="M197.438,230.217c-0.183,0-0.365-0.064-0.512-0.205l-8.609-8.074c-0.3-0.287-0.314-0.754-0.037-1.061
		c0.285-0.3,0.76-0.314,1.06-0.027l8.617,8.073c0.3,0.285,0.314,0.761,0.029,1.062C197.84,230.141,197.643,230.217,197.438,230.217
		L197.438,230.217z"/>
	<path d="M168.692,230.217c-0.207,0-0.403-0.076-0.548-0.232c-0.287-0.301-0.271-0.774,0.027-1.062l8.618-8.073
		c0.307-0.287,0.782-0.271,1.06,0.027c0.286,0.307,0.271,0.773-0.028,1.061l-8.618,8.074
		C169.057,230.15,168.873,230.217,168.692,230.217L168.692,230.217z"/>
	<path d="M202.532,237.73h-38.935c-2.062,0-3.742-1.67-3.742-3.742v-25.516c0-2.06,1.68-3.742,3.742-3.742h38.935
		c2.061,0,3.742,1.682,3.742,3.742v25.516C206.274,236.061,204.593,237.73,202.532,237.73L202.532,237.73z M163.597,206.229
		c-1.235,0-2.244,1.009-2.244,2.243v25.516c0,1.242,1.009,2.244,2.244,2.244h38.935c1.242,0,2.243-1.002,2.243-2.244v-25.516
		c0-1.234-1.001-2.243-2.243-2.243H163.597z"/>
	<path d="M183.067,224.994c-1,0-1.995-0.332-2.747-0.99l-19.224-16.766c-0.314-0.27-0.344-0.745-0.073-1.06
		c0.271-0.314,0.745-0.336,1.059-0.072l19.216,16.765c0.958,0.833,2.573,0.833,3.53,0l19.193-16.737
		c0.314-0.27,0.782-0.241,1.061,0.073c0.271,0.314,0.241,0.782-0.073,1.053l-19.193,16.737
		C185.057,224.662,184.063,224.994,183.067,224.994L183.067,224.994z"/>
</g>
<circle fill="none" stroke="#FFFFFF" stroke-width="0.75" stroke-miterlimit="10" cx="203.25" cy="321.531" r="47.583"/>
<polyline fill="none" stroke="#FFFFFF" stroke-width="0.75" stroke-miterlimit="10" points="196.142,334.608 209.274,321.475 
	196.142,308.453 "/>
<circle fill="none" stroke="#FFFFFF" stroke-width="0.75" stroke-miterlimit="10" cx="78.25" cy="321.531" r="47.583"/>
<polyline fill="none" stroke="#FFFFFF" stroke-width="0.75" stroke-miterlimit="10" points="84.358,334.608 71.226,321.475 
	84.358,308.453 "/>
<circle opacity="0.3" fill="none" stroke="#FFFFFF" stroke-width="0.75" stroke-miterlimit="10" cx="444.123" cy="321.531" r="47.583"/>
<polyline opacity="0.3" fill="none" stroke="#FFFFFF" stroke-width="0.75" stroke-miterlimit="10" points="437.016,334.608 
	450.147,321.475 437.016,308.453 "/>
<circle opacity="0.3" fill="none" stroke="#FFFFFF" stroke-width="0.75" stroke-miterlimit="10" cx="319.123" cy="321.531" r="47.583"/>
<polyline opacity="0.3" fill="none" stroke="#FFFFFF" stroke-width="0.75" stroke-miterlimit="10" points="325.231,334.608 
	312.1,321.475 325.231,308.453 "/>
<path fill="#8A8A8A" d="M39.075,30.303V30.3c-0.025,0-0.049,0.002-0.074,0.002c-0.023,0-0.048-0.002-0.073-0.002v0.003
	C33.984,30.381,30,34.412,30,39.375c0,6.688,7.852,13.036,9.001,13.938c1.15-0.902,9.002-7.25,9.002-13.938
	C48.004,34.412,44.02,30.381,39.075,30.303z M39.075,42.854c-2.067,0-3.742-1.674-3.742-3.741c0-2.067,1.675-3.742,3.742-3.742
	c2.066,0,3.741,1.675,3.741,3.742C42.816,41.18,41.142,42.854,39.075,42.854z"/>
<path fill="#8A8A8A" d="M144.073,88.645"/>
<g>
	<path fill="#8A8A8A" d="M95.558,53.21c0.449,0,0.839-0.148,1.17-0.441l-5.666-5.666c-0.137,0.097-0.268,0.192-0.393,0.282
		c-0.424,0.313-0.768,0.557-1.031,0.731c-0.266,0.174-0.617,0.353-1.055,0.535c-0.439,0.183-0.849,0.273-1.229,0.273h-0.021
		c-0.38,0-0.789-0.091-1.229-0.273c-0.439-0.182-0.791-0.36-1.055-0.535c-0.263-0.175-0.607-0.419-1.031-0.731
		c-0.118-0.087-0.25-0.182-0.392-0.283l-5.667,5.667c0.331,0.293,0.72,0.441,1.171,0.441H95.558z"/>
	<path fill="#8A8A8A" d="M78.471,43.535c-0.424-0.283-0.8-0.607-1.127-0.971v8.621l4.995-4.995
		C81.339,45.492,80.051,44.607,78.471,43.535L78.471,43.535z"/>
	<path fill="#8A8A8A" d="M96.228,43.535c-1.521,1.029-2.812,1.914-3.876,2.658l4.992,4.992v-8.621
		C97.023,42.92,96.651,43.244,96.228,43.535L96.228,43.535z"/>
	<path fill="#8A8A8A" d="M95.558,37.497H79.13c-0.573,0-1.015,0.193-1.323,0.58c-0.31,0.387-0.463,0.871-0.463,1.451
		c0,0.469,0.205,0.977,0.614,1.523c0.409,0.547,0.844,0.977,1.305,1.29c0.253,0.178,1.016,0.708,2.288,1.59
		c0.687,0.476,1.284,0.891,1.798,1.249c0.438,0.305,0.815,0.569,1.126,0.788c0.036,0.025,0.091,0.065,0.166,0.118
		c0.08,0.058,0.182,0.132,0.309,0.223c0.242,0.175,0.442,0.316,0.602,0.424c0.161,0.108,0.354,0.228,0.581,0.363
		c0.227,0.133,0.442,0.234,0.642,0.3c0.201,0.067,0.386,0.101,0.558,0.101h0.021c0.172,0,0.358-0.034,0.559-0.101
		c0.201-0.066,0.415-0.167,0.641-0.3c0.227-0.135,0.42-0.255,0.581-0.363c0.161-0.108,0.361-0.249,0.603-0.424
		c0.125-0.091,0.227-0.165,0.308-0.223c0.074-0.053,0.131-0.093,0.167-0.118c0.242-0.17,0.621-0.432,1.13-0.786
		c0.924-0.642,2.288-1.589,4.093-2.842c0.544-0.38,0.998-0.838,1.362-1.373c0.364-0.537,0.547-1.098,0.547-1.686
		c0-0.491-0.177-0.911-0.53-1.262C96.46,37.671,96.042,37.497,95.558,37.497L95.558,37.497z"/>
</g>
<g>
	<g>
		<g>
			<g>
				<defs>
					<rect id="SVGID_5_" x="126.344" y="33.21" width="19.95" height="20"/>
				</defs>
				<clipPath id="SVGID_6_">
					<use xlink:href="#SVGID_5_"  overflow="visible"/>
				</clipPath>
				<path clip-path="url(#SVGID_6_)" fill="#8A8A8A" d="M141.491,46.417c-0.651-0.643-1.463-0.643-2.11,0
					c-0.493,0.489-0.986,0.979-1.472,1.476c-0.133,0.137-0.245,0.166-0.406,0.074c-0.319-0.174-0.659-0.315-0.966-0.505
					c-1.431-0.9-2.629-2.057-3.69-3.358c-0.526-0.647-0.995-1.339-1.323-2.119c-0.066-0.157-0.054-0.261,0.075-0.39
					c0.493-0.477,0.974-0.966,1.459-1.455c0.676-0.68,0.676-1.476-0.004-2.16c-0.385-0.39-0.771-0.771-1.157-1.161
					c-0.398-0.398-0.792-0.8-1.194-1.194c-0.651-0.634-1.463-0.634-2.11,0.004c-0.498,0.489-0.974,0.991-1.48,1.472
					c-0.469,0.443-0.705,0.987-0.755,1.621c-0.079,1.032,0.174,2.006,0.531,2.956c0.729,1.965,1.84,3.71,3.188,5.311
					c1.82,2.165,3.993,3.877,6.534,5.112c1.145,0.556,2.33,0.982,3.62,1.053c0.887,0.05,1.658-0.174,2.276-0.866
					c0.423-0.473,0.9-0.904,1.348-1.355c0.664-0.672,0.667-1.484,0.008-2.148C143.075,47.992,142.283,47.204,141.491,46.417
					L141.491,46.417z"/>
			</g>
		</g>
	</g>
	<path fill="#8A8A8A" d="M140.699,43.112l1.53-0.261c-0.241-1.406-0.904-2.678-1.912-3.69c-1.065-1.065-2.413-1.737-3.897-1.944
		l-0.216,1.538c1.148,0.162,2.193,0.68,3.019,1.505C140.002,41.039,140.512,42.026,140.699,43.112L140.699,43.112z"/>
	<path fill="#8A8A8A" d="M143.091,36.462c-1.766-1.766-4.001-2.881-6.468-3.226l-0.216,1.538c2.131,0.299,4.063,1.265,5.589,2.786
		c1.447,1.447,2.396,3.275,2.74,5.286l1.53-0.261C145.865,40.256,144.766,38.141,143.091,36.462L143.091,36.462z"/>
</g>
<path fill="#A81A28" d="M184.075,30.303V30.3c-0.025,0-0.049,0.002-0.074,0.002c-0.023,0-0.048-0.002-0.073-0.002v0.003
	c-4.944,0.079-8.929,4.109-8.929,9.072c0,6.688,7.852,13.036,9.001,13.938c1.15-0.902,9.002-7.25,9.002-13.938
	C193.004,34.412,189.02,30.381,184.075,30.303z M184.075,42.854c-2.067,0-3.742-1.674-3.742-3.741c0-2.067,1.675-3.742,3.742-3.742
	c2.066,0,3.741,1.675,3.741,3.742C187.816,41.18,186.142,42.854,184.075,42.854z"/>
<g>
	<path fill="#A81A28" d="M240.558,53.21c0.449,0,0.839-0.148,1.17-0.441l-5.666-5.666c-0.137,0.097-0.268,0.192-0.393,0.282
		c-0.424,0.313-0.768,0.557-1.031,0.731c-0.266,0.174-0.617,0.353-1.055,0.535c-0.439,0.183-0.849,0.273-1.229,0.273h-0.021
		c-0.38,0-0.789-0.091-1.229-0.273c-0.439-0.182-0.791-0.36-1.055-0.535c-0.263-0.175-0.607-0.419-1.031-0.731
		c-0.118-0.087-0.25-0.182-0.392-0.283l-5.667,5.667c0.331,0.293,0.72,0.441,1.171,0.441H240.558z"/>
	<path fill="#A81A28" d="M223.471,43.535c-0.424-0.283-0.8-0.607-1.127-0.971v8.621l4.995-4.995
		C226.339,45.492,225.051,44.607,223.471,43.535L223.471,43.535z"/>
	<path fill="#A81A28" d="M241.228,43.535c-1.521,1.029-2.812,1.914-3.876,2.658l4.992,4.992v-8.621
		C242.023,42.92,241.651,43.244,241.228,43.535L241.228,43.535z"/>
	<path fill="#A81A28" d="M240.558,37.497H224.13c-0.573,0-1.015,0.193-1.323,0.58c-0.31,0.387-0.463,0.871-0.463,1.451
		c0,0.469,0.205,0.977,0.614,1.523c0.409,0.547,0.844,0.977,1.305,1.29c0.253,0.178,1.016,0.708,2.288,1.59
		c0.687,0.476,1.284,0.891,1.798,1.249c0.438,0.305,0.815,0.569,1.126,0.788c0.036,0.025,0.091,0.065,0.166,0.118
		c0.08,0.058,0.182,0.132,0.309,0.223c0.242,0.175,0.442,0.316,0.602,0.424c0.161,0.108,0.354,0.228,0.581,0.363
		c0.227,0.133,0.442,0.234,0.642,0.3c0.201,0.067,0.386,0.101,0.558,0.101h0.021c0.172,0,0.358-0.034,0.559-0.101
		c0.201-0.066,0.415-0.167,0.641-0.3c0.227-0.135,0.42-0.255,0.581-0.363c0.161-0.108,0.361-0.249,0.603-0.424
		c0.125-0.091,0.227-0.165,0.308-0.223c0.074-0.053,0.131-0.093,0.167-0.118c0.242-0.17,0.621-0.432,1.13-0.786
		c0.924-0.642,2.288-1.589,4.093-2.842c0.544-0.38,0.998-0.838,1.362-1.373c0.364-0.537,0.547-1.098,0.547-1.686
		c0-0.491-0.177-0.911-0.53-1.262C241.46,37.671,241.042,37.497,240.558,37.497L240.558,37.497z"/>
</g>
<g>
	<g>
		<g>
			<g>
				<defs>
					<rect id="SVGID_7_" x="271.344" y="33.21" width="19.95" height="20"/>
				</defs>
				<clipPath id="SVGID_8_">
					<use xlink:href="#SVGID_7_"  overflow="visible"/>
				</clipPath>
				<path clip-path="url(#SVGID_8_)" fill="#A81A28" d="M286.491,46.417c-0.651-0.643-1.464-0.643-2.11,0
					c-0.492,0.489-0.986,0.979-1.472,1.476c-0.134,0.137-0.245,0.166-0.406,0.074c-0.319-0.174-0.659-0.315-0.966-0.505
					c-1.432-0.9-2.629-2.057-3.689-3.358c-0.527-0.647-0.996-1.339-1.324-2.119c-0.064-0.157-0.053-0.261,0.076-0.39
					c0.492-0.477,0.975-0.966,1.459-1.455c0.676-0.68,0.676-1.476-0.004-2.16c-0.386-0.39-0.771-0.771-1.158-1.161
					c-0.396-0.398-0.791-0.8-1.192-1.194c-0.649-0.634-1.463-0.634-2.108,0.004c-0.498,0.489-0.976,0.991-1.48,1.472
					c-0.469,0.443-0.705,0.987-0.756,1.621c-0.078,1.032,0.175,2.006,0.531,2.956c0.729,1.965,1.84,3.71,3.188,5.311
					c1.818,2.165,3.992,3.877,6.533,5.112c1.146,0.556,2.33,0.982,3.619,1.053c0.889,0.05,1.658-0.174,2.276-0.866
					c0.423-0.473,0.9-0.904,1.349-1.355c0.664-0.672,0.666-1.484,0.008-2.148C288.075,47.992,287.283,47.204,286.491,46.417
					L286.491,46.417z"/>
			</g>
		</g>
	</g>
	<path fill="#A81A28" d="M285.699,43.112l1.529-0.261c-0.24-1.406-0.903-2.678-1.912-3.69c-1.064-1.065-2.412-1.737-3.896-1.944
		l-0.216,1.538c1.147,0.162,2.192,0.68,3.019,1.505C285.002,41.039,285.512,42.026,285.699,43.112L285.699,43.112z"/>
	<path fill="#A81A28" d="M288.091,36.462c-1.766-1.766-4.001-2.881-6.468-3.226l-0.216,1.538c2.131,0.299,4.063,1.265,5.589,2.786
		c1.447,1.447,2.396,3.275,2.74,5.286l1.529-0.261C290.865,40.256,289.766,38.141,288.091,36.462L288.091,36.462z"/>
</g>
<path fill="#898989" d="M175.141,87.538c0.662-0.083,1.302-0.262,1.922-0.534c-0.449,0.67-1.004,1.246-1.666,1.728
	c0,0.125,0,0.262,0,0.408c0,1.11-0.214,2.216-0.641,3.316c-0.428,1.1-1.031,2.106-1.81,3.017c-0.78,0.911-1.789,1.65-3.027,2.216
	c-1.238,0.565-2.605,0.849-4.1,0.849c-1.857,0-3.576-0.493-5.156-1.478c0.277,0.021,0.544,0.031,0.8,0.031
	c1.559,0,2.947-0.471,4.164-1.414c-0.727,0-1.373-0.215-1.938-0.645c-0.566-0.43-0.967-0.979-1.202-1.65
	c0.214,0.042,0.427,0.063,0.641,0.063c0.299,0,0.598-0.031,0.897-0.094c-0.79-0.168-1.437-0.555-1.938-1.163
	c-0.502-0.607-0.752-1.298-0.752-2.074v-0.063c0.469,0.271,0.971,0.409,1.505,0.409c-1.004-0.65-1.505-1.562-1.505-2.735
	c0-0.607,0.16-1.163,0.48-1.666c0.833,1.027,1.852,1.844,3.059,2.451c1.206,0.608,2.492,0.943,3.859,1.006
	c-0.064-0.251-0.096-0.503-0.096-0.754c0-0.901,0.33-1.676,0.992-2.326s1.452-0.975,2.37-0.975c0.981,0,1.805,0.346,2.467,1.038
	c0.768-0.147,1.484-0.409,2.146-0.786C176.358,86.49,175.867,87.099,175.141,87.538L175.141,87.538z"/>
<path fill="#898989" d="M88.135,84.427c1.265-0.74,2.429-0.893,3.494-0.457c1.22,0.479,1.676,1.578,1.365,3.298
	c-0.222,1.219-0.678,2.455-1.365,3.706s-1.464,2.346-2.329,3.282c-0.865,0.937-1.653,1.714-2.363,2.335
	c-0.71,0.62-1.31,1.094-1.797,1.42c-0.533,0.348-1.043,0.446-1.531,0.294c-0.488-0.152-0.904-0.387-1.248-0.702
	c-0.345-0.315-0.616-0.68-0.815-1.094c-0.178-0.37-0.661-1.817-1.448-4.343c-0.788-2.525-1.27-3.886-1.447-4.082
	c-0.089-0.109-0.217-0.164-0.383-0.164c-0.167,0-0.328,0.033-0.482,0.098c-0.156,0.065-0.329,0.152-0.516,0.261
	c-0.189,0.108-0.312,0.185-0.366,0.229c-0.056,0.043-0.106,0.076-0.149,0.098l-0.699-0.882c-0.022-0.021,0.238-0.31,0.782-0.866
	c0.543-0.555,1.237-1.153,2.081-1.795c0.843-0.642,1.585-1.029,2.229-1.159c0.444-0.087,0.826-0.027,1.148,0.179
	c0.322,0.206,0.571,0.55,0.75,1.029c0.177,0.479,0.315,0.946,0.416,1.404c0.1,0.457,0.205,1.012,0.315,1.665
	c0.11,0.653,0.2,1.143,0.267,1.469c0.31,1.198,0.565,2.052,0.765,2.564c0.2,0.511,0.41,0.767,0.632,0.767
	c0.487,0,1.275-1.001,2.363-3.004c0.31-0.631,0.438-1.187,0.383-1.666c-0.056-0.479-0.306-0.794-0.749-0.947
	c-0.444-0.153-0.977-0.044-1.598,0.326C86.06,86.276,86.825,85.188,88.135,84.427L88.135,84.427z"/>
<path fill="#898989" d="M46.576,83.113c0.152,0.149,0.228,0.319,0.228,0.51v14.856c0,0.191-0.076,0.361-0.228,0.51
	c-0.151,0.148-0.325,0.223-0.52,0.223H30.915c-0.195,0-0.369-0.075-0.52-0.223c-0.151-0.149-0.228-0.319-0.228-0.51V83.623
	c0-0.191,0.076-0.361,0.228-0.51c0.151-0.149,0.325-0.224,0.52-0.224h15.141C46.251,82.889,46.425,82.964,46.576,83.113z
	 M38.486,88.214c-0.802,0-1.484,0.276-2.047,0.829c-0.563,0.553-0.845,1.222-0.845,2.009c0,0.786,0.282,1.455,0.845,2.008
	c0.563,0.553,1.245,0.829,2.047,0.829c0.801,0,1.483-0.276,2.047-0.829c0.563-0.553,0.845-1.222,0.845-2.008
	c0-0.787-0.282-1.456-0.845-2.009C39.969,88.49,39.287,88.214,38.486,88.214z M44.725,90.031H43.36
	c0.064,0.34,0.098,0.68,0.098,1.021c0,1.338-0.487,2.486-1.462,3.442c-0.975,0.957-2.145,1.434-3.509,1.434
	c-1.365,0-2.534-0.477-3.508-1.434c-0.976-0.956-1.463-2.104-1.463-3.442c0-0.34,0.032-0.68,0.097-1.021h-1.365v7.14h12.477V90.031z
	 M44.725,84.93h-3.119v3.06h3.119V84.93z"/>
<path fill="#898989" d="M124.527,90.778h-2.157v-2.91h2.157v-1.72c0-1.301,0.247-2.266,0.741-2.894s1.416-0.942,2.764-0.942h2.966
	v2.91h-2.056c-0.517,0-0.843,0.088-0.978,0.265c-0.134,0.176-0.202,0.485-0.202,0.925v1.456h3.236l-0.304,2.91h-2.932v8.465h-3.235
	V90.778z"/>
<path fill="#898989" d="M206.649,98.375h3.132V86.989h-3.132V98.375z M217.083,87.054c0.297,0.043,0.66,0.157,1.088,0.34
	c0.428,0.183,0.802,0.42,1.121,0.711c0.318,0.291,0.599,0.712,0.841,1.262c0.241,0.55,0.362,1.202,0.362,1.957v7.05h-3.33v-7.18
	c0-0.431-0.127-0.776-0.379-1.035c-0.253-0.259-0.643-0.388-1.17-0.388c-0.308,0-0.577,0.054-0.808,0.162
	c-0.23,0.107-0.395,0.221-0.494,0.339c-0.099,0.119-0.176,0.265-0.231,0.437S214,91,214,91.064s0,0.107,0,0.129v7.18h-3.132V86.989
	H214v0.906c0.264-0.215,0.413-0.335,0.445-0.356c0.032-0.021,0.115-0.069,0.247-0.145c0.132-0.076,0.242-0.129,0.33-0.162
	c0.088-0.032,0.198-0.07,0.33-0.113s0.27-0.075,0.412-0.097c0.143-0.021,0.291-0.032,0.445-0.032l0,0
	C216.495,86.989,216.787,87.011,217.083,87.054z M208.199,82.85c0.439,0,0.813,0.151,1.121,0.453c0.307,0.302,0.461,0.668,0.461,1.1
	c0,0.431-0.154,0.798-0.461,1.1c-0.309,0.302-0.682,0.453-1.121,0.453c-0.44,0-0.813-0.15-1.121-0.453
	c-0.308-0.302-0.462-0.668-0.462-1.1c0-0.432,0.154-0.798,0.462-1.1C207.386,83,207.759,82.85,208.199,82.85z"/>
<path fill="#A81A28" d="M395.141,87.538c0.662-0.083,1.303-0.262,1.924-0.534c-0.449,0.67-1.006,1.246-1.668,1.728
	c0,0.125,0,0.262,0,0.408c0,1.11-0.213,2.216-0.641,3.316s-1.031,2.106-1.811,3.017c-0.779,0.911-1.788,1.65-3.026,2.216
	c-1.237,0.565-2.604,0.849-4.101,0.849c-1.856,0-3.575-0.493-5.155-1.478c0.276,0.021,0.544,0.031,0.8,0.031
	c1.559,0,2.947-0.471,4.164-1.414c-0.727,0-1.373-0.215-1.938-0.645c-0.566-0.43-0.967-0.979-1.203-1.65
	c0.215,0.042,0.428,0.063,0.642,0.063c0.299,0,0.599-0.031,0.897-0.094c-0.791-0.168-1.438-0.555-1.938-1.163
	c-0.502-0.607-0.752-1.298-0.752-2.074v-0.063c0.47,0.271,0.972,0.409,1.505,0.409c-1.004-0.65-1.505-1.562-1.505-2.735
	c0-0.607,0.16-1.163,0.479-1.666c0.834,1.027,1.853,1.844,3.06,2.451c1.206,0.608,2.492,0.943,3.858,1.006
	c-0.063-0.251-0.097-0.503-0.097-0.754c0-0.901,0.33-1.676,0.992-2.326s1.452-0.975,2.37-0.975c0.98,0,1.807,0.346,2.467,1.038
	c0.77-0.147,1.484-0.409,2.146-0.786C396.357,86.49,395.867,87.099,395.141,87.538L395.141,87.538z"/>
<path fill="#A81A28" d="M308.135,84.427c1.266-0.74,2.43-0.893,3.494-0.457c1.221,0.479,1.676,1.578,1.365,3.298
	c-0.223,1.219-0.678,2.455-1.365,3.706s-1.464,2.346-2.329,3.282c-0.864,0.937-1.653,1.714-2.362,2.335
	c-0.711,0.62-1.311,1.094-1.797,1.42c-0.533,0.348-1.043,0.446-1.531,0.294c-0.487-0.152-0.903-0.387-1.248-0.702
	c-0.346-0.315-0.615-0.68-0.814-1.094c-0.178-0.37-0.661-1.817-1.447-4.343c-0.787-2.525-1.271-3.886-1.447-4.082
	c-0.088-0.109-0.217-0.164-0.383-0.164s-0.328,0.033-0.481,0.098c-0.156,0.065-0.329,0.152-0.517,0.261
	c-0.188,0.108-0.313,0.185-0.365,0.229c-0.057,0.043-0.106,0.076-0.149,0.098l-0.698-0.882c-0.021-0.021,0.237-0.31,0.781-0.866
	c0.543-0.555,1.237-1.153,2.081-1.795c0.843-0.642,1.585-1.029,2.229-1.159c0.443-0.087,0.826-0.027,1.146,0.179
	c0.322,0.206,0.571,0.55,0.75,1.029c0.178,0.479,0.315,0.946,0.416,1.404c0.102,0.457,0.205,1.012,0.314,1.665
	c0.109,0.653,0.199,1.143,0.268,1.469c0.311,1.198,0.564,2.052,0.766,2.564c0.201,0.511,0.41,0.767,0.633,0.767
	c0.486,0,1.273-1.001,2.363-3.004c0.31-0.631,0.438-1.187,0.383-1.666c-0.058-0.479-0.308-0.794-0.75-0.947
	c-0.443-0.153-0.978-0.044-1.599,0.326C306.061,86.276,306.825,85.188,308.135,84.427L308.135,84.427z"/>
<path fill="#A81A28" d="M266.576,83.113c0.152,0.149,0.229,0.319,0.229,0.51v14.856c0,0.191-0.076,0.361-0.229,0.51
	c-0.151,0.148-0.325,0.223-0.52,0.223h-15.143c-0.195,0-0.369-0.075-0.52-0.223c-0.151-0.149-0.228-0.319-0.228-0.51V83.623
	c0-0.191,0.076-0.361,0.228-0.51c0.151-0.149,0.325-0.224,0.52-0.224h15.143C266.251,82.889,266.425,82.964,266.576,83.113z
	 M258.486,88.214c-0.802,0-1.484,0.276-2.047,0.829c-0.563,0.553-0.845,1.222-0.845,2.009c0,0.786,0.282,1.455,0.845,2.008
	c0.563,0.553,1.245,0.829,2.047,0.829c0.801,0,1.481-0.276,2.047-0.829c0.563-0.553,0.845-1.222,0.845-2.008
	c0-0.787-0.282-1.456-0.845-2.009C259.969,88.49,259.287,88.214,258.486,88.214z M264.725,90.031h-1.365
	c0.064,0.34,0.1,0.68,0.1,1.021c0,1.338-0.486,2.486-1.462,3.442c-0.976,0.957-2.146,1.434-3.511,1.434
	c-1.363,0-2.532-0.477-3.506-1.434c-0.976-0.956-1.463-2.104-1.463-3.442c0-0.34,0.032-0.68,0.097-1.021h-1.365v7.14h12.478v-7.14
	H264.725z M264.725,84.93h-3.119v3.06h3.119V84.93z"/>
<path fill="#A81A28" d="M344.527,90.778h-2.157v-2.91h2.157v-1.72c0-1.301,0.246-2.266,0.74-2.894
	c0.493-0.628,1.416-0.942,2.765-0.942h2.966v2.91h-2.057c-0.518,0-0.842,0.088-0.979,0.265c-0.134,0.176-0.201,0.485-0.201,0.925
	v1.456h3.235l-0.306,2.91h-2.932v8.465h-3.234v-8.465H344.527z"/>
<path fill="#A81A28" d="M426.649,98.375h3.132V86.989h-3.132V98.375z M437.083,87.054c0.297,0.043,0.66,0.157,1.088,0.34
	s0.802,0.42,1.121,0.711c0.318,0.291,0.599,0.712,0.841,1.262c0.241,0.55,0.362,1.202,0.362,1.957v7.05h-3.33v-7.18
	c0-0.431-0.127-0.776-0.379-1.035c-0.253-0.259-0.645-0.388-1.17-0.388c-0.31,0-0.577,0.054-0.81,0.162
	c-0.229,0.107-0.395,0.221-0.492,0.339c-0.101,0.119-0.178,0.265-0.231,0.437S434,91,434,91.064s0,0.107,0,0.129v7.18h-3.132V86.989
	H434v0.906c0.264-0.215,0.413-0.335,0.445-0.356c0.03-0.021,0.113-0.069,0.247-0.145c0.132-0.076,0.24-0.129,0.33-0.162
	c0.088-0.032,0.196-0.07,0.328-0.113c0.134-0.043,0.271-0.075,0.412-0.097c0.145-0.021,0.291-0.032,0.445-0.032l0,0
	C436.495,86.989,436.787,87.011,437.083,87.054z M428.199,82.85c0.438,0,0.813,0.151,1.121,0.453c0.307,0.302,0.461,0.668,0.461,1.1
	c0,0.431-0.154,0.798-0.461,1.1c-0.311,0.302-0.684,0.453-1.121,0.453c-0.44,0-0.813-0.15-1.121-0.453
	c-0.31-0.302-0.462-0.668-0.462-1.1c0-0.432,0.152-0.798,0.462-1.1C427.386,83,427.759,82.85,428.199,82.85z"/>
<path fill="#FFFFFF" d="M342.818,36.28l-22.03,7.961c-0.409,0.149-0.479,0.697-0.121,0.938l3.293,2.248l14.947-7.882l-12.652,9.448
	v3.827c0,0.26,0.292,0.418,0.511,0.274l2.787-1.849l2.745,1.872c0.25,0.172,0.595,0.098,0.757-0.163l9.963-16.429
	C343.102,36.391,342.966,36.224,342.818,36.28L342.818,36.28z"/>
<g>
	<polyline fill="none" stroke="#231F20" stroke-linecap="round" stroke-linejoin="round" stroke-miterlimit="10" points="
		47.381,162.071 30.853,145.542 47.381,129.013 	"/>
	
		<line fill="none" stroke="#231F20" stroke-linecap="round" stroke-linejoin="round" x1="70.853" y1="145.542" x2="30.853" y2="145.542"/>
</g>
<g>
	<polyline fill="none" stroke="#A81A28" stroke-linecap="round" stroke-miterlimit="10" points="117.381,162.071 100.853,145.542 
		117.381,129.013 	"/>
	
		<line fill="none" stroke="#A81A28" stroke-linecap="round" stroke-miterlimit="10" x1="140.853" y1="145.542" x2="100.853" y2="145.542"/>
</g>
<g>
	<path fill="#838383" d="M194.847,162.071l-24.001-24l1.144-1.144l22.857,22.856l22.855-22.856l1.144,1.144L194.847,162.071z"/>
</g>
<g>
	<path fill="#FFFFFF" d="M272.848,162.071l-24-24l1.144-1.144l22.858,22.856l22.854-22.856l1.145,1.144L272.848,162.071z"/>
</g>
<path fill="#FFFFFF" d="M391.124,42.847c0-0.082-0.033-0.154-0.086-0.208l-7.297-7.296c-0.06-0.056-0.134-0.084-0.207-0.084
	s-0.146,0.028-0.204,0.084c-0.113,0.114-0.113,0.299,0,0.412l6.799,6.799h-17.712c-0.162,0-0.293,0.131-0.293,0.292
	c0,0.159,0.131,0.29,0.293,0.29h17.714l-6.801,6.8c-0.113,0.113-0.113,0.298,0,0.412c0.109,0.114,0.295,0.114,0.408,0l7.3-7.296l0,0
	C391.092,42.999,391.124,42.927,391.124,42.847z"/>
</svg>
